<?xml version="1.0" encoding="UTF-8"?>
<svg version="1.1" viewBox="0 0 1200 280" xmlns="http://www.w3.org/2000/svg" >
<defs>
</defs>
<g fill="#0f4b7d" aria-label="Jewish">
<path d="m345.7 84.211v-74.88h-12.8v75.04c0 17.76-9.28 26.88-21.92 26.88-11.68 0-18.72-5.6-25.6-16l-9.12 7.84c7.04 11.52 17.76 19.84 34.56 19.84 20 0 34.88-12.96 34.88-38.72z"/>
<path d="m380.85 84.531h65.6c0.16-1.44 0.16-2.72 0.16-3.84 0-24.32-14.08-43.84-38.56-43.84-22.88 0-39.68 19.2-39.68 43.2 0 25.76 18.56 43.2 41.28 43.2 15.68 0 25.76-6.24 34.08-15.52l-7.68-6.88c-6.72 7.04-14.72 11.68-26.08 11.68-14.56 0-27.36-10.08-29.12-28zm0-9.12c1.6-16.16 12.48-28.16 26.88-28.16 16.48 0 25.12 13.12 26.4 28.16z"/>
<path d="m524.44 38.291h-10.24l-22.24 66.72-21.76-66.4h-13.12l28.96 83.36h10.88l22.4-65.28 22.24 65.28h10.72l29.12-83.36h-12.8l-21.76 66.4z"/>
<path d="m616.33 20.531v-13.6h-14.08v13.6zm-0.96 100.8v-82.72h-12.32v82.72z"/>
<path d="m700.92 98.131v-0.32c0-14.88-13.76-19.84-26.56-23.68-11.04-3.36-21.28-6.4-21.28-14.24v-0.32c0-6.88 6.24-12 16-12 8 0 16.8 3.04 24.48 8l5.6-9.28c-8.48-5.6-19.68-9.12-29.76-9.12-16.32 0-28.16 9.44-28.16 23.68v0.32c0 15.2 14.4 19.68 27.36 23.36 10.88 3.04 20.64 6.24 20.64 14.56v0.32c0 8-7.2 13.12-17.12 13.12-9.76 0-19.68-3.84-28.64-10.56l-6.24 8.8c9.28 7.52 22.4 12.16 34.24 12.16 16.48 0 29.44-9.12 29.44-24.8z"/>
<path d="m736.13 73.971c0-15.52 10.56-25.92 24.8-25.92 14.56 0 22.88 9.6 22.88 24.96v48.32h12.32v-51.36c0-19.68-11.68-33.12-31.68-33.12-14.24 0-22.88 7.2-28.32 16.16v-48.48h-12.32v116.8h12.32z"/>
</g>
<g fill="#949c51" aria-label="Gen">
<path d="m917.46 105.81v-47.04h-47.68v17.12h28.64v20.96c-6.88 5.12-16.48 8.48-27.04 8.48-22.88 0-38.08-16.96-38.08-40.16 0-21.76 15.68-39.68 36.32-39.68 14.24 0 22.72 4.64 31.36 12l12.48-14.88c-11.52-9.76-23.52-15.2-43.04-15.2-33.76 0-57.76 26.56-57.76 58.08 0 32.8 23.04 57.76 58.08 57.76 19.84 0 35.68-8 46.72-17.44z"/>
<path d="m955.41 85.971h62.08c0.16-1.92 0.32-3.52 0.32-5.28 0-24.48-13.6-45.6-40.48-45.6-24.16 0-41.28 19.84-41.28 44.16 0 26.24 18.88 44 43.36 44 15.52 0 26.56-6.24 34.56-15.84l-11.36-10.08c-6.72 6.56-13.44 10.08-22.88 10.08-12.48 0-22.08-7.68-24.32-21.44zm-0.16-12.8c1.76-13.12 10.08-22.24 21.92-22.24 12.8 0 20.16 9.76 21.44 22.24z"/>
<path d="m1056.6 73.651c0-13.12 7.84-20.96 19.04-20.96 11.52 0 18.08 7.52 18.08 20.64v48h19.36v-53.76c0-19.68-11.04-32.48-30.08-32.48-13.12 0-20.96 6.88-26.4 14.88v-13.12h-19.36v84.48h19.36z"/>
</g>
<g transform="translate(20 0)">
<g filter="url(#b)">
<path transform="rotate(60 54.629 171.52)" d="m54.629 141.69c18.966-67.925 93.273 0 0 87.332-93.273-87.332-18.966-155.26 0-87.332z" fill="#949c51" fill-opacity=".9" stroke="null" stroke-width="1.5"/>
<path transform="rotate(180 118.32 60.844)" d="m118.32 31.012c18.966-67.925 93.273 0 0 87.332-93.273-87.332-18.966-155.26 0-87.332z" fill="#949c51" fill-opacity=".9" stroke="null" stroke-width="1.5"/>
<path transform="rotate(-60 182.32 171.69)" d="m182.32 141.86c18.966-67.925 93.273 0 0 87.332-93.273-87.332-18.966-155.26 0-87.332z" fill="#949c51" fill-opacity=".9" stroke="null" stroke-width="1.5"/>
<path d="m118.28 178.08c18.966-67.925 93.273 0 0 87.332-93.273-87.332-18.966-155.26 0-87.332z" fill="#0f4b7d" fill-opacity=".7" stroke="null" stroke-width="1.5"/>
<path transform="rotate(120 54.278 97.416)" d="m54.278 67.584c18.966-67.925 93.273 0 0 87.332-93.273-87.332-18.966-155.26 0-87.332z" fill="#0f4b7d" fill-opacity=".7" stroke="null" stroke-width="1.5"/>
<path transform="rotate(240 182.28 97.416)" d="m182.28 67.584c18.966-67.925 93.273 0 0 87.332-93.273-87.332-18.966-155.26 0-87.332z" fill="#0f4b7d" fill-opacity=".7" stroke="null" stroke-width="1.5"/>
<circle cx="118.3" cy="134.88" r="45" fill="#fff" stroke="null" stroke-width="1.5"/>
<g fill="#fff" stroke="null">
<rect transform="rotate(60 54.5 171.56)" x="53" y="150" width="3" height="60" stroke-width="1.5"/>
<rect transform="rotate(180 118.5 60.76)" x="117" y="40" width="3" height="60" stroke-width="1.5"/>
<rect transform="rotate(-60 182.5 171.74)" x="181" y="150" width="3" height="60" stroke-width="1.5"/>
<rect x="117" y="192" width="3" height="60" stroke-width="0"/>
<rect transform="rotate(120 54.5 98.374)" x="53" y="78" width="3" height="60" stroke-width="1.5"/>
<rect transform="rotate(240 182.5 98.374)" x="181" y="78" width="3" height="60" stroke-width="1.5"/>
</g>
<circle cx="118.3" cy="134.88" r="40" fill="#949c4f" stroke-width="1.5"/>
<circle cx="118.3" cy="134.88" r="42" fill="url(#a)" stroke-width="1.5"/>
</g>
</g>
</svg>
