<?xml version="1.0" standalone="no"?>
<!DOCTYPE svg PUBLIC "-//W3C//DTD SVG 20010904//EN"
 "http://www.w3.org/TR/2001/REC-SVG-20010904/DTD/svg10.dtd">
<svg version="1.0" xmlns="http://www.w3.org/2000/svg"
 width="1860.000000pt" height="500.000000pt" viewBox="0 0 1860.000000 500.000000"
 preserveAspectRatio="xMidYMid meet">

<g transform="translate(0.000000,500.000000) scale(0.100000,-0.100000)"
fill="#000000" stroke="none">
<path d="M2270 4704 c-969 -131 -1730 -891 -1864 -1862 -21 -148 -21 -436 0
-584 123 -891 779 -1616 1649 -1821 336 -80 710 -76 1045 9 426 109 811 347
1097 679 506 585 664 1376 423 2107 -260 790 -957 1366 -1778 1472 -152 20
-426 19 -572 0z m350 -1199 l0 -65 255 0 c166 0 255 -4 255 -10 0 -6 -14 -35
-31 -65 l-31 -55 -221 -2 -222 -3 0 -65 0 -65 357 -3 358 -2 -32 -65 -32 -65
-326 -2 -325 -3 0 -65 0 -65 457 -3 458 -2 -32 -65 -32 -65 -428 0 -428 0 0
-65 0 -65 565 0 565 0 -32 -65 -32 -65 -531 -2 -530 -3 0 -65 0 -65 663 -3
c364 -1 662 -4 662 -7 0 -3 -14 -32 -30 -65 l-30 -60 -633 -2 -632 -3 0 -65 0
-65 762 -3 763 -2 -32 -65 -32 -65 -733 0 -733 0 0 -65 0 -65 -759 0 -759 0
-27 64 c-16 38 -24 70 -19 78 4 7 25 37 47 66 l39 52 79 0 c44 0 79 3 79 8 0
4 -12 35 -26 69 l-26 62 48 65 48 66 83 0 83 0 -30 60 c-16 33 -30 65 -30 71
0 6 23 40 51 75 l51 64 79 0 c43 0 79 3 79 8 0 4 -14 31 -30 61 -17 30 -30 57
-30 61 0 4 23 37 50 74 l51 66 84 0 85 0 -30 60 c-16 33 -30 64 -30 70 0 5 19
37 43 70 l42 59 83 1 c45 0 82 2 82 4 0 2 -13 33 -29 69 l-30 66 100 130 100
131 185 0 184 0 0 -65z"/>
<path d="M7610 4457 c-141 -33 -226 -121 -237 -246 -13 -145 56 -231 240 -301
169 -64 213 -85 250 -121 31 -31 37 -43 37 -78 0 -92 -52 -136 -160 -135 -50
0 -77 7 -116 27 -65 33 -149 124 -196 213 l-37 69 -1 -183 c0 -138 3 -181 12
-176 30 19 99 21 193 7 55 -8 132 -13 172 -11 165 11 273 117 273 271 0 151
-68 215 -339 318 -145 55 -191 93 -191 160 0 87 61 139 162 139 97 -1 180 -56
266 -179 25 -37 49 -70 54 -76 9 -9 3 161 -8 251 l-5 41 -112 6 c-62 4 -132 9
-157 11 -25 3 -70 0 -100 -7z"/>
<path d="M11590 4456 c-159 -43 -283 -169 -326 -330 -18 -68 -18 -198 2 -271
39 -151 166 -279 318 -320 153 -41 309 -1 425 110 98 93 141 200 141 350 0
140 -45 253 -134 340 -116 112 -284 160 -426 121z m135 -61 c75 -44 142 -158
176 -303 17 -71 20 -109 17 -207 -5 -139 -24 -205 -75 -264 -47 -55 -90 -68
-145 -43 -75 33 -136 119 -185 257 -25 74 -27 92 -28 235 0 140 3 161 24 215
13 33 41 77 61 98 46 46 92 50 155 12z"/>
<path d="M5285 4428 c15 -12 36 -40 46 -62 17 -37 19 -71 19 -374 0 -367 -1
-377 -62 -432 l-32 -30 129 0 130 0 -32 21 c-17 11 -41 39 -53 63 -19 41 -20
57 -18 353 l3 310 164 -373 c90 -206 167 -374 170 -374 3 0 77 166 164 368 88
203 163 375 168 383 12 20 11 -597 -1 -643 -6 -21 -27 -51 -50 -72 l-40 -36
202 0 203 0 -34 27 c-60 47 -61 56 -61 440 0 335 1 349 21 383 11 19 31 43 42
52 21 17 16 18 -127 15 l-149 -2 -125 -292 c-69 -161 -128 -293 -132 -293 -3
0 -64 133 -134 295 l-129 295 -155 0 -155 0 28 -22z"/>
<path d="M6475 4428 c60 -47 65 -75 65 -383 0 -159 5 -296 10 -317 21 -73 70
-130 144 -168 68 -34 71 -35 190 -35 112 0 125 2 172 27 29 15 66 44 83 65 60
73 64 98 70 433 6 327 7 328 62 374 l31 26 -120 0 -120 0 33 -33 c52 -52 57
-87 53 -396 -3 -267 -4 -278 -27 -324 -30 -62 -81 -96 -155 -104 -101 -10
-174 35 -205 126 -7 22 -11 135 -11 329 0 280 1 296 21 331 11 21 33 45 47 54
26 16 17 16 -172 17 l-199 0 28 -22z"/>
<path d="M8141 4423 c58 -49 59 -59 59 -433 0 -319 -1 -343 -20 -379 -10 -21
-32 -48 -47 -60 l-28 -20 356 -1 357 0 6 128 c4 70 9 137 12 150 8 39 -3 24
-40 -55 -42 -88 -95 -143 -153 -161 -22 -7 -84 -12 -137 -12 l-96 0 0 216 0
216 55 -4 c72 -6 102 -29 140 -103 l30 -60 3 87 c1 49 1 127 0 175 l-3 88 -25
-45 c-35 -62 -80 -90 -146 -90 l-54 0 0 170 0 170 110 0 c77 0 120 -4 139 -14
41 -22 100 -91 127 -150 l23 -51 0 35 c1 19 -2 79 -6 133 l-6 97 -344 0 -345
0 33 -27z"/>
<path d="M8924 4429 c59 -46 61 -56 66 -394 l5 -310 31 -55 c61 -106 169 -155
333 -148 83 3 103 8 151 33 59 33 112 94 131 153 8 23 14 151 18 342 6 327 7
328 62 374 l31 26 -122 0 -122 0 31 -25 c58 -50 63 -80 59 -396 -3 -275 -4
-285 -27 -332 -29 -59 -81 -96 -147 -103 -102 -12 -186 36 -212 123 -8 27 -12
134 -12 332 0 320 1 325 60 375 l32 26 -198 0 -197 0 27 -21z"/>
<path d="M9835 4428 c15 -12 36 -40 46 -62 17 -37 19 -71 19 -366 0 -190 -4
-340 -10 -362 -6 -21 -27 -51 -50 -72 l-40 -36 132 0 133 0 -36 24 c-67 46
-70 63 -67 410 l3 309 149 -339 c82 -187 157 -355 167 -374 l17 -35 30 65 c16
36 89 205 162 375 73 171 137 314 141 319 5 6 9 -129 9 -305 0 -350 -3 -366
-69 -422 l-33 -27 202 0 202 0 -32 26 c-64 55 -65 57 -68 402 -4 362 1 405 54
458 l35 35 -147 -3 -148 -3 -122 -285 c-67 -157 -126 -291 -131 -297 -5 -9
-54 94 -137 287 l-130 300 -154 0 -155 0 28 -22z"/>
<path d="M12253 4416 c21 -21 38 -51 46 -79 15 -61 15 -637 0 -692 -6 -22 -28
-56 -49 -77 l-38 -38 199 0 199 0 -38 35 c-54 48 -62 85 -62 279 l0 166 43 0
c23 0 61 -9 83 -19 34 -15 47 -30 73 -82 l31 -62 0 174 0 174 -24 -45 c-34
-65 -75 -90 -147 -90 l-59 0 0 170 0 170 108 0 c160 -1 210 -31 274 -165 l28
-60 -5 95 c-3 52 -8 114 -11 138 l-5 42 -340 0 -340 0 34 -34z"/>
<path d="M8774 3430 c-171 -36 -269 -177 -234 -335 24 -107 88 -159 290 -235
74 -28 152 -62 173 -76 46 -30 71 -83 61 -127 -17 -77 -67 -111 -161 -110
-120 1 -216 73 -309 233 l-44 75 0 -181 0 -181 46 15 c41 13 57 13 166 -3 134
-20 216 -16 281 13 104 47 157 129 157 247 0 86 -21 136 -78 187 -51 46 -71
57 -219 113 -199 77 -241 114 -230 197 11 79 68 121 164 120 97 -1 187 -65
280 -202 l45 -65 -6 94 c-3 52 -6 120 -6 151 l0 57 -102 7 c-57 3 -132 8 -168
11 -36 2 -83 0 -106 -5z"/>
<path d="M14727 3433 c-3 -5 -78 -187 -166 -405 -160 -398 -171 -422 -224
-490 l-29 -38 119 0 118 0 -31 20 c-61 39 -66 92 -19 203 l15 37 149 0 149 0
23 -57 c13 -32 23 -75 24 -97 0 -33 -7 -44 -39 -72 l-39 -34 208 0 208 0 -41
44 c-52 57 -53 58 -242 497 -178 413 -175 405 -183 392z m4 -480 l57 -143
-130 0 c-120 0 -130 1 -123 18 12 30 76 195 97 251 25 65 19 72 99 -126z"/>
<path d="M15511 3425 c-216 -60 -351 -237 -351 -460 0 -227 139 -402 365 -460
117 -30 217 -17 358 47 l67 31 0 131 c0 152 8 188 52 233 l32 33 -189 0 -189
0 32 -30 c54 -49 62 -81 62 -250 l0 -150 -47 0 c-178 0 -338 271 -320 540 9
145 61 245 145 282 116 52 270 -21 378 -178 38 -56 39 -56 42 -28 2 16 1 83
-3 149 l-7 120 -186 2 c-140 2 -201 -1 -241 -12z"/>
<path d="M5523 3395 c53 -50 54 -53 61 -451 6 -334 5 -373 -9 -388 -52 -52
-136 38 -190 203 l-17 54 -70 -109 -70 -108 28 -23 c43 -35 103 -61 163 -73
165 -31 287 20 342 143 23 50 24 63 29 367 5 338 5 337 61 384 l31 26 -194 0
-193 0 28 -25z"/>
<path d="M5971 3393 c58 -49 59 -59 59 -428 0 -370 -1 -380 -62 -435 l-32 -30
352 0 c273 0 354 3 357 13 5 14 23 280 19 285 -1 2 -14 -23 -28 -55 -40 -87
-75 -131 -125 -161 -41 -24 -58 -27 -158 -31 l-113 -3 0 217 0 217 55 -4 c71
-6 101 -28 142 -104 l32 -59 1 173 c0 94 -2 172 -4 172 -2 0 -16 -21 -31 -46
-35 -60 -76 -84 -142 -84 l-53 0 0 170 0 170 113 0 c98 0 116 -3 149 -23 44
-26 81 -73 114 -142 l23 -50 0 35 c1 19 -2 79 -6 133 l-6 97 -344 0 -345 0 33
-27z"/>
<path d="M6732 3388 c43 -46 65 -94 237 -509 86 -207 160 -378 165 -379 5 -1
61 127 125 284 63 157 118 283 122 278 4 -4 58 -131 119 -282 62 -151 115
-279 117 -284 9 -13 11 -7 168 399 153 396 172 439 213 493 l24 32 -105 0
-105 0 34 -34 c24 -24 34 -43 34 -66 0 -38 -172 -502 -182 -492 -4 4 -45 107
-92 230 -103 267 -107 309 -38 346 25 14 9 15 -178 15 -142 0 -200 -3 -188
-10 28 -16 76 -92 114 -180 l35 -82 -68 -169 c-46 -117 -69 -164 -75 -154 -17
30 -171 432 -179 465 -9 42 9 91 42 115 22 15 11 16 -173 16 l-196 0 30 -32z"/>
<path d="M8091 3393 c57 -49 59 -60 59 -427 0 -211 -4 -345 -11 -363 -5 -15
-27 -45 -47 -65 l-36 -38 199 0 200 1 -28 20 c-15 12 -37 39 -47 60 -19 36
-20 60 -20 386 0 335 1 349 21 383 11 19 31 43 42 52 21 17 14 18 -171 18
l-194 0 33 -27z"/>
<path d="M9302 3397 c57 -48 58 -55 58 -431 0 -214 -4 -355 -10 -372 -6 -15
-27 -42 -46 -61 l-35 -33 198 0 197 0 -32 30 c-55 50 -62 79 -62 275 l0 175
165 0 165 0 0 -166 c0 -194 -8 -231 -62 -279 l-38 -35 202 0 203 0 -33 26
c-66 52 -67 56 -70 401 -4 358 1 404 52 458 l33 35 -190 0 -190 0 28 -22 c51
-40 65 -88 65 -235 l0 -133 -165 0 -165 0 0 135 c0 152 9 185 59 228 l33 27
-194 0 -193 0 27 -23z"/>
<path d="M10540 3381 c20 -21 40 -53 44 -71 11 -56 7 -676 -5 -707 -5 -15 -27
-45 -47 -65 l-36 -38 198 0 197 0 -35 33 c-19 19 -40 46 -46 61 -5 15 -10 107
-10 207 l0 179 160 0 160 0 0 -179 c0 -100 -5 -192 -10 -207 -6 -15 -27 -42
-46 -61 l-35 -33 197 0 198 0 -36 38 c-20 20 -42 50 -47 65 -14 37 -15 669 -1
719 6 20 26 50 46 67 l35 31 -192 0 -191 0 31 -29 c45 -42 51 -68 51 -222 l0
-139 -160 0 -160 0 0 139 c0 154 6 180 51 222 l31 29 -189 0 -190 0 37 -39z"/>
<path d="M11517 3402 c11 -9 31 -33 42 -52 20 -34 21 -48 21 -382 0 -216 -4
-357 -10 -374 -6 -15 -27 -42 -46 -61 l-35 -33 354 0 355 0 6 98 c4 53 9 122
11 152 l5 55 -32 -66 c-76 -153 -119 -181 -285 -187 l-113 -4 0 216 0 216 45
0 c76 0 130 -42 168 -130 15 -33 15 -25 16 140 l1 175 -30 -48 c-40 -63 -81
-87 -147 -87 l-53 0 0 171 0 171 124 -4 c122 -3 125 -4 163 -34 23 -19 53 -60
76 -105 46 -88 49 -91 42 -53 -2 16 -7 77 -11 137 l-6 107 -341 0 c-326 0
-341 -1 -320 -18z"/>
<path d="M12321 3393 c58 -49 59 -59 59 -428 0 -370 -1 -380 -62 -435 l-32
-30 199 0 199 0 -32 30 c-55 50 -62 81 -62 260 0 107 4 160 11 160 20 0 50
-45 168 -245 l116 -200 139 -3 139 -3 -54 59 c-42 46 -251 361 -267 403 -2 5
4 9 13 9 19 0 93 36 119 59 35 31 59 93 59 153 -1 70 -39 146 -92 182 -75 52
-103 56 -388 56 l-265 0 33 -27z m367 -29 c82 -34 131 -111 132 -204 0 -74
-24 -119 -81 -148 -32 -17 -57 -22 -94 -20 l-50 3 -3 193 -2 192 30 0 c17 0
47 -7 68 -16z"/>
<path d="M13221 3393 c57 -49 59 -60 59 -427 0 -211 -4 -345 -11 -363 -5 -15
-27 -45 -47 -65 l-36 -38 199 0 200 1 -32 27 c-63 54 -63 56 -63 432 0 370 2
383 56 434 l29 26 -193 0 -194 0 33 -27z"/>
<path d="M13657 3413 c-3 -5 -8 -55 -11 -113 l-7 -105 26 45 c59 100 107 130
210 130 l65 0 0 -374 c0 -235 -4 -385 -10 -402 -6 -15 -27 -42 -46 -61 l-35
-33 197 0 198 0 -32 33 c-61 63 -62 69 -62 472 l0 365 70 0 c109 0 157 -32
219 -145 l22 -40 -6 70 c-3 39 -8 91 -11 118 l-6 47 -388 0 c-214 0 -391 -3
-393 -7z"/>
<path d="M16121 3393 c58 -49 59 -59 59 -428 0 -370 -1 -380 -62 -435 l-32
-30 352 0 c273 0 354 3 357 13 4 13 23 280 19 285 -1 1 -17 -30 -36 -70 -67
-138 -117 -171 -275 -176 l-113 -4 0 217 0 217 55 -4 c71 -6 101 -28 142 -104
l32 -59 1 173 c0 94 -2 172 -4 172 -1 0 -17 -23 -34 -50 -36 -58 -77 -80 -147
-80 l-45 0 0 170 0 170 113 0 c98 0 116 -3 149 -23 43 -26 81 -72 114 -142
l25 -50 -6 94 c-3 52 -5 111 -5 133 l0 38 -346 0 -346 0 33 -27z"/>
</g>
<g transform="translate(0.000000,500.000000) scale(0.100000,-0.100000)"
fill="#707476" stroke="none">
<path d="M10265 2398 c-241 -47 -404 -285 -365 -534 34 -214 191 -362 421
-394 88 -13 176 4 283 54 l76 35 0 141 c0 155 10 192 58 230 l25 20 -183 0
-182 0 36 -40 c19 -22 39 -52 43 -67 5 -16 8 -95 8 -178 0 -174 2 -170 -102
-140 -46 13 -68 28 -117 78 -110 111 -162 264 -153 446 7 157 46 244 130 291
114 65 283 -5 392 -164 21 -31 40 -54 42 -52 2 2 1 66 -3 142 l-7 139 -176 2
c-97 0 -198 -3 -226 -9z"/>
<path d="M14627 2399 c-165 -39 -302 -183 -338 -356 -16 -79 -7 -214 20 -283
61 -158 206 -271 377 -295 153 -20 351 83 428 225 102 187 75 427 -64 574
-107 113 -281 169 -423 135z m106 -43 c80 -33 169 -177 202 -329 23 -104 17
-308 -11 -381 -23 -60 -73 -119 -114 -136 -96 -40 -231 106 -286 310 -25 91
-26 304 -2 381 22 69 53 117 97 146 39 26 68 29 114 9z"/>
<path d="M16816 1997 c-124 -305 -178 -427 -207 -465 l-39 -52 99 0 99 0 -29
29 c-36 37 -38 81 -5 166 l23 60 153 0 153 0 23 -60 c33 -85 31 -129 -5 -166
l-29 -29 188 0 188 0 -28 30 c-45 49 -69 97 -245 508 -92 213 -168 388 -169
390 -2 1 -78 -184 -170 -411z m163 -55 c34 -84 61 -154 61 -157 0 -3 -58 -5
-130 -5 -71 0 -130 4 -130 8 0 5 11 35 24 68 13 32 40 103 61 157 21 54 41 95
46 90 4 -4 35 -77 68 -161z"/>
<path d="M5475 2002 c-106 -264 -174 -418 -201 -459 l-42 -63 98 0 98 0 -30
30 c-28 28 -30 35 -26 83 3 29 14 73 26 100 l21 47 149 0 150 0 20 -52 c42
-104 40 -142 -5 -184 l-26 -24 187 0 187 0 -34 43 c-46 57 -60 84 -242 510
-87 202 -160 367 -164 367 -3 0 -78 -179 -166 -398z m160 -57 c36 -87 65 -160
65 -162 0 -1 -60 -3 -134 -3 l-134 0 55 143 c30 78 59 153 64 166 5 13 12 22
14 19 2 -2 34 -75 70 -163z"/>
<path d="M6354 2365 c54 -50 56 -66 56 -430 0 -363 -1 -374 -55 -427 l-28 -28
365 0 365 0 7 88 c4 48 9 121 12 162 l6 75 -41 -82 c-22 -47 -59 -102 -84
-126 -59 -60 -114 -77 -244 -77 l-103 0 0 375 c0 405 1 417 54 470 l25 25
-181 0 -181 0 27 -25z"/>
<path d="M7184 2365 c54 -50 56 -66 56 -429 0 -212 -4 -345 -11 -363 -5 -15
-24 -43 -42 -60 l-31 -33 183 0 184 0 -27 25 c-54 50 -56 66 -56 430 0 362 2
378 54 430 l25 25 -181 0 -181 0 27 -25z"/>
<path d="M7606 2358 c49 -53 59 -74 244 -495 l177 -403 153 373 c161 391 197
471 238 525 l24 32 -98 0 c-72 -1 -94 -3 -81 -11 22 -13 47 -61 47 -90 0 -32
-201 -532 -210 -522 -4 4 -51 116 -105 248 -111 273 -117 302 -66 347 l31 28
-192 0 -192 0 30 -32z"/>
<path d="M8519 2374 c13 -9 32 -35 42 -58 17 -37 19 -70 19 -379 0 -367 -2
-382 -56 -432 l-27 -25 184 0 183 0 -32 33 c-18 18 -37 49 -42 68 -13 46 -13
663 0 711 6 20 24 51 41 68 l31 30 -183 0 c-173 0 -182 -1 -160 -16z"/>
<path d="M8978 2374 c12 -8 31 -33 42 -54 19 -37 20 -60 20 -380 0 -370 -2
-385 -56 -435 l-27 -25 108 0 107 0 -30 35 c-17 19 -36 51 -41 72 -12 43 -15
633 -3 633 4 0 149 -169 322 -376 l315 -376 5 414 c5 449 3 433 62 488 l22 20
-109 0 c-104 0 -108 -1 -86 -16 13 -9 32 -35 42 -58 16 -36 19 -68 19 -255 0
-187 -2 -212 -15 -201 -8 7 -112 129 -232 271 l-218 259 -135 0 c-125 0 -133
-1 -112 -16z"/>
<path d="M11122 2370 c56 -44 58 -58 58 -435 0 -377 -2 -391 -58 -435 l-25
-20 114 0 c104 0 112 1 92 15 -12 8 -32 32 -45 52 -23 37 -23 43 -26 361 -2
177 0 322 5 322 4 0 82 -169 172 -375 91 -206 167 -372 171 -370 3 2 80 176
171 386 l164 382 3 -332 c3 -361 2 -364 -55 -417 l-26 -24 184 0 183 0 -31 33
c-17 17 -35 47 -42 66 -14 43 -15 660 -1 712 5 19 24 50 41 67 l32 33 -142 -3
-142 -3 -127 -297 c-69 -164 -129 -298 -132 -298 -3 0 -64 135 -135 300 l-130
300 -149 0 -149 0 25 -20z"/>
<path d="M12318 2374 c12 -8 31 -33 42 -54 19 -37 20 -60 20 -385 0 -377 -1
-384 -58 -432 l-27 -23 347 0 346 0 6 78 c4 42 9 106 11 142 l6 65 -30 -63
c-44 -91 -79 -132 -136 -158 -43 -20 -66 -24 -158 -24 l-107 0 2 218 3 217 45
-2 c25 -1 54 -5 66 -7 30 -8 74 -54 95 -101 l19 -40 0 160 0 160 -23 -40 c-34
-60 -78 -85 -148 -85 l-59 0 0 175 0 175 108 0 c154 -1 197 -23 261 -140 l31
-55 0 56 c0 31 -3 84 -6 118 l-7 61 -336 0 c-307 0 -334 -1 -313 -16z"/>
<path d="M13124 2365 c54 -50 56 -65 56 -429 0 -212 -4 -345 -11 -363 -5 -15
-24 -43 -42 -60 l-31 -33 113 0 114 0 -28 22 c-15 12 -36 40 -46 62 -17 37
-19 71 -19 356 0 189 4 310 9 305 5 -6 82 -176 171 -380 90 -203 163 -371 164
-372 1 -1 75 170 165 380 91 210 168 386 173 392 13 15 10 -626 -3 -666 -7
-19 -25 -49 -42 -66 l-31 -33 184 0 c173 0 183 1 161 16 -13 9 -32 35 -42 58
-17 37 -19 71 -19 384 0 323 1 345 20 382 11 21 30 46 42 55 21 14 13 15 -122
13 l-145 -3 -125 -295 c-70 -162 -130 -294 -134 -293 -5 1 -66 134 -136 295
l-127 293 -148 3 -149 3 28 -26z"/>
<path d="M15283 2363 c55 -58 57 -75 57 -420 0 -191 -4 -333 -11 -356 -5 -21
-24 -53 -41 -72 l-30 -35 182 0 183 0 -25 20 c-50 39 -58 73 -58 259 0 94 4
171 9 171 20 0 61 -58 171 -246 l117 -199 134 -2 c74 -1 128 1 121 3 -21 9
-93 111 -200 281 -56 89 -102 164 -102 166 0 2 21 12 46 22 57 22 113 69 130
112 20 46 17 131 -5 179 -10 22 -38 57 -62 77 -70 61 -108 67 -393 67 l-250 0
27 -27z m326 -14 c107 -23 181 -130 167 -243 -11 -93 -63 -138 -166 -144 l-70
-4 0 201 c0 120 4 201 10 201 5 0 31 -5 59 -11z"/>
<path d="M16188 2355 c17 -19 36 -51 41 -72 15 -52 14 -645 0 -698 -6 -21 -26
-54 -44 -72 l-33 -33 185 0 186 0 -25 20 c-56 44 -58 58 -58 433 0 220 4 356
11 374 5 15 22 40 37 56 l26 27 -178 0 -178 0 30 -35z"/>
<path d="M17518 2355 c17 -19 36 -51 41 -72 7 -23 11 -162 11 -348 0 -186 -4
-325 -11 -348 -5 -21 -24 -53 -41 -72 l-30 -35 360 0 c335 0 361 1 366 18 2 9
7 64 11 122 3 58 8 125 11 150 l5 45 -24 -56 c-31 -71 -52 -105 -96 -152 -62
-67 -100 -81 -233 -85 l-118 -4 0 382 c0 416 1 426 58 470 l25 20 -183 0 -182
0 30 -35z"/>
<path d="M6428 1361 c-239 -77 -370 -337 -300 -592 24 -88 58 -143 126 -207
106 -101 253 -145 386 -118 198 42 334 191 362 397 13 100 -5 209 -48 296 -30
58 -110 143 -170 180 -100 61 -246 79 -356 44z m160 -49 c132 -88 220 -349
192 -571 -13 -98 -37 -163 -77 -211 -45 -52 -89 -66 -140 -45 -162 68 -272
393 -219 646 38 178 138 252 244 181z"/>
<path d="M11518 1361 c-152 -49 -262 -166 -304 -324 -30 -112 -12 -268 42
-368 88 -162 298 -261 473 -225 247 52 393 270 360 539 -33 271 -317 459 -571
378z m141 -35 c78 -41 163 -182 195 -323 20 -88 21 -269 2 -338 -26 -99 -74
-166 -132 -185 -70 -24 -173 57 -232 181 -53 113 -67 179 -66 334 0 123 3 147
24 200 32 82 94 145 144 145 20 0 49 -6 65 -14z"/>
<path d="M13356 1369 c-61 -15 -156 -70 -207 -121 -162 -162 -178 -458 -35
-639 181 -230 532 -228 702 4 60 81 85 154 91 262 9 156 -30 269 -127 366
-113 114 -276 163 -424 128z m120 -45 c178 -85 275 -513 168 -741 -128 -270
-404 8 -404 407 0 254 101 398 236 334z"/>
<path d="M14359 1362 c-250 -67 -385 -310 -323 -582 30 -132 121 -245 244
-304 59 -28 74 -31 165 -31 85 0 106 4 144 23 76 41 160 145 186 231 7 22 2
20 -41 -16 -79 -66 -109 -77 -199 -78 -93 0 -137 17 -198 78 -78 78 -112 192
-105 357 4 93 8 115 35 172 41 88 91 123 172 123 96 0 182 -60 273 -189 l50
-71 -8 145 c-3 80 -7 146 -8 146 0 1 -73 4 -161 8 -135 5 -170 3 -226 -12z"/>
<path d="M15191 1360 c-6 -14 -81 -198 -166 -410 -107 -265 -168 -403 -195
-442 l-41 -58 100 0 99 0 -29 29 c-36 37 -38 80 -7 169 l22 62 152 0 151 0 22
-52 c12 -29 25 -72 28 -95 5 -39 3 -45 -30 -78 l-35 -35 196 0 c176 0 194 2
175 15 -42 29 -91 127 -259 519 -155 359 -174 398 -183 376z m4 -445 c36 -87
64 -160 62 -162 -3 -2 -63 -2 -134 -1 l-130 3 53 140 c67 174 74 189 79 183 3
-2 34 -76 70 -163z"/>
<path d="M16731 1370 c-99 -21 -178 -80 -215 -160 -28 -62 -28 -169 1 -225 41
-78 87 -108 266 -175 151 -57 205 -90 230 -142 35 -71 -9 -156 -94 -178 -135
-37 -275 53 -380 243 l-29 52 0 -173 0 -173 21 12 c15 7 52 9 110 5 49 -3 129
-9 177 -12 155 -11 256 35 307 141 54 110 31 247 -53 313 -50 40 -87 58 -230
113 -185 71 -230 110 -219 192 11 80 72 127 167 127 100 -1 181 -55 273 -185
l50 -70 -7 100 c-3 55 -6 118 -6 141 l0 41 -107 7 c-60 3 -133 8 -163 11 -30
2 -75 0 -99 -5z"/>
<path d="M5266 1323 c-3 -21 -8 -69 -11 -108 l-6 -70 26 45 c58 99 110 130
215 130 l70 0 0 -362 c0 -233 -4 -377 -11 -403 -6 -21 -26 -54 -44 -72 l-33
-33 187 0 186 0 -27 23 c-58 48 -58 52 -58 467 l0 380 65 0 c36 0 80 -6 98
-14 40 -16 91 -66 118 -115 l20 -36 -6 79 c-3 43 -5 90 -5 103 l0 23 -389 0
-389 0 -6 -37z"/>
<path d="M7265 1268 c-3 -51 -9 -102 -11 -113 -3 -11 5 -2 17 20 60 110 114
145 222 145 l67 0 0 -374 c0 -240 -4 -385 -11 -403 -5 -15 -24 -43 -42 -61
l-31 -32 188 0 189 0 -28 22 c-15 12 -36 40 -46 62 -17 38 -19 73 -19 414 l0
372 68 0 c106 -1 160 -32 217 -130 l26 -45 -5 50 c-3 28 -8 76 -12 108 l-6 57
-388 0 -388 0 -7 -92z"/>
<path d="M8177 1328 c17 -18 35 -48 42 -67 15 -46 15 -651 0 -706 -6 -21 -26
-54 -44 -72 l-33 -33 185 0 186 0 -25 20 c-51 40 -58 72 -58 274 l0 186 165 0
165 0 0 -180 c0 -197 -6 -227 -56 -274 l-29 -26 185 0 184 0 -32 33 c-18 18
-37 49 -42 68 -6 19 -10 177 -10 364 0 301 2 334 19 371 10 23 29 49 42 58 22
15 13 16 -160 16 l-184 0 25 -20 c48 -38 58 -76 58 -229 l0 -141 -165 0 -165
0 0 146 c0 152 4 169 48 217 l26 27 -179 0 -179 0 31 -32z"/>
<path d="M9159 1344 c13 -9 32 -35 42 -58 17 -37 19 -70 19 -378 0 -214 -4
-347 -11 -365 -5 -15 -24 -43 -42 -61 l-31 -32 346 0 346 0 6 98 c4 53 9 117
12 142 l6 45 -36 -71 c-42 -83 -106 -148 -162 -163 -22 -6 -83 -11 -136 -11
l-98 0 0 220 0 220 33 0 c86 0 142 -37 178 -115 l18 -40 0 159 1 160 -30 -48
c-35 -55 -76 -76 -150 -76 l-50 0 0 175 0 175 110 0 c153 0 194 -22 259 -140
l31 -55 0 41 c0 23 -3 75 -6 117 l-7 77 -336 0 c-313 0 -334 -1 -312 -16z"/>
<path d="M10259 1325 c17 -20 34 -48 38 -63 10 -36 10 -656 0 -704 -4 -21 -23
-53 -41 -73 l-33 -35 182 0 183 0 -33 33 c-48 48 -56 92 -53 279 l3 163 168 3
167 2 0 -177 c0 -197 -10 -238 -65 -281 l-28 -22 188 0 188 0 -26 24 c-58 54
-58 54 -55 445 l3 359 33 41 33 41 -175 0 -175 0 25 -25 c45 -45 54 -83 54
-230 l0 -135 -170 0 -170 0 1 133 c1 144 9 181 52 227 l29 30 -177 0 -177 0
31 -35z"/>
<path d="M12208 1325 c17 -19 36 -51 41 -72 15 -52 14 -645 0 -698 -6 -21 -26
-54 -44 -72 l-33 -33 363 0 363 0 6 27 c2 16 8 73 11 128 3 55 8 118 11 140
l5 40 -23 -50 c-39 -84 -58 -114 -95 -156 -61 -67 -101 -82 -235 -87 l-118 -4
0 380 c0 245 4 391 11 409 5 15 22 40 37 56 l26 27 -178 0 -178 0 30 -35z"/>
<path d="M15598 1344 c54 -37 57 -55 62 -389 l5 -310 28 -53 c56 -107 165
-157 330 -150 90 3 108 7 156 33 30 17 67 48 83 69 52 72 58 113 58 410 0 153
5 287 10 308 6 20 23 50 39 67 l29 31 -105 0 -106 0 26 -20 c53 -42 58 -78 55
-395 -3 -281 -4 -292 -26 -337 -27 -55 -61 -83 -123 -99 -94 -25 -184 11 -229
91 -25 45 -25 47 -28 339 -4 323 1 358 55 401 l26 20 -184 0 c-169 0 -182 -1
-161 -16z"/>

<path d="M17206 1283 c-11 -132 -10 -134 23 -82 60 93 105 119 207 119 l64 0
0 -382 c0 -371 -1 -384 -21 -418 -11 -19 -31 -43 -42 -52 -21 -17 -14 -18 165
-18 l186 0 -33 33 c-18 18 -38 51 -44 72 -7 26 -11 170 -11 403 l0 362 70 0
c103 0 147 -26 214 -125 l27 -40 -6 60 c-3 33 -8 79 -11 103 l-5 42 -388 0
-388 0 -7 -77z"/>
</g>
</svg>
