<svg xmlns="http://www.w3.org/2000/svg" xmlns:xlink="http://www.w3.org/1999/xlink" width="2000" zoomAndPan="magnify" viewBox="0 0 1500 1499.999933" height="2000" preserveAspectRatio="xMidYMid meet" version="1.0"><defs><clipPath id="09e47b10df"><path d="M 195.609375 220.554688 L 1304.109375 220.554688 L 1304.109375 1279.554688 L 195.609375 1279.554688 Z M 195.609375 220.554688 " clip-rule="nonzero"/></clipPath></defs><g clip-path="url(#09e47b10df)"><path fill="#ffffff" d="M 1279.441406 343.679688 L 794.816406 343.679688 L 628.84375 225.109375 C 624.65625 222.15625 619.730469 220.554688 614.558594 220.554688 L 368.308594 220.554688 C 354.765625 220.554688 343.683594 231.636719 343.683594 245.179688 L 343.683594 343.679688 L 294.433594 343.679688 C 280.890625 343.679688 269.808594 354.761719 269.808594 368.304688 L 269.808594 466.808594 L 220.558594 466.808594 C 207.011719 466.808594 195.933594 477.886719 195.933594 491.433594 L 195.933594 1254.8125 C 195.933594 1268.355469 207.011719 1279.4375 220.558594 1279.4375 L 1279.441406 1279.4375 C 1292.984375 1279.4375 1304.066406 1268.355469 1304.066406 1254.8125 L 1304.066406 368.304688 C 1304.066406 354.761719 1292.984375 343.679688 1279.441406 343.679688 Z M 1254.816406 1230.1875 L 245.183594 1230.1875 L 245.183594 516.058594 L 458.929688 516.058594 L 624.902344 634.628906 C 629.089844 637.582031 634.015625 639.183594 639.183594 639.183594 L 1254.816406 639.183594 Z M 1254.816406 589.933594 L 647.066406 589.933594 L 481.089844 471.363281 C 476.90625 468.40625 471.980469 466.808594 466.808594 466.808594 L 319.058594 466.808594 L 319.058594 392.933594 L 532.804688 392.933594 L 698.777344 511.503906 C 702.964844 514.457031 707.890625 516.058594 713.0625 516.058594 L 1254.816406 516.058594 Z M 1254.816406 466.808594 L 720.941406 466.808594 L 554.96875 348.238281 C 550.78125 345.28125 545.855469 343.679688 540.683594 343.679688 L 392.933594 343.679688 L 392.933594 269.804688 L 606.679688 269.804688 L 772.652344 388.375 C 776.839844 391.332031 781.765625 392.933594 786.9375 392.933594 L 1254.816406 392.933594 Z M 737.6875 1180.9375 L 1180.9375 1180.9375 C 1194.484375 1180.9375 1205.5625 1169.855469 1205.5625 1156.3125 L 1205.5625 860.808594 C 1205.5625 847.265625 1194.484375 836.183594 1180.9375 836.183594 L 737.6875 836.183594 C 724.140625 836.183594 713.0625 847.265625 713.0625 860.808594 L 713.0625 1156.3125 C 713.0625 1169.855469 724.140625 1180.9375 737.6875 1180.9375 Z M 762.3125 885.433594 L 1156.3125 885.433594 L 1156.3125 1131.6875 L 762.3125 1131.6875 Z M 1107.0625 1057.8125 C 1107.0625 1071.355469 1095.980469 1082.4375 1082.4375 1082.4375 L 836.1875 1082.4375 C 822.644531 1082.4375 811.5625 1071.355469 811.5625 1057.8125 C 811.5625 1044.269531 822.644531 1033.1875 836.1875 1033.1875 L 1082.4375 1033.1875 C 1095.980469 1033.1875 1107.0625 1044.269531 1107.0625 1057.8125 Z M 811.5625 959.3125 C 811.5625 945.765625 822.644531 934.6875 836.1875 934.6875 L 983.9375 934.6875 C 997.480469 934.6875 1008.5625 945.765625 1008.5625 959.3125 C 1008.5625 972.855469 997.480469 983.9375 983.9375 983.9375 L 836.1875 983.9375 C 822.644531 983.9375 811.5625 972.855469 811.5625 959.3125 Z M 811.5625 959.3125 " fill-opacity="1" fill-rule="nonzero"/></g></svg>