<svg xmlns="http://www.w3.org/2000/svg" xmlns:xlink="http://www.w3.org/1999/xlink" width="2000" zoomAndPan="magnify" viewBox="0 0 1500 1499.999933" height="2000" preserveAspectRatio="xMidYMid meet" version="1.0"><path fill="#09497a" d="M 1303.328125 603.371094 C 1303.332031 596.867188 1303.234375 590.367188 1303.039062 583.867188 C 1302.847656 577.371094 1302.550781 570.875 1302.160156 564.386719 C 1301.765625 557.894531 1301.273438 551.414062 1300.683594 544.9375 C 1300.09375 538.464844 1299.402344 532 1298.613281 525.546875 C 1297.828125 519.089844 1296.941406 512.652344 1295.953125 506.222656 C 1294.96875 499.796875 1293.886719 493.386719 1292.707031 486.992188 C 1291.527344 480.597656 1290.246094 474.226562 1288.871094 467.871094 C 1287.496094 461.515625 1286.023438 455.183594 1284.457031 448.875 C 1282.886719 442.5625 1281.222656 436.28125 1279.460938 430.019531 C 1277.703125 423.761719 1275.847656 417.53125 1273.894531 411.328125 C 1271.945312 405.125 1269.898438 398.957031 1267.761719 392.816406 C 1265.621094 386.675781 1263.386719 380.570312 1261.0625 374.5 C 1258.738281 368.425781 1256.320312 362.394531 1253.808594 356.394531 C 1251.296875 350.398438 1248.699219 344.4375 1246.003906 338.519531 C 1243.3125 332.601562 1240.53125 326.726562 1237.660156 320.894531 C 1234.789062 315.058594 1231.828125 309.269531 1228.78125 303.527344 C 1225.734375 297.785156 1222.597656 292.089844 1219.375 286.441406 C 1216.152344 280.796875 1212.847656 275.199219 1209.453125 269.652344 C 1206.058594 264.105469 1202.582031 258.613281 1199.023438 253.171875 C 1195.460938 247.734375 1191.820312 242.347656 1188.09375 237.019531 C 1184.367188 231.691406 1180.5625 226.417969 1176.675781 221.207031 C 1172.789062 215.996094 1168.824219 210.84375 1164.78125 205.75 C 1160.738281 200.660156 1156.617188 195.628906 1152.421875 190.664062 C 1148.222656 185.699219 1143.953125 180.796875 1139.605469 175.960938 C 1135.257812 171.128906 1130.839844 166.359375 1126.347656 161.660156 C 1121.855469 156.957031 1117.292969 152.328125 1112.660156 147.765625 C 1108.023438 143.207031 1103.320312 138.71875 1098.550781 134.300781 C 1093.78125 129.882812 1088.945312 125.539062 1084.039062 121.269531 C 1079.136719 117 1074.167969 112.804688 1069.136719 108.6875 C 1064.105469 104.570312 1059.011719 100.527344 1053.859375 96.566406 C 1048.703125 92.605469 1043.488281 88.722656 1038.214844 84.917969 C 1032.941406 81.113281 1027.613281 77.390625 1022.226562 73.753906 C 1022.707031 72.378906 1023.125 70.988281 1023.480469 69.578125 C 1023.832031 68.167969 1024.121094 66.746094 1024.34375 65.308594 C 1024.566406 63.871094 1024.71875 62.429688 1024.808594 60.976562 C 1024.898438 59.527344 1024.917969 58.074219 1024.871094 56.621094 C 1024.824219 55.167969 1024.714844 53.722656 1024.535156 52.277344 C 1024.351562 50.835938 1024.109375 49.40625 1023.796875 47.984375 C 1023.484375 46.566406 1023.105469 45.164062 1022.664062 43.777344 C 1022.222656 42.394531 1021.71875 41.03125 1021.148438 39.691406 C 1020.582031 38.355469 1019.953125 37.046875 1019.265625 35.765625 C 1018.574219 34.484375 1017.828125 33.238281 1017.023438 32.027344 C 1016.21875 30.816406 1015.363281 29.644531 1014.449219 28.515625 C 1013.539062 27.382812 1012.574219 26.296875 1011.5625 25.253906 C 1010.546875 24.210938 1009.488281 23.21875 1008.382812 22.273438 C 1007.28125 21.328125 1006.132812 20.4375 1004.945312 19.597656 C 1003.757812 18.757812 1002.535156 17.976562 1001.273438 17.25 C 1000.015625 16.527344 998.726562 15.859375 997.402344 15.253906 C 996.082031 14.648438 994.734375 14.105469 993.363281 13.621094 C 991.992188 13.140625 990.601562 12.722656 989.191406 12.371094 C 987.78125 12.019531 986.355469 11.730469 984.921875 11.507812 C 983.484375 11.289062 982.039062 11.132812 980.589844 11.046875 C 979.136719 10.957031 977.683594 10.9375 976.230469 10.984375 C 974.78125 11.03125 973.332031 11.144531 971.890625 11.324219 C 970.445312 11.507812 969.015625 11.753906 967.597656 12.066406 C 966.175781 12.378906 964.773438 12.757812 963.390625 13.199219 C 962.003906 13.640625 960.644531 14.148438 959.304688 14.714844 C 957.96875 15.285156 956.660156 15.914062 955.378906 16.601562 C 954.097656 17.292969 952.855469 18.039062 951.644531 18.84375 C 950.433594 19.648438 949.261719 20.507812 948.128906 21.421875 C 947 22.335938 945.914062 23.296875 944.871094 24.3125 C 943.828125 25.324219 942.835938 26.382812 941.890625 27.488281 C 940.945312 28.59375 940.054688 29.742188 939.21875 30.929688 C 938.378906 32.117188 937.597656 33.34375 936.875 34.601562 L 859.667969 168.34375 L 859.546875 168.585938 C 840.511719 159.894531 820.976562 152.511719 800.945312 146.445312 C 780.917969 140.378906 760.570312 135.683594 739.910156 132.355469 C 718.824219 129.144531 697.625 127.246094 676.308594 126.65625 C 654.988281 126.066406 633.71875 126.792969 612.488281 128.828125 C 574.210938 133.113281 536.925781 141.707031 500.632812 154.605469 C 490.136719 158.460938 479.785156 162.671875 469.582031 167.246094 C 459.378906 171.820312 449.347656 176.742188 439.484375 182.015625 C 429.625 187.285156 419.957031 192.894531 410.488281 198.835938 C 401.015625 204.78125 391.761719 211.046875 382.726562 217.632812 C 373.691406 224.21875 364.894531 231.113281 356.339844 238.308594 C 347.78125 245.507812 339.484375 252.996094 331.449219 260.769531 C 323.414062 268.546875 315.65625 276.589844 308.179688 284.90625 C 300.703125 293.21875 293.527344 301.78125 286.644531 310.597656 C 275.246094 325.160156 264.734375 340.339844 255.109375 356.136719 C 245.484375 371.929688 236.8125 388.230469 229.097656 405.039062 C 221.378906 421.847656 214.664062 439.046875 208.957031 456.640625 C 203.25 474.234375 198.589844 492.097656 194.972656 510.238281 C 192.171875 524.710938 190.023438 539.277344 188.53125 553.941406 C 187.035156 568.605469 186.203125 583.308594 186.03125 598.050781 C 185.855469 612.789062 186.34375 627.507812 187.492188 642.203125 C 188.640625 656.898438 190.445312 671.511719 192.902344 686.046875 C 196.304688 705.3125 200.875 724.296875 206.609375 743 C 212.34375 761.707031 219.203125 779.988281 227.1875 797.851562 C 235.167969 815.710938 244.214844 833.015625 254.324219 849.765625 C 264.4375 866.515625 275.53125 882.582031 287.617188 897.96875 C 301.609375 915.613281 316.742188 932.222656 333.007812 947.796875 C 349.273438 963.371094 366.527344 977.765625 384.761719 990.976562 L 306.828125 1125.9375 C 306.074219 1127.246094 305.386719 1128.589844 304.765625 1129.96875 C 304.144531 1131.347656 303.589844 1132.753906 303.105469 1134.1875 C 302.621094 1135.617188 302.210938 1137.070312 301.867188 1138.542969 C 301.527344 1140.015625 301.257812 1141.503906 301.0625 1143.003906 C 300.867188 1144.5 300.742188 1146.007812 300.695312 1147.519531 C 300.644531 1149.027344 300.671875 1150.539062 300.769531 1152.046875 C 300.871094 1153.558594 301.042969 1155.058594 301.289062 1156.546875 C 301.535156 1158.039062 301.855469 1159.515625 302.246094 1160.976562 C 302.636719 1162.4375 303.097656 1163.875 303.632812 1165.289062 C 304.164062 1166.707031 304.761719 1168.09375 305.429688 1169.449219 C 306.097656 1170.804688 306.832031 1172.125 307.628906 1173.410156 C 308.425781 1174.695312 309.285156 1175.9375 310.203125 1177.136719 C 311.121094 1178.339844 312.097656 1179.492188 313.128906 1180.597656 C 314.164062 1181.703125 315.246094 1182.753906 316.382812 1183.753906 C 317.515625 1184.75 318.699219 1185.691406 319.925781 1186.574219 C 321.152344 1187.457031 322.421875 1188.277344 323.726562 1189.039062 L 325.308594 1190.011719 C 328.824219 1192.027344 332.539062 1193.5625 336.457031 1194.613281 C 340.371094 1195.664062 344.355469 1196.199219 348.410156 1196.210938 C 351.789062 1196.210938 355.128906 1195.839844 358.425781 1195.101562 C 361.722656 1194.363281 364.902344 1193.273438 367.960938 1191.835938 C 371.019531 1190.394531 373.882812 1188.640625 376.554688 1186.566406 C 379.222656 1184.496094 381.636719 1182.160156 383.789062 1179.554688 C 400.039062 1187.507812 416.601562 1194.746094 433.476562 1201.273438 C 450.347656 1207.796875 467.46875 1213.589844 484.839844 1218.640625 C 502.210938 1223.695312 519.769531 1227.992188 537.507812 1231.535156 C 555.25 1235.078125 573.109375 1237.855469 591.089844 1239.859375 L 591.089844 1310.015625 C 591.085938 1310.808594 591.046875 1311.601562 590.964844 1312.394531 C 590.886719 1313.1875 590.769531 1313.972656 590.609375 1314.753906 C 590.453125 1315.53125 590.257812 1316.304688 590.027344 1317.066406 C 589.792969 1317.824219 589.527344 1318.574219 589.21875 1319.308594 C 588.914062 1320.042969 588.574219 1320.761719 588.199219 1321.460938 C 587.820312 1322.164062 587.414062 1322.84375 586.96875 1323.507812 C 586.527344 1324.167969 586.054688 1324.804688 585.546875 1325.421875 C 585.042969 1326.035156 584.507812 1326.625 583.945312 1327.1875 C 583.382812 1327.75 582.796875 1328.285156 582.179688 1328.789062 C 581.566406 1329.292969 580.925781 1329.769531 580.265625 1330.210938 C 579.605469 1330.652344 578.921875 1331.0625 578.222656 1331.4375 C 577.519531 1331.8125 576.800781 1332.15625 576.066406 1332.460938 C 575.332031 1332.765625 574.585938 1333.035156 573.824219 1333.265625 C 573.0625 1333.5 572.292969 1333.695312 571.511719 1333.851562 C 570.730469 1334.007812 569.945312 1334.125 569.15625 1334.207031 C 568.363281 1334.285156 567.570312 1334.328125 566.773438 1334.332031 L 526.773438 1334.332031 C 525.378906 1334.332031 523.988281 1334.367188 522.597656 1334.4375 C 521.207031 1334.507812 519.820312 1334.609375 518.433594 1334.75 C 517.046875 1334.886719 515.667969 1335.058594 514.289062 1335.265625 C 512.910156 1335.46875 511.539062 1335.710938 510.175781 1335.980469 C 508.808594 1336.253906 507.453125 1336.5625 506.101562 1336.898438 C 504.75 1337.238281 503.410156 1337.613281 502.078125 1338.015625 C 500.746094 1338.421875 499.425781 1338.859375 498.113281 1339.328125 C 496.800781 1339.800781 495.503906 1340.300781 494.21875 1340.835938 C 492.933594 1341.367188 491.660156 1341.933594 490.402344 1342.53125 C 489.144531 1343.125 487.898438 1343.75 486.671875 1344.410156 C 485.445312 1345.066406 484.234375 1345.753906 483.039062 1346.46875 C 481.84375 1347.183594 480.667969 1347.929688 479.511719 1348.703125 C 478.355469 1349.476562 477.214844 1350.28125 476.097656 1351.109375 C 474.980469 1351.9375 473.882812 1352.796875 472.804688 1353.679688 C 471.730469 1354.5625 470.675781 1355.472656 469.644531 1356.40625 C 468.613281 1357.34375 467.605469 1358.300781 466.621094 1359.285156 C 465.636719 1360.269531 464.675781 1361.28125 463.742188 1362.3125 C 462.804688 1363.34375 461.894531 1364.398438 461.011719 1365.472656 C 460.128906 1366.550781 459.273438 1367.644531 458.441406 1368.765625 C 457.613281 1369.882812 456.8125 1371.019531 456.039062 1372.179688 C 455.261719 1373.335938 454.519531 1374.511719 453.800781 1375.707031 C 453.085938 1376.898438 452.398438 1378.109375 451.742188 1379.339844 C 451.085938 1380.566406 450.457031 1381.808594 449.863281 1383.066406 C 449.265625 1384.324219 448.703125 1385.597656 448.167969 1386.882812 C 447.636719 1388.171875 447.132812 1389.46875 446.664062 1390.78125 C 446.191406 1392.089844 445.753906 1393.410156 445.351562 1394.742188 C 444.945312 1396.078125 444.574219 1397.417969 444.234375 1398.769531 C 443.894531 1400.117188 443.589844 1401.476562 443.316406 1402.84375 C 443.042969 1404.207031 442.804688 1405.578125 442.597656 1406.957031 C 442.390625 1408.332031 442.21875 1409.714844 442.082031 1411.101562 C 441.945312 1412.484375 441.839844 1413.875 441.769531 1415.265625 C 441.703125 1416.65625 441.664062 1418.046875 441.664062 1419.4375 L 441.664062 1458.589844 C 441.667969 1459.78125 441.730469 1460.972656 441.847656 1462.160156 C 441.96875 1463.347656 442.148438 1464.527344 442.382812 1465.695312 C 442.617188 1466.867188 442.910156 1468.023438 443.257812 1469.164062 C 443.609375 1470.304688 444.011719 1471.429688 444.46875 1472.53125 C 444.929688 1473.632812 445.4375 1474.710938 446.003906 1475.761719 C 446.566406 1476.8125 447.179688 1477.835938 447.84375 1478.828125 C 448.507812 1479.820312 449.21875 1480.777344 449.976562 1481.699219 C 450.734375 1482.621094 451.535156 1483.503906 452.378906 1484.347656 C 453.222656 1485.191406 454.105469 1485.992188 455.027344 1486.75 C 455.953125 1487.507812 456.910156 1488.21875 457.898438 1488.882812 C 458.890625 1489.546875 459.914062 1490.160156 460.964844 1490.726562 C 462.019531 1491.289062 463.09375 1491.800781 464.199219 1492.257812 C 465.300781 1492.714844 466.421875 1493.121094 467.5625 1493.46875 C 468.703125 1493.816406 469.859375 1494.109375 471.03125 1494.34375 C 472.199219 1494.582031 473.378906 1494.757812 474.566406 1494.878906 C 475.753906 1495 476.945312 1495.058594 478.140625 1495.0625 L 887.632812 1495.0625 C 888.828125 1495.0625 890.019531 1495.003906 891.207031 1494.886719 C 892.398438 1494.769531 893.578125 1494.597656 894.75 1494.363281 C 895.921875 1494.128906 897.078125 1493.839844 898.21875 1493.492188 C 899.363281 1493.148438 900.488281 1492.746094 901.589844 1492.289062 C 902.695312 1491.832031 903.773438 1491.320312 904.828125 1490.757812 C 905.878906 1490.195312 906.902344 1489.582031 907.898438 1488.917969 C 908.890625 1488.253906 909.847656 1487.542969 910.773438 1486.785156 C 911.695312 1486.027344 912.578125 1485.226562 913.425781 1484.378906 C 914.269531 1483.535156 915.070312 1482.652344 915.828125 1481.726562 C 916.585938 1480.804688 917.296875 1479.847656 917.960938 1478.851562 C 918.625 1477.859375 919.238281 1476.835938 919.800781 1475.78125 C 920.363281 1474.730469 920.875 1473.652344 921.332031 1472.546875 C 921.789062 1471.445312 922.191406 1470.320312 922.535156 1469.175781 C 922.882812 1468.035156 923.171875 1466.875 923.40625 1465.703125 C 923.640625 1464.535156 923.816406 1463.351562 923.933594 1462.164062 C 924.050781 1460.976562 924.109375 1459.785156 924.109375 1458.589844 L 924.109375 1419.4375 C 924.105469 1418.046875 924.070312 1416.65625 924 1415.265625 C 923.929688 1413.875 923.828125 1412.484375 923.6875 1411.101562 C 923.550781 1409.714844 923.378906 1408.332031 923.171875 1406.957031 C 922.96875 1405.578125 922.730469 1404.207031 922.457031 1402.839844 C 922.183594 1401.476562 921.878906 1400.117188 921.539062 1398.769531 C 921.199219 1397.417969 920.828125 1396.078125 920.421875 1394.742188 C 920.015625 1393.410156 919.578125 1392.089844 919.109375 1390.78125 C 918.636719 1389.46875 918.136719 1388.171875 917.601562 1386.882812 C 917.070312 1385.597656 916.503906 1384.324219 915.910156 1383.066406 C 915.3125 1381.808594 914.6875 1380.566406 914.03125 1379.339844 C 913.371094 1378.109375 912.6875 1376.898438 911.96875 1375.707031 C 911.253906 1374.511719 910.507812 1373.335938 909.734375 1372.179688 C 908.960938 1371.019531 908.160156 1369.882812 907.328125 1368.765625 C 906.5 1367.644531 905.640625 1366.550781 904.757812 1365.472656 C 903.875 1364.398438 902.964844 1363.34375 902.03125 1362.3125 C 901.097656 1361.28125 900.136719 1360.269531 899.152344 1359.285156 C 898.167969 1358.300781 897.160156 1357.34375 896.128906 1356.40625 C 895.09375 1355.472656 894.042969 1354.5625 892.964844 1353.679688 C 891.890625 1352.796875 890.792969 1351.9375 889.671875 1351.109375 C 888.554688 1350.28125 887.417969 1349.476562 886.257812 1348.703125 C 885.101562 1347.929688 883.925781 1347.183594 882.730469 1346.46875 C 881.539062 1345.753906 880.328125 1345.066406 879.097656 1344.410156 C 877.871094 1343.75 876.628906 1343.125 875.371094 1342.53125 C 874.113281 1341.933594 872.839844 1341.367188 871.554688 1340.835938 C 870.265625 1340.300781 868.96875 1339.800781 867.65625 1339.328125 C 866.347656 1338.859375 865.027344 1338.421875 863.695312 1338.015625 C 862.363281 1337.613281 861.019531 1337.238281 859.667969 1336.898438 C 858.320312 1336.5625 856.960938 1336.253906 855.597656 1335.980469 C 854.230469 1335.710938 852.859375 1335.46875 851.480469 1335.265625 C 850.105469 1335.058594 848.722656 1334.886719 847.339844 1334.75 C 845.953125 1334.609375 844.5625 1334.507812 843.171875 1334.4375 C 841.78125 1334.367188 840.390625 1334.332031 839 1334.332031 L 799 1334.332031 C 798.203125 1334.328125 797.410156 1334.285156 796.617188 1334.207031 C 795.824219 1334.125 795.039062 1334.007812 794.257812 1333.851562 C 793.480469 1333.695312 792.707031 1333.5 791.949219 1333.265625 C 791.1875 1333.035156 790.4375 1332.765625 789.703125 1332.460938 C 788.96875 1332.15625 788.25 1331.8125 787.550781 1331.4375 C 786.847656 1331.0625 786.167969 1330.652344 785.503906 1330.210938 C 784.84375 1329.769531 784.207031 1329.292969 783.589844 1328.789062 C 782.976562 1328.285156 782.386719 1327.75 781.824219 1327.1875 C 781.261719 1326.625 780.726562 1326.035156 780.222656 1325.421875 C 779.71875 1324.804688 779.246094 1324.167969 778.800781 1323.507812 C 778.359375 1322.84375 777.949219 1322.164062 777.574219 1321.460938 C 777.199219 1320.761719 776.859375 1320.042969 776.550781 1319.308594 C 776.246094 1318.574219 775.976562 1317.824219 775.746094 1317.066406 C 775.511719 1316.304688 775.316406 1315.53125 775.160156 1314.753906 C 775.003906 1313.972656 774.886719 1313.1875 774.804688 1312.394531 C 774.726562 1311.601562 774.683594 1310.808594 774.679688 1310.015625 L 774.679688 1234.144531 C 783.84375 1232.507812 792.96875 1230.671875 802.050781 1228.636719 C 811.136719 1226.601562 820.171875 1224.367188 829.15625 1221.941406 C 838.140625 1219.511719 847.070312 1216.886719 855.945312 1214.070312 C 864.816406 1211.253906 873.621094 1208.246094 882.363281 1205.042969 C 891.105469 1201.84375 899.773438 1198.453125 908.367188 1194.875 C 916.960938 1191.296875 925.46875 1187.535156 933.902344 1183.585938 C 942.332031 1179.640625 950.671875 1175.507812 958.921875 1171.199219 C 967.171875 1166.886719 975.324219 1162.398438 983.375 1157.730469 C 991.429688 1153.066406 999.382812 1148.226562 1007.226562 1143.214844 C 1015.070312 1138.199219 1022.800781 1133.019531 1030.417969 1127.671875 C 1038.035156 1122.324219 1045.535156 1116.808594 1052.914062 1111.136719 C 1060.292969 1105.460938 1067.542969 1099.625 1074.667969 1093.636719 C 1081.792969 1087.644531 1088.785156 1081.503906 1095.640625 1075.207031 C 1102.5 1068.910156 1109.214844 1062.46875 1115.792969 1055.882812 C 1122.371094 1049.296875 1128.800781 1042.566406 1135.082031 1035.699219 C 1141.367188 1028.832031 1147.5 1021.832031 1153.476562 1014.699219 C 1159.457031 1007.5625 1165.277344 1000.300781 1170.941406 992.914062 C 1176.605469 985.527344 1182.105469 978.019531 1187.441406 970.390625 C 1192.777344 962.765625 1197.945312 955.023438 1202.945312 947.171875 C 1207.945312 939.320312 1212.769531 931.363281 1217.425781 923.300781 C 1222.078125 915.238281 1226.554688 907.078125 1230.851562 898.824219 C 1235.148438 890.566406 1239.265625 882.21875 1243.199219 873.78125 C 1247.132812 865.347656 1250.882812 856.828125 1254.449219 848.230469 C 1258.011719 839.628906 1261.386719 830.957031 1264.574219 822.210938 C 1267.757812 813.464844 1270.753906 804.652344 1273.554688 795.777344 C 1276.359375 786.898438 1278.96875 777.964844 1281.382812 768.976562 C 1283.796875 759.984375 1286.011719 750.945312 1288.03125 741.859375 C 1290.054688 732.773438 1291.875 723.648438 1293.5 714.480469 C 1295.121094 705.316406 1296.542969 696.117188 1297.765625 686.890625 C 1298.992188 677.664062 1300.011719 668.414062 1300.832031 659.140625 C 1301.652344 649.867188 1302.269531 640.582031 1302.6875 631.28125 C 1303.101562 621.984375 1303.316406 612.679688 1303.328125 603.371094 Z M 958.03125 46.761719 C 958.402344 46.113281 958.804688 45.484375 959.238281 44.878906 C 959.671875 44.269531 960.132812 43.683594 960.625 43.121094 C 961.117188 42.5625 961.632812 42.023438 962.179688 41.511719 C 962.722656 41 963.289062 40.519531 963.882812 40.0625 C 964.472656 39.605469 965.085938 39.179688 965.71875 38.785156 C 966.351562 38.390625 967.003906 38.027344 967.671875 37.695312 C 968.34375 37.363281 969.027344 37.066406 969.722656 36.804688 C 970.421875 36.539062 971.132812 36.308594 971.855469 36.117188 C 972.574219 35.921875 973.304688 35.761719 974.039062 35.640625 C 974.777344 35.515625 975.515625 35.429688 976.261719 35.382812 C 977.007812 35.332031 977.753906 35.320312 978.5 35.34375 C 979.246094 35.367188 979.988281 35.425781 980.730469 35.523438 C 981.46875 35.617188 982.203125 35.75 982.929688 35.917969 C 983.65625 36.089844 984.375 36.292969 985.082031 36.53125 C 985.789062 36.769531 986.484375 37.042969 987.164062 37.351562 C 987.84375 37.660156 988.507812 38 989.15625 38.371094 C 989.796875 38.75 990.421875 39.160156 991.027344 39.601562 C 991.628906 40.039062 992.210938 40.507812 992.769531 41.003906 C 993.328125 41.5 993.863281 42.023438 994.371094 42.574219 C 994.878906 43.121094 995.355469 43.691406 995.808594 44.289062 C 996.261719 44.882812 996.683594 45.496094 997.078125 46.132812 C 997.46875 46.769531 997.832031 47.421875 998.160156 48.09375 C 998.488281 48.765625 998.785156 49.449219 999.046875 50.148438 C 999.3125 50.847656 999.539062 51.558594 999.734375 52.28125 C 999.925781 53.003906 1000.085938 53.730469 1000.207031 54.46875 C 1000.332031 55.207031 1000.417969 55.949219 1000.46875 56.691406 C 1000.519531 57.4375 1000.535156 58.183594 1000.511719 58.933594 C 1000.492188 59.679688 1000.433594 60.421875 1000.339844 61.164062 C 1000.246094 61.90625 1000.117188 62.640625 999.953125 63.371094 C 999.789062 64.097656 999.589844 64.816406 999.355469 65.527344 C 999.117188 66.238281 998.851562 66.933594 998.546875 67.617188 C 998.246094 68.300781 997.910156 68.96875 997.542969 69.617188 L 955.476562 142.324219 L 921.066406 202.023438 C 920.703125 201.78125 893.917969 185 881.554688 179.164062 Z M 555.953125 1068.546875 C 579.707031 1074.328125 603.777344 1078.09375 628.160156 1079.847656 C 652.546875 1081.601562 676.90625 1081.320312 701.246094 1079.003906 C 735.828125 1076.316406 769.710938 1069.914062 802.890625 1059.792969 C 837.207031 1048.769531 870.074219 1034.421875 901.492188 1016.753906 C 910.542969 1011.496094 919.414062 1005.949219 928.101562 1000.109375 C 936.789062 994.273438 945.28125 988.15625 953.570312 981.765625 C 961.859375 975.371094 969.929688 968.714844 977.785156 961.796875 C 985.640625 954.878906 993.257812 947.710938 1000.644531 940.292969 C 1008.03125 932.875 1015.167969 925.226562 1022.054688 917.34375 C 1028.941406 909.457031 1035.5625 901.359375 1041.921875 893.042969 C 1048.28125 884.726562 1054.359375 876.214844 1060.160156 867.5 C 1065.964844 858.789062 1071.472656 849.894531 1076.695312 840.824219 C 1089.292969 818.828125 1100.097656 795.984375 1109.109375 772.292969 C 1118.121094 748.601562 1125.230469 724.351562 1130.433594 699.542969 C 1135.695312 673.035156 1138.773438 646.28125 1139.671875 619.273438 C 1140.566406 592.265625 1139.273438 565.363281 1135.785156 538.566406 C 1132.917969 516.230469 1128.296875 494.265625 1121.925781 472.667969 C 1118.292969 459.824219 1114.125 447.160156 1109.425781 434.667969 C 1104.722656 422.179688 1099.503906 409.910156 1093.765625 397.863281 C 1088.027344 385.8125 1081.789062 374.027344 1075.054688 362.507812 C 1068.320312 350.984375 1061.109375 339.769531 1053.429688 328.855469 C 1045.746094 317.941406 1037.613281 307.375 1029.039062 297.148438 C 1020.460938 286.925781 1011.46875 277.078125 1002.0625 267.613281 C 992.652344 258.148438 982.863281 249.097656 972.6875 240.460938 C 962.515625 231.824219 951.996094 223.632812 941.128906 215.882812 L 975.660156 156.0625 C 981.566406 160.1875 987.386719 164.421875 993.125 168.777344 C 998.863281 173.128906 1004.515625 177.59375 1010.078125 182.167969 C 1015.640625 186.746094 1021.109375 191.429688 1026.484375 196.222656 C 1031.859375 201.015625 1037.140625 205.910156 1042.324219 210.914062 C 1047.507812 215.914062 1052.585938 221.015625 1057.570312 226.21875 C 1062.550781 231.421875 1067.425781 236.71875 1072.195312 242.117188 C 1076.96875 247.511719 1081.628906 253 1086.183594 258.578125 C 1090.738281 264.160156 1095.179688 269.828125 1099.507812 275.582031 C 1103.835938 281.339844 1108.050781 287.179688 1112.148438 293.101562 C 1116.25 299.023438 1120.226562 305.027344 1124.089844 311.105469 C 1127.949219 317.1875 1131.6875 323.339844 1135.304688 329.570312 C 1138.921875 335.796875 1142.414062 342.09375 1145.785156 348.460938 C 1149.152344 354.828125 1152.390625 361.257812 1155.503906 367.753906 C 1158.617188 374.246094 1161.601562 380.800781 1164.457031 387.414062 C 1167.3125 394.027344 1170.03125 400.695312 1172.621094 407.414062 C 1175.214844 414.136719 1177.667969 420.90625 1179.992188 427.722656 C 1182.3125 434.539062 1184.5 441.402344 1186.550781 448.304688 C 1188.601562 455.210938 1190.515625 462.152344 1192.289062 469.132812 C 1194.066406 476.113281 1195.703125 483.125 1197.203125 490.167969 C 1198.699219 497.214844 1200.058594 504.285156 1201.277344 511.386719 C 1202.496094 518.484375 1203.574219 525.601562 1204.507812 532.746094 C 1205.445312 539.886719 1206.242188 547.042969 1206.894531 554.214844 C 1207.546875 561.386719 1208.058594 568.570312 1208.425781 575.765625 C 1208.796875 582.957031 1209.023438 590.15625 1209.109375 597.355469 C 1209.191406 604.558594 1209.132812 611.757812 1208.933594 618.960938 C 1208.730469 626.160156 1208.386719 633.351562 1207.902344 640.539062 C 1207.417969 647.722656 1206.789062 654.898438 1206.019531 662.058594 C 1205.25 669.21875 1204.339844 676.363281 1203.289062 683.488281 C 1202.234375 690.613281 1201.042969 697.714844 1199.710938 704.792969 C 1198.375 711.871094 1196.902344 718.917969 1195.289062 725.9375 C 1193.679688 732.960938 1191.929688 739.945312 1190.039062 746.894531 C 1188.152344 753.84375 1186.125 760.753906 1183.960938 767.625 C 1181.800781 774.496094 1179.503906 781.320312 1177.070312 788.101562 C 1174.636719 794.878906 1172.074219 801.605469 1169.375 808.285156 C 1166.675781 814.960938 1163.84375 821.585938 1160.882812 828.148438 C 1157.925781 834.714844 1154.835938 841.21875 1151.617188 847.664062 C 1148.398438 854.109375 1145.054688 860.484375 1141.582031 866.796875 C 1138.113281 873.105469 1134.519531 879.347656 1130.800781 885.515625 C 1127.082031 891.683594 1123.246094 897.777344 1119.285156 903.792969 C 1115.328125 909.8125 1111.25 915.746094 1107.054688 921.601562 C 1102.863281 927.457031 1098.554688 933.230469 1094.132812 938.914062 C 1089.710938 944.597656 1085.175781 950.195312 1080.535156 955.699219 C 1075.890625 961.207031 1071.140625 966.617188 1066.28125 971.933594 C 1061.425781 977.253906 1056.460938 982.472656 1051.398438 987.59375 C 1046.332031 992.714844 1041.171875 997.734375 1035.90625 1002.648438 C 1030.644531 1007.566406 1025.285156 1012.378906 1019.832031 1017.082031 C 1014.378906 1021.785156 1008.835938 1026.382812 1003.199219 1030.867188 C 997.5625 1035.351562 991.84375 1039.726562 986.035156 1043.984375 C 980.226562 1048.242188 974.335938 1052.382812 968.363281 1056.410156 C 962.390625 1060.4375 956.339844 1064.34375 950.214844 1068.128906 C 944.085938 1071.914062 937.886719 1075.578125 931.613281 1079.117188 C 925.34375 1082.660156 919.003906 1086.074219 912.597656 1089.363281 C 906.1875 1092.65625 899.71875 1095.816406 893.1875 1098.851562 C 886.65625 1101.882812 880.066406 1104.789062 873.417969 1107.5625 C 866.769531 1110.335938 860.070312 1112.976562 853.320312 1115.484375 C 846.566406 1117.992188 839.769531 1120.363281 832.921875 1122.601562 C 826.078125 1124.839844 819.191406 1126.945312 812.261719 1128.910156 C 805.332031 1130.875 798.367188 1132.703125 791.367188 1134.394531 C 784.367188 1136.085938 777.332031 1137.636719 770.269531 1139.050781 C 763.207031 1140.460938 756.121094 1141.734375 749.007812 1142.863281 C 741.894531 1143.996094 734.761719 1144.988281 727.609375 1145.835938 C 720.457031 1146.6875 713.292969 1147.394531 706.109375 1147.957031 C 698.929688 1148.523438 691.742188 1148.949219 684.546875 1149.230469 C 677.347656 1149.511719 670.148438 1149.648438 662.945312 1149.644531 C 643.019531 1149.703125 623.148438 1148.652344 603.335938 1146.5 C 583.527344 1144.347656 563.894531 1141.101562 544.445312 1136.765625 C 524.996094 1132.429688 505.84375 1127.03125 486.996094 1120.566406 C 468.144531 1114.097656 449.710938 1106.609375 431.695312 1098.09375 L 466.222656 1038.273438 C 495.304688 1050.820312 525.214844 1060.910156 555.953125 1068.546875 Z M 527.257812 1035.601562 C 542.25 1015.957031 554.164062 994.597656 563.003906 971.523438 C 588.050781 910.246094 642.15625 812.128906 681.183594 809.699219 C 692.246094 808.96875 702.824219 817.355469 712.550781 834.5 C 764.347656 926.539062 719.117188 1016.390625 693.464844 1055.175781 C 671.777344 1056.980469 650.09375 1056.941406 628.417969 1055.054688 C 605.628906 1053.261719 583.097656 1049.816406 560.816406 1044.71875 C 549.550781 1042.164062 538.363281 1039.125 527.257812 1035.601562 Z M 941.492188 752.917969 C 934.921875 732.03125 930.179688 710.742188 927.257812 689.042969 C 924.339844 667.34375 923.289062 645.554688 924.109375 623.675781 C 924.046875 620.960938 924.140625 618.257812 924.390625 615.554688 C 924.640625 612.855469 925.046875 610.175781 925.601562 607.523438 C 926.160156 604.867188 926.867188 602.253906 927.722656 599.679688 C 928.578125 597.109375 929.582031 594.59375 930.726562 592.132812 C 931.871094 589.675781 933.152344 587.289062 934.570312 584.976562 C 935.992188 582.667969 937.535156 580.445312 939.210938 578.308594 C 940.882812 576.175781 942.675781 574.144531 944.582031 572.214844 C 946.488281 570.285156 948.5 568.472656 950.613281 566.773438 C 954.84375 564.058594 959.261719 561.6875 963.863281 559.664062 C 968.464844 557.636719 973.195312 555.980469 978.054688 554.6875 C 982.914062 553.398438 987.84375 552.492188 992.84375 551.972656 C 997.847656 551.449219 1002.855469 551.316406 1007.878906 551.574219 C 1026.863281 551.859375 1045.546875 554.371094 1063.929688 559.113281 C 1074.984375 561.902344 1086.207031 563.402344 1097.605469 563.613281 C 1102.59375 563.734375 1108.0625 563.734375 1114.019531 563.613281 C 1114.628906 570.421875 1115.089844 577.230469 1115.359375 583.796875 C 1116.207031 604.363281 1115.683594 624.894531 1113.792969 645.390625 C 1111.898438 665.886719 1108.652344 686.167969 1104.050781 706.230469 C 1102.375 713.566406 1100.515625 720.859375 1098.472656 728.105469 C 1096.429688 735.347656 1094.207031 742.539062 1091.800781 749.671875 C 1089.394531 756.800781 1086.8125 763.871094 1084.050781 770.871094 C 1081.289062 777.875 1078.351562 784.800781 1075.242188 791.65625 C 1072.128906 798.511719 1068.847656 805.28125 1065.394531 811.972656 C 1061.941406 818.660156 1058.324219 825.257812 1054.539062 831.765625 C 1050.753906 838.269531 1046.808594 844.675781 1042.699219 850.984375 C 1038.589844 857.292969 1034.328125 863.492188 1029.90625 869.582031 C 1025.484375 875.675781 1020.914062 881.652344 1016.191406 887.515625 C 1011.46875 893.375 1006.601562 899.113281 1001.589844 904.730469 C 996.578125 910.347656 991.429688 915.835938 986.140625 921.191406 C 980.851562 926.546875 975.433594 931.769531 969.882812 936.851562 C 964.332031 941.933594 958.65625 946.875 952.855469 951.671875 C 947.054688 956.46875 941.136719 961.117188 935.101562 965.617188 C 929.066406 970.117188 922.921875 974.460938 916.667969 978.648438 C 910.414062 982.835938 904.058594 986.867188 897.601562 990.734375 C 894.804688 992.558594 871.21875 1005.570312 866.476562 1008 C 888.726562 974.199219 914.257812 934.441406 935.65625 898.210938 C 966.417969 846.414062 954.867188 803.132812 941.492188 752.917969 Z M 761.308594 161.171875 C 790.90625 167.929688 819.640625 177.332031 847.511719 189.378906 C 876.378906 202.269531 903.613281 217.996094 929.214844 236.550781 C 936.976562 242.164062 944.550781 248.015625 951.9375 254.113281 C 959.324219 260.210938 966.507812 266.539062 973.484375 273.097656 C 980.464844 279.660156 987.226562 286.433594 993.773438 293.425781 C 1000.316406 300.421875 1006.628906 307.617188 1012.710938 315.015625 C 1018.792969 322.414062 1024.632812 330 1030.226562 337.773438 C 1035.820312 345.550781 1041.160156 353.496094 1046.246094 361.613281 C 1051.328125 369.730469 1056.148438 378 1060.699219 386.425781 C 1065.253906 394.855469 1069.53125 403.417969 1073.535156 412.117188 C 1075.964844 417.105469 1084.867188 436.945312 1088.851562 449.082031 L 1088.730469 449.082031 C 1076.058594 444.222656 1063.898438 438.304688 1052.257812 431.328125 C 1043.738281 426.003906 1034.964844 421.136719 1025.933594 416.726562 C 1016.90625 412.320312 1007.671875 408.394531 998.234375 404.949219 C 988.796875 401.507812 979.203125 398.566406 969.457031 396.128906 C 959.707031 393.6875 949.863281 391.765625 939.914062 390.355469 C 933.855469 389.648438 927.777344 389.285156 921.675781 389.261719 C 914.320312 389.261719 907.019531 389.878906 899.769531 391.117188 C 892.519531 392.359375 885.429688 394.199219 878.492188 396.640625 C 871.554688 399.085938 864.875 402.097656 858.449219 405.671875 C 852.023438 409.25 845.945312 413.34375 840.214844 417.957031 C 817.84375 433.394531 800.214844 445.554688 756.808594 432.300781 C 745.5 428.777344 711.09375 418.320312 728.601562 351.085938 C 729.554688 347.445312 730.375 343.777344 731.054688 340.078125 C 731.738281 336.378906 732.28125 332.660156 732.6875 328.921875 C 733.09375 325.179688 733.359375 321.433594 733.484375 317.671875 C 733.609375 313.914062 733.597656 310.15625 733.445312 306.398438 C 733.289062 302.636719 732.996094 298.890625 732.566406 295.15625 C 732.132812 291.417969 731.5625 287.703125 730.855469 284.007812 C 730.144531 280.316406 729.300781 276.652344 728.320312 273.019531 C 727.339844 269.390625 726.222656 265.800781 724.976562 262.253906 C 723.726562 258.703125 722.347656 255.207031 720.839844 251.761719 C 719.332031 248.316406 717.699219 244.929688 715.9375 241.605469 C 714.179688 238.28125 712.296875 235.027344 710.292969 231.84375 C 708.292969 228.660156 706.175781 225.554688 703.941406 222.527344 C 701.707031 219.503906 699.363281 216.5625 696.914062 213.710938 C 694.460938 210.859375 691.90625 208.101562 689.25 205.4375 C 686.589844 202.777344 683.839844 200.21875 680.992188 197.761719 C 678.144531 195.300781 675.207031 192.953125 672.1875 190.714844 C 667.851562 187.59375 663.714844 184.230469 659.773438 180.625 C 655.246094 176.691406 651.320312 172.230469 648 167.234375 C 644.679688 162.242188 642.082031 156.898438 640.210938 151.199219 C 660.523438 150.300781 680.808594 150.6875 701.074219 152.355469 C 721.335938 154.023438 741.414062 156.960938 761.308594 161.171875 Z M 310.839844 887.996094 L 310.597656 887.996094 C 296.261719 869.914062 283.214844 850.945312 271.445312 831.097656 C 269.417969 827.046875 266.949219 823.191406 264.761719 819.179688 C 252.804688 797.574219 242.785156 775.101562 234.703125 751.769531 C 226.617188 728.433594 220.589844 704.582031 216.613281 680.210938 C 214.164062 665.242188 212.441406 650.1875 211.449219 635.050781 C 210.453125 619.914062 210.191406 604.765625 210.660156 589.601562 C 211.128906 574.441406 212.328125 559.335938 214.257812 544.292969 C 216.1875 529.246094 218.835938 514.328125 222.207031 499.539062 C 227.890625 475.109375 235.589844 451.332031 245.304688 428.207031 C 255.019531 405.082031 266.609375 382.941406 280.078125 361.785156 C 293.472656 341.078125 308.359375 321.511719 324.746094 303.085938 C 341.136719 284.660156 358.832031 267.589844 377.832031 251.871094 C 395.367188 237.566406 413.875 224.65625 433.359375 213.140625 C 452.839844 201.625 473.078125 191.640625 494.066406 183.175781 C 520.691406 213.328125 547.804688 257.949219 538.078125 308.773438 C 529.324219 354.488281 490.664062 379.898438 449.6875 406.890625 C 399.839844 439.71875 348.289062 473.640625 352.90625 546.347656 C 356.921875 610.179688 382.332031 648.113281 404.824219 681.546875 C 427.683594 715.714844 447.5 745.257812 446.40625 798.023438 C 445.066406 862.949219 363.851562 882.40625 310.839844 887.996094 Z M 329.929688 910.125 C 419.777344 896.996094 469.507812 857.84375 470.722656 798.511719 C 471.9375 738.085938 448.109375 702.460938 425.007812 667.929688 C 403.242188 635.589844 380.871094 602.03125 377.226562 544.765625 C 373.457031 486.164062 415.039062 458.808594 463.0625 427.195312 C 506.46875 398.625 551.332031 369.199219 562.03125 313.273438 C 570.785156 267.070312 555.710938 219.164062 518.261719 174.179688 C 549.855469 163.492188 582.238281 156.398438 615.40625 152.902344 C 616.960938 158.582031 619.007812 164.078125 621.546875 169.390625 C 624.089844 174.703125 627.082031 179.746094 630.527344 184.519531 C 633.972656 189.296875 637.816406 193.726562 642.058594 197.808594 C 646.300781 201.894531 650.871094 205.566406 655.773438 208.832031 L 657.71875 210.289062 C 660.257812 212.171875 662.722656 214.144531 665.113281 216.207031 C 667.503906 218.273438 669.816406 220.421875 672.046875 222.660156 C 674.277344 224.894531 676.421875 227.210938 678.484375 229.609375 C 680.542969 232.003906 682.507812 234.476562 684.382812 237.015625 C 686.257812 239.558594 688.035156 242.167969 689.71875 244.84375 C 691.398438 247.519531 692.976562 250.253906 694.453125 253.046875 C 695.929688 255.839844 697.300781 258.683594 698.566406 261.578125 C 699.832031 264.472656 700.988281 267.410156 702.035156 270.390625 C 703.082031 273.371094 704.015625 276.386719 704.839844 279.4375 C 705.660156 282.488281 706.367188 285.566406 706.960938 288.667969 C 707.554688 291.773438 708.03125 294.894531 708.390625 298.03125 C 708.75 301.171875 708.992188 304.316406 709.121094 307.476562 C 709.246094 310.632812 709.253906 313.789062 709.144531 316.945312 C 709.035156 320.101562 708.808594 323.253906 708.464844 326.394531 C 708.121094 329.535156 707.664062 332.65625 707.085938 335.761719 C 706.511719 338.871094 705.820312 341.949219 705.015625 345.003906 C 684.710938 423.0625 724.347656 447.742188 749.636719 455.523438 C 804.347656 472.179688 829.515625 454.792969 853.953125 438.015625 C 856.820312 435.644531 859.804688 433.429688 862.902344 431.371094 C 866 429.308594 869.199219 427.414062 872.492188 425.6875 C 875.785156 423.957031 879.164062 422.402344 882.617188 421.027344 C 886.074219 419.648438 889.59375 418.453125 893.171875 417.441406 C 896.753906 416.425781 900.375 415.601562 904.042969 414.96875 C 907.707031 414.332031 911.398438 413.886719 915.109375 413.632812 C 918.820312 413.378906 922.539062 413.320312 926.257812 413.453125 C 929.972656 413.585938 933.675781 413.910156 937.359375 414.429688 C 946.496094 415.789062 955.535156 417.617188 964.480469 419.914062 C 973.429688 422.210938 982.230469 424.960938 990.894531 428.167969 C 999.554688 431.375 1008.027344 435.019531 1016.308594 439.105469 C 1024.59375 443.1875 1032.644531 447.6875 1040.464844 452.605469 C 1049.070312 458.328125 1058.164062 463.121094 1067.746094 466.992188 C 1077.328125 470.859375 1087.199219 473.726562 1097.363281 475.585938 C 1103.589844 496.476562 1108.253906 517.714844 1111.347656 539.296875 C 1097.378906 540.09375 1083.601562 538.835938 1070.007812 535.527344 C 1037.4375 527.199219 976.753906 517.652344 936.386719 547.078125 C 933.535156 549.292969 930.820312 551.664062 928.242188 554.191406 C 925.664062 556.714844 923.234375 559.378906 920.960938 562.183594 C 918.6875 564.988281 916.578125 567.910156 914.636719 570.957031 C 912.699219 574 910.9375 577.148438 909.355469 580.390625 C 907.773438 583.636719 906.382812 586.964844 905.183594 590.367188 C 903.984375 593.773438 902.980469 597.234375 902.175781 600.753906 C 901.371094 604.273438 900.769531 607.828125 900.371094 611.417969 C 899.972656 615.003906 899.777344 618.605469 899.792969 622.214844 C 898.867188 645.40625 899.933594 668.507812 902.996094 691.515625 C 906.058594 714.523438 911.070312 737.097656 918.027344 759.238281 C 930.917969 807.75 940.398438 842.769531 914.746094 885.808594 C 886.296875 933.589844 850.792969 987.9375 825.261719 1026.238281 C 792.496094 1038.941406 758.695312 1047.613281 723.859375 1052.257812 C 768.238281 975.292969 772.25 891.035156 733.828125 822.585938 C 719.117188 796.566406 700.878906 783.921875 679.726562 785.378906 C 646.289062 787.570312 613.21875 827.328125 587.6875 868.910156 C 569.628906 898.898438 553.90625 930.066406 540.511719 962.40625 C 536.1875 974.234375 530.828125 985.574219 524.433594 996.425781 C 518.039062 1007.277344 510.710938 1017.457031 502.457031 1026.96875 C 469.695312 1014.652344 438.855469 998.644531 409.929688 978.941406 C 380.589844 959.113281 353.921875 936.175781 329.929688 910.125 Z M 367.375 1160.953125 C 366.992188 1161.601562 366.574219 1162.226562 366.128906 1162.832031 C 365.679688 1163.4375 365.203125 1164.019531 364.695312 1164.578125 C 364.1875 1165.136719 363.652344 1165.664062 363.089844 1166.167969 C 362.527344 1166.667969 361.941406 1167.140625 361.332031 1167.585938 C 360.722656 1168.027344 360.089844 1168.4375 359.441406 1168.816406 C 358.789062 1169.195312 358.117188 1169.539062 357.433594 1169.851562 C 356.746094 1170.160156 356.042969 1170.433594 355.328125 1170.671875 C 354.613281 1170.910156 353.890625 1171.113281 353.152344 1171.277344 C 352.417969 1171.441406 351.675781 1171.570312 350.929688 1171.660156 C 350.179688 1171.746094 349.429688 1171.796875 348.675781 1171.8125 C 347.921875 1171.824219 347.167969 1171.796875 346.417969 1171.734375 C 345.667969 1171.667969 344.921875 1171.566406 344.183594 1171.425781 C 343.441406 1171.285156 342.710938 1171.109375 341.988281 1170.894531 C 341.265625 1170.679688 340.554688 1170.425781 339.859375 1170.140625 C 339.164062 1169.851562 338.480469 1169.53125 337.816406 1169.171875 C 337.15625 1168.816406 336.511719 1168.425781 335.886719 1168.003906 C 335.257812 1167.652344 334.648438 1167.269531 334.0625 1166.855469 C 333.472656 1166.445312 332.90625 1166.003906 332.359375 1165.535156 C 331.8125 1165.0625 331.292969 1164.570312 330.796875 1164.046875 C 330.300781 1163.527344 329.832031 1162.980469 329.390625 1162.414062 C 328.949219 1161.84375 328.539062 1161.257812 328.15625 1160.648438 C 327.769531 1160.039062 327.417969 1159.410156 327.097656 1158.765625 C 326.777344 1158.121094 326.492188 1157.464844 326.238281 1156.792969 C 325.980469 1156.117188 325.761719 1155.433594 325.574219 1154.738281 C 325.390625 1154.042969 325.238281 1153.34375 325.121094 1152.632812 C 325.003906 1151.921875 324.925781 1151.207031 324.878906 1150.488281 C 324.832031 1149.773438 324.824219 1149.054688 324.851562 1148.332031 C 324.878906 1147.613281 324.9375 1146.898438 325.039062 1146.1875 C 325.136719 1145.472656 325.269531 1144.765625 325.4375 1144.066406 C 325.605469 1143.367188 325.808594 1142.679688 326.046875 1142 C 326.28125 1141.320312 326.550781 1140.652344 326.855469 1140 C 327.160156 1139.347656 327.496094 1138.714844 327.863281 1138.09375 L 404.824219 1004.839844 C 412.957031 1009.59375 441.421875 1026.238281 444.339844 1027.695312 Z M 798.996094 1358.648438 L 839 1358.648438 C 840.988281 1358.648438 842.976562 1358.746094 844.957031 1358.941406 C 846.9375 1359.136719 848.90625 1359.425781 850.859375 1359.816406 C 852.8125 1360.203125 854.742188 1360.6875 856.644531 1361.265625 C 858.550781 1361.84375 860.421875 1362.511719 862.261719 1363.273438 C 864.101562 1364.035156 865.898438 1364.886719 867.65625 1365.824219 C 869.410156 1366.765625 871.117188 1367.785156 872.773438 1368.890625 C 874.429688 1370 876.027344 1371.183594 877.566406 1372.445312 C 879.105469 1373.710938 880.578125 1375.042969 881.984375 1376.453125 C 883.394531 1377.859375 884.730469 1379.335938 885.992188 1380.875 C 887.253906 1382.410156 888.4375 1384.007812 889.546875 1385.664062 C 890.652344 1387.320312 891.675781 1389.027344 892.613281 1390.78125 C 893.550781 1392.539062 894.402344 1394.335938 895.164062 1396.175781 C 895.925781 1398.015625 896.59375 1399.886719 897.171875 1401.792969 C 897.75 1403.699219 898.234375 1405.625 898.621094 1407.578125 C 899.011719 1409.53125 899.304688 1411.5 899.5 1413.480469 C 899.691406 1415.460938 899.789062 1417.449219 899.789062 1419.4375 L 899.789062 1458.589844 C 899.789062 1459.386719 899.714844 1460.179688 899.558594 1460.960938 C 899.402344 1461.742188 899.171875 1462.503906 898.867188 1463.242188 C 898.558594 1463.980469 898.183594 1464.679688 897.742188 1465.34375 C 897.296875 1466.007812 896.792969 1466.621094 896.230469 1467.1875 C 895.664062 1467.75 895.050781 1468.253906 894.386719 1468.699219 C 893.722656 1469.140625 893.023438 1469.515625 892.285156 1469.820312 C 891.546875 1470.128906 890.789062 1470.359375 890.003906 1470.511719 C 889.222656 1470.667969 888.429688 1470.746094 887.632812 1470.746094 L 478.140625 1470.746094 C 477.339844 1470.746094 476.550781 1470.667969 475.765625 1470.511719 C 474.984375 1470.359375 474.222656 1470.128906 473.484375 1469.820312 C 472.75 1469.515625 472.046875 1469.140625 471.382812 1468.699219 C 470.71875 1468.253906 470.105469 1467.75 469.542969 1467.1875 C 468.976562 1466.621094 468.472656 1466.007812 468.03125 1465.34375 C 467.585938 1464.679688 467.210938 1463.980469 466.90625 1463.242188 C 466.601562 1462.503906 466.371094 1461.742188 466.214844 1460.960938 C 466.058594 1460.179688 465.980469 1459.386719 465.980469 1458.589844 L 465.980469 1419.4375 C 465.980469 1417.449219 466.078125 1415.460938 466.273438 1413.480469 C 466.46875 1411.5 466.761719 1409.53125 467.148438 1407.578125 C 467.539062 1405.625 468.019531 1403.699219 468.597656 1401.792969 C 469.175781 1399.886719 469.847656 1398.015625 470.609375 1396.175781 C 471.371094 1394.335938 472.21875 1392.539062 473.160156 1390.78125 C 474.097656 1389.027344 475.121094 1387.320312 476.226562 1385.664062 C 477.332031 1384.007812 478.515625 1382.414062 479.78125 1380.875 C 481.042969 1379.335938 482.378906 1377.859375 483.785156 1376.453125 C 485.195312 1375.042969 486.667969 1373.710938 488.207031 1372.445312 C 489.746094 1371.183594 491.34375 1370 493 1368.890625 C 494.652344 1367.785156 496.359375 1366.765625 498.117188 1365.824219 C 499.871094 1364.886719 501.667969 1364.035156 503.507812 1363.273438 C 505.347656 1362.511719 507.21875 1361.84375 509.125 1361.265625 C 511.03125 1360.6875 512.960938 1360.203125 514.914062 1359.816406 C 516.867188 1359.425781 518.832031 1359.136719 520.8125 1358.941406 C 522.796875 1358.746094 524.78125 1358.648438 526.773438 1358.648438 L 566.773438 1358.648438 C 568.367188 1358.648438 569.957031 1358.570312 571.539062 1358.414062 C 573.125 1358.257812 574.699219 1358.023438 576.261719 1357.710938 C 577.824219 1357.402344 579.367188 1357.015625 580.890625 1356.554688 C 582.414062 1356.089844 583.914062 1355.554688 585.382812 1354.945312 C 586.855469 1354.335938 588.292969 1353.65625 589.699219 1352.90625 C 591.105469 1352.152344 592.46875 1351.335938 593.792969 1350.449219 C 595.117188 1349.566406 596.394531 1348.617188 597.625 1347.609375 C 598.859375 1346.597656 600.035156 1345.527344 601.164062 1344.402344 C 602.289062 1343.277344 603.355469 1342.097656 604.367188 1340.867188 C 605.378906 1339.636719 606.324219 1338.359375 607.210938 1337.03125 C 608.09375 1335.707031 608.914062 1334.34375 609.664062 1332.9375 C 610.414062 1331.535156 611.09375 1330.097656 611.703125 1328.625 C 612.3125 1327.152344 612.851562 1325.65625 613.3125 1324.132812 C 613.773438 1322.605469 614.160156 1321.0625 614.472656 1319.5 C 614.78125 1317.9375 615.015625 1316.367188 615.171875 1314.78125 C 615.328125 1313.195312 615.40625 1311.605469 615.40625 1310.015625 L 615.40625 1241.925781 C 637.300781 1243.773438 659.226562 1244.300781 681.183594 1243.507812 C 704.34375 1242.824219 727.40625 1240.917969 750.363281 1237.792969 L 750.363281 1310.015625 C 750.367188 1311.605469 750.445312 1313.195312 750.605469 1314.777344 C 750.761719 1316.363281 750.996094 1317.9375 751.308594 1319.496094 C 751.621094 1321.058594 752.007812 1322.601562 752.472656 1324.125 C 752.9375 1325.648438 753.472656 1327.144531 754.082031 1328.617188 C 754.691406 1330.085938 755.375 1331.523438 756.125 1332.925781 C 756.875 1334.332031 757.695312 1335.695312 758.578125 1337.019531 C 759.464844 1338.34375 760.414062 1339.621094 761.421875 1340.851562 C 762.433594 1342.082031 763.5 1343.257812 764.625 1344.386719 C 765.753906 1345.511719 766.929688 1346.578125 768.160156 1347.589844 C 769.390625 1348.601562 770.667969 1349.546875 771.992188 1350.433594 C 773.316406 1351.316406 774.679688 1352.136719 776.085938 1352.886719 C 777.488281 1353.636719 778.925781 1354.320312 780.394531 1354.929688 C 781.867188 1355.539062 783.363281 1356.074219 784.886719 1356.539062 C 786.410156 1357.003906 787.953125 1357.390625 789.515625 1357.703125 C 791.074219 1358.015625 792.648438 1358.25 794.234375 1358.40625 C 795.816406 1358.566406 797.40625 1358.644531 799 1358.648438 Z M 693.390625 1218.703125 C 659.195312 1220.609375 625.09375 1219.511719 591.089844 1215.410156 C 557.347656 1211.386719 524.167969 1204.621094 491.542969 1195.113281 C 458.917969 1185.605469 427.296875 1173.484375 396.679688 1158.75 L 419.535156 1119.238281 C 438.488281 1128.25 457.878906 1136.179688 477.714844 1143.03125 C 497.550781 1149.882812 517.707031 1155.609375 538.179688 1160.210938 C 558.65625 1164.8125 579.320312 1168.261719 600.179688 1170.558594 C 621.039062 1172.855469 641.960938 1173.984375 662.945312 1173.949219 C 670.480469 1173.953125 678.007812 1173.804688 685.535156 1173.507812 C 693.0625 1173.210938 700.582031 1172.765625 708.09375 1172.171875 C 715.601562 1171.578125 723.097656 1170.835938 730.578125 1169.941406 C 738.058594 1169.050781 745.515625 1168.011719 752.957031 1166.824219 C 760.394531 1165.636719 767.808594 1164.304688 775.195312 1162.824219 C 782.582031 1161.34375 789.933594 1159.714844 797.257812 1157.945312 C 804.578125 1156.171875 811.863281 1154.253906 819.109375 1152.195312 C 826.355469 1150.132812 833.554688 1147.929688 840.714844 1145.585938 C 847.871094 1143.238281 854.980469 1140.75 862.042969 1138.125 C 869.101562 1135.496094 876.105469 1132.726562 883.058594 1129.824219 C 890.007812 1126.917969 896.898438 1123.875 903.726562 1120.695312 C 910.558594 1117.519531 917.320312 1114.207031 924.019531 1110.757812 C 930.71875 1107.3125 937.347656 1103.734375 943.902344 1100.023438 C 950.460938 1096.316406 956.941406 1092.476562 963.34375 1088.511719 C 969.75 1084.546875 976.074219 1080.453125 982.316406 1076.238281 C 988.558594 1072.023438 994.714844 1067.683594 1000.785156 1063.222656 C 1006.855469 1058.761719 1012.835938 1054.183594 1018.726562 1049.484375 C 1024.613281 1044.789062 1030.40625 1039.976562 1036.105469 1035.046875 C 1041.804688 1030.121094 1047.402344 1025.082031 1052.902344 1019.933594 C 1058.402344 1014.785156 1063.796875 1009.527344 1069.085938 1004.164062 C 1074.375 998.804688 1079.558594 993.335938 1084.632812 987.769531 C 1089.707031 982.199219 1094.667969 976.535156 1099.515625 970.769531 C 1104.367188 965.003906 1109.101562 959.144531 1113.71875 953.195312 C 1118.335938 947.242188 1122.832031 941.199219 1127.210938 935.070312 C 1131.585938 928.9375 1135.84375 922.722656 1139.972656 916.425781 C 1144.105469 910.125 1148.109375 903.746094 1151.988281 897.289062 C 1155.867188 890.832031 1159.617188 884.300781 1163.238281 877.691406 C 1166.855469 871.085938 1170.34375 864.410156 1173.699219 857.667969 C 1177.054688 850.921875 1180.277344 844.113281 1183.359375 837.242188 C 1186.445312 830.367188 1189.394531 823.4375 1192.207031 816.449219 C 1195.015625 809.460938 1197.6875 802.417969 1200.21875 795.324219 C 1202.75 788.226562 1205.140625 781.085938 1207.390625 773.894531 C 1209.640625 766.707031 1211.746094 759.472656 1213.707031 752.199219 C 1215.667969 744.929688 1217.488281 737.617188 1219.160156 730.273438 C 1220.832031 722.929688 1222.359375 715.554688 1223.738281 708.148438 C 1225.121094 700.742188 1226.351562 693.3125 1227.4375 685.855469 C 1228.523438 678.402344 1229.460938 670.929688 1230.25 663.4375 C 1231.042969 655.945312 1231.683594 648.441406 1232.175781 640.925781 C 1232.667969 633.40625 1233.011719 625.882812 1233.203125 618.351562 C 1233.398438 610.824219 1233.445312 603.289062 1233.339844 595.757812 C 1233.234375 588.226562 1232.980469 580.699219 1232.578125 573.175781 C 1232.175781 565.652344 1231.625 558.140625 1230.925781 550.640625 C 1230.226562 543.140625 1229.378906 535.65625 1228.378906 528.191406 C 1227.382812 520.722656 1226.238281 513.277344 1224.949219 505.855469 C 1223.65625 498.4375 1222.21875 491.042969 1220.632812 483.679688 C 1219.046875 476.3125 1217.316406 468.984375 1215.441406 461.6875 C 1213.566406 454.390625 1211.546875 447.132812 1209.386719 439.917969 C 1207.222656 432.703125 1204.917969 425.53125 1202.472656 418.40625 C 1200.023438 411.28125 1197.4375 404.210938 1194.710938 397.1875 C 1191.984375 390.164062 1189.117188 383.199219 1186.113281 376.289062 C 1183.113281 369.382812 1179.972656 362.535156 1176.699219 355.75 C 1173.421875 348.96875 1170.015625 342.25 1166.476562 335.601562 C 1162.933594 328.953125 1159.261719 322.375 1155.460938 315.871094 C 1151.660156 309.367188 1147.730469 302.941406 1143.675781 296.59375 C 1139.621094 290.246094 1135.441406 283.980469 1131.136719 277.796875 C 1126.832031 271.617188 1122.40625 265.519531 1117.859375 259.511719 C 1113.316406 253.507812 1108.652344 247.59375 1103.871094 241.769531 C 1099.09375 235.945312 1094.199219 230.222656 1089.191406 224.59375 C 1084.183594 218.964844 1079.066406 213.4375 1073.84375 208.011719 C 1068.617188 202.585938 1063.285156 197.265625 1057.847656 192.050781 C 1052.410156 186.839844 1046.871094 181.734375 1041.234375 176.738281 C 1035.59375 171.742188 1029.859375 166.863281 1024.027344 162.09375 C 1018.191406 157.328125 1012.269531 152.675781 1006.25 148.144531 C 1000.234375 143.609375 994.128906 139.199219 987.9375 134.910156 L 1010.675781 95.273438 L 1010.796875 95.273438 C 1017.046875 99.546875 1023.210938 103.933594 1029.300781 108.433594 C 1035.386719 112.9375 1041.386719 117.550781 1047.304688 122.273438 C 1053.222656 126.996094 1059.046875 131.824219 1064.785156 136.761719 C 1070.523438 141.699219 1076.171875 146.742188 1081.722656 151.886719 C 1087.277344 157.03125 1092.730469 162.28125 1098.089844 167.625 C 1103.449219 172.972656 1108.710938 178.417969 1113.867188 183.957031 C 1119.027344 189.5 1124.082031 195.132812 1129.03125 200.859375 C 1133.980469 206.585938 1138.824219 212.402344 1143.5625 218.308594 C 1148.296875 224.214844 1152.925781 230.207031 1157.441406 236.28125 C 1161.957031 242.359375 1166.355469 248.515625 1170.644531 254.753906 C 1174.933594 260.992188 1179.105469 267.308594 1183.160156 273.699219 C 1187.21875 280.09375 1191.152344 286.558594 1194.96875 293.09375 C 1198.789062 299.632812 1202.484375 306.238281 1206.054688 312.914062 C 1209.628906 319.585938 1213.078125 326.324219 1216.40625 333.125 C 1219.730469 339.925781 1222.929688 346.785156 1226 353.703125 C 1229.074219 360.625 1232.015625 367.597656 1234.832031 374.625 C 1237.648438 381.652344 1240.332031 388.726562 1242.886719 395.855469 C 1245.441406 402.980469 1247.863281 410.152344 1250.152344 417.367188 C 1252.441406 424.582031 1254.597656 431.839844 1256.621094 439.132812 C 1258.644531 446.429688 1260.53125 453.757812 1262.28125 461.125 C 1264.035156 468.488281 1265.652344 475.882812 1267.128906 483.308594 C 1268.609375 490.734375 1269.953125 498.183594 1271.15625 505.65625 C 1272.363281 513.128906 1273.429688 520.621094 1274.355469 528.136719 C 1275.285156 535.648438 1276.074219 543.175781 1276.726562 550.71875 C 1277.378906 558.261719 1277.890625 565.8125 1278.261719 573.375 C 1278.632812 580.9375 1278.867188 588.5 1278.960938 596.070312 C 1279.054688 603.640625 1279.007812 611.210938 1278.824219 618.777344 C 1278.636719 626.347656 1278.3125 633.90625 1277.847656 641.464844 C 1277.382812 649.019531 1276.78125 656.566406 1276.039062 664.097656 C 1275.296875 671.632812 1274.414062 679.152344 1273.394531 686.652344 C 1272.375 694.152344 1271.21875 701.632812 1269.921875 709.09375 C 1268.628906 716.550781 1267.195312 723.984375 1265.625 731.390625 C 1264.054688 738.792969 1262.351562 746.167969 1260.507812 753.511719 C 1258.667969 760.855469 1256.691406 768.160156 1254.582031 775.433594 C 1252.472656 782.703125 1250.226562 789.929688 1247.851562 797.117188 C 1245.472656 804.304688 1242.964844 811.445312 1240.324219 818.542969 C 1237.683594 825.636719 1234.910156 832.679688 1232.011719 839.671875 C 1229.113281 846.667969 1226.082031 853.601562 1222.925781 860.484375 C 1219.773438 867.363281 1216.488281 874.1875 1213.082031 880.945312 C 1209.675781 887.707031 1206.144531 894.402344 1202.488281 901.03125 C 1198.835938 907.660156 1195.058594 914.222656 1191.164062 920.710938 C 1187.265625 927.203125 1183.253906 933.621094 1179.121094 939.960938 C 1174.988281 946.304688 1170.738281 952.570312 1166.375 958.753906 C 1162.011719 964.941406 1157.535156 971.046875 1152.945312 977.066406 C 1148.359375 983.085938 1143.660156 989.023438 1138.851562 994.871094 C 1134.042969 1000.71875 1129.128906 1006.476562 1124.109375 1012.140625 C 1119.089844 1017.808594 1113.96875 1023.378906 1108.742188 1028.859375 C 1103.519531 1034.335938 1098.191406 1039.714844 1092.769531 1044.996094 C 1087.347656 1050.277344 1081.828125 1055.457031 1076.210938 1060.535156 C 1070.597656 1065.613281 1064.890625 1070.585938 1059.09375 1075.453125 C 1053.296875 1080.324219 1047.410156 1085.082031 1041.4375 1089.730469 C 1035.460938 1094.382812 1029.40625 1098.921875 1023.265625 1103.347656 C 1017.125 1107.777344 1010.902344 1112.089844 1004.605469 1116.285156 C 998.304688 1120.484375 991.929688 1124.566406 985.480469 1128.527344 C 979.027344 1132.492188 972.507812 1136.332031 965.914062 1140.054688 C 959.324219 1143.777344 952.664062 1147.378906 945.941406 1150.855469 C 939.214844 1154.332031 932.429688 1157.683594 925.582031 1160.910156 C 918.734375 1164.136719 911.828125 1167.238281 904.863281 1170.210938 C 897.902344 1173.179688 890.886719 1176.023438 883.820312 1178.738281 C 876.753906 1181.453125 869.636719 1184.035156 862.476562 1186.484375 C 855.3125 1188.9375 848.109375 1191.253906 840.859375 1193.441406 C 833.613281 1195.625 826.324219 1197.675781 819.003906 1199.59375 C 811.679688 1201.511719 804.320312 1203.292969 796.933594 1204.9375 C 789.542969 1206.582031 782.125 1208.09375 774.679688 1209.464844 C 774.679688 1209.464844 720.953125 1218.046875 693.390625 1218.703125 Z M 693.390625 1218.703125 " fill-opacity="1" fill-rule="nonzero"/></svg>