<svg xmlns="http://www.w3.org/2000/svg" xmlns:xlink="http://www.w3.org/1999/xlink" width="2000" zoomAndPan="magnify" viewBox="0 0 1500 1499.999933" height="2000" preserveAspectRatio="xMidYMid meet" version="1.0"><defs><clipPath id="22f71c988c"><path d="M 274 267.835938 L 699 267.835938 L 699 693 L 274 693 Z M 274 267.835938 " clip-rule="nonzero"/></clipPath><clipPath id="2558c2ea6e"><path d="M 613 834 L 1419 834 L 1419 1232.335938 L 613 1232.335938 Z M 613 834 " clip-rule="nonzero"/></clipPath></defs><g clip-path="url(#22f71c988c)"><path fill="#747474" d="M 463.558594 269.191406 C 370.753906 278.847656 293.261719 351.394531 277.242188 443.496094 C 272.769531 469.640625 273.945312 508.976562 280.070312 532.765625 C 288.550781 566.214844 308.570312 601.308594 333.539062 626.75 C 418.097656 712.957031 550.242188 714.609375 635.039062 630.519531 C 708.054688 558.207031 718.890625 446.320312 660.710938 360.582031 C 640.21875 329.726562 612.894531 305.464844 581.332031 289.683594 C 564.136719 280.96875 533.753906 271.78125 516.320312 270.132812 C 485.703125 267.304688 481.933594 267.304688 463.558594 269.191406 Z M 463.558594 269.191406 " fill-opacity="1" fill-rule="nonzero"/></g><path fill="#747474" d="M 989.535156 349.039062 C 926.40625 359.167969 874.585938 391.675781 839.960938 443.257812 C 814.050781 481.652344 800.863281 534.652344 806.042969 580.109375 C 812.167969 635.230469 831.246094 673.621094 871.523438 712.015625 C 952.789062 789.746094 1078.570312 790.453125 1160.539062 713.902344 C 1236.621094 642.765625 1250.988281 530.410156 1195.164062 445.144531 C 1165.015625 399.210938 1120.496094 366.707031 1068.914062 353.75 C 1047.242188 348.097656 1009.082031 345.980469 989.535156 349.039062 Z M 989.535156 349.039062 " fill-opacity="1" fill-rule="nonzero"/><path fill="#747474" d="M 423.515625 760.304688 C 302.210938 776.554688 198.570312 839.917969 136.621094 935.550781 C 106 983.128906 88.808594 1031.652344 82.917969 1087.003906 C 79.621094 1117.390625 81.742188 1126.8125 93.988281 1140.472656 C 109.769531 1157.90625 98.226562 1157.199219 341.074219 1156.019531 L 557.542969 1155.078125 L 561.546875 1131.996094 C 569.085938 1086.769531 580.390625 1053.792969 602.765625 1011.160156 C 633.625 951.566406 686.152344 893.621094 741.976562 856.878906 C 750.21875 851.460938 756.8125 846.511719 756.8125 845.570312 C 756.8125 841.332031 714.652344 813.773438 687.328125 800.109375 C 641.867188 777.5 599.46875 765.015625 546 758.890625 C 517.027344 755.59375 452.253906 756.300781 423.515625 760.304688 Z M 423.515625 760.304688 " fill-opacity="1" fill-rule="nonzero"/><g clip-path="url(#2558c2ea6e)"><path fill="#747474" d="M 967.863281 836.855469 C 800.390625 851.695312 663.773438 960.753906 624.910156 1111.03125 C 618.785156 1134.585938 612.1875 1184.050781 614.308594 1190.882812 C 614.78125 1192.292969 615.722656 1196.296875 616.429688 1200.066406 C 617.371094 1203.601562 621.847656 1210.667969 626.320312 1215.847656 C 642.808594 1233.984375 615.488281 1233.042969 1023.6875 1231.160156 C 1373.945312 1229.746094 1386.898438 1229.511719 1395.378906 1225.269531 C 1405.742188 1219.851562 1412.574219 1211.609375 1416.578125 1199.832031 C 1420.582031 1188.054688 1417.753906 1149.894531 1410.6875 1119.273438 C 1395.378906 1052.617188 1364.757812 997.261719 1316.234375 948.503906 C 1230.730469 863 1110.367188 824.371094 967.863281 836.855469 Z M 967.863281 836.855469 " fill-opacity="1" fill-rule="nonzero"/></g></svg>