<svg xmlns="http://www.w3.org/2000/svg" xmlns:xlink="http://www.w3.org/1999/xlink" width="2000" zoomAndPan="magnify" viewBox="0 0 1500 1499.999933" height="2000" preserveAspectRatio="xMidYMid meet" version="1.0"><defs><clipPath id="4874cb480b"><path d="M 52.605469 52.605469 L 1447.605469 52.605469 L 1447.605469 1447.605469 L 52.605469 1447.605469 Z M 52.605469 52.605469 " clip-rule="nonzero"/></clipPath></defs><g clip-path="url(#4874cb480b)"><path fill="#09497a" d="M 1332.546875 214.785156 L 1202.117188 214.785156 L 1202.117188 143.785156 C 1202.117188 142.292969 1202.078125 140.804688 1202.003906 139.316406 C 1201.929688 137.824219 1201.820312 136.339844 1201.671875 134.855469 C 1201.527344 133.371094 1201.34375 131.890625 1201.125 130.417969 C 1200.902344 128.941406 1200.648438 127.472656 1200.355469 126.011719 C 1200.066406 124.550781 1199.738281 123.09375 1199.375 121.648438 C 1199.011719 120.203125 1198.613281 118.765625 1198.179688 117.339844 C 1197.746094 115.910156 1197.277344 114.496094 1196.777344 113.09375 C 1196.273438 111.6875 1195.734375 110.296875 1195.164062 108.921875 C 1194.59375 107.542969 1193.988281 106.179688 1193.351562 104.832031 C 1192.714844 103.484375 1192.042969 102.152344 1191.339844 100.839844 C 1190.636719 99.523438 1189.902344 98.226562 1189.136719 96.945312 C 1188.371094 95.667969 1187.574219 94.410156 1186.746094 93.167969 C 1185.917969 91.929688 1185.058594 90.710938 1184.171875 89.511719 C 1183.28125 88.3125 1182.363281 87.140625 1181.417969 85.984375 C 1180.472656 84.832031 1179.5 83.703125 1178.5 82.597656 C 1177.5 81.492188 1176.472656 80.414062 1175.417969 79.359375 C 1174.363281 78.304688 1173.285156 77.277344 1172.179688 76.273438 C 1171.074219 75.273438 1169.945312 74.296875 1168.792969 73.351562 C 1167.644531 72.40625 1166.46875 71.488281 1165.269531 70.597656 C 1164.074219 69.707031 1162.855469 68.847656 1161.617188 68.019531 C 1160.378906 67.191406 1159.117188 66.390625 1157.839844 65.625 C 1156.5625 64.855469 1155.265625 64.121094 1153.949219 63.417969 C 1152.636719 62.714844 1151.304688 62.042969 1149.957031 61.402344 C 1148.609375 60.765625 1147.25 60.160156 1145.871094 59.585938 C 1144.496094 59.015625 1143.105469 58.476562 1141.699219 57.972656 C 1140.296875 57.46875 1138.882812 57 1137.457031 56.566406 C 1136.03125 56.128906 1134.59375 55.730469 1133.148438 55.367188 C 1131.699219 55.003906 1130.246094 54.675781 1128.785156 54.382812 C 1127.324219 54.089844 1125.855469 53.832031 1124.378906 53.609375 C 1122.90625 53.390625 1121.425781 53.207031 1119.941406 53.058594 C 1118.457031 52.910156 1116.972656 52.796875 1115.484375 52.722656 C 1113.992188 52.644531 1112.503906 52.605469 1111.011719 52.605469 L 1063.382812 52.605469 C 1061.894531 52.613281 1060.40625 52.65625 1058.921875 52.734375 C 1057.433594 52.816406 1055.953125 52.933594 1054.472656 53.085938 C 1052.992188 53.238281 1051.515625 53.425781 1050.046875 53.652344 C 1048.574219 53.875 1047.109375 54.136719 1045.652344 54.433594 C 1044.191406 54.726562 1042.742188 55.058594 1041.300781 55.425781 C 1039.859375 55.796875 1038.425781 56.199219 1037.003906 56.632812 C 1035.582031 57.070312 1034.171875 57.542969 1032.773438 58.050781 C 1031.371094 58.558594 1029.988281 59.097656 1028.613281 59.671875 C 1027.242188 60.246094 1025.882812 60.851562 1024.539062 61.492188 C 1023.195312 62.132812 1021.871094 62.808594 1020.558594 63.511719 C 1019.25 64.21875 1017.957031 64.957031 1016.683594 65.722656 C 1015.410156 66.492188 1014.15625 67.292969 1012.921875 68.121094 C 1011.683594 68.953125 1010.472656 69.8125 1009.277344 70.703125 C 1008.085938 71.589844 1006.914062 72.507812 1005.765625 73.457031 C 1004.617188 74.402344 1003.496094 75.378906 1002.394531 76.378906 C 1001.292969 77.382812 1000.21875 78.410156 999.167969 79.464844 C 998.117188 80.519531 997.09375 81.597656 996.097656 82.703125 C 995.101562 83.804688 994.128906 84.933594 993.1875 86.085938 C 992.246094 87.238281 991.332031 88.410156 990.449219 89.609375 C 989.5625 90.804688 988.710938 92.023438 987.882812 93.261719 C 987.058594 94.5 986.265625 95.757812 985.5 97.035156 C 984.738281 98.3125 984.003906 99.605469 983.304688 100.917969 C 982.605469 102.234375 981.9375 103.5625 981.300781 104.90625 C 980.667969 106.253906 980.066406 107.613281 979.496094 108.988281 C 978.929688 110.363281 978.394531 111.753906 977.894531 113.152344 C 977.390625 114.554688 976.925781 115.96875 976.496094 117.390625 C 976.0625 118.816406 975.667969 120.25 975.304688 121.691406 C 974.945312 123.136719 974.617188 124.589844 974.328125 126.046875 C 974.035156 127.507812 973.78125 128.972656 973.5625 130.445312 C 973.34375 131.917969 973.160156 133.394531 973.015625 134.875 C 972.867188 136.355469 972.757812 137.835938 972.683594 139.324219 C 972.609375 140.808594 972.574219 142.296875 972.570312 143.785156 L 972.570312 214.785156 L 527.425781 214.785156 L 527.425781 143.785156 C 527.425781 142.296875 527.386719 140.808594 527.3125 139.324219 C 527.238281 137.835938 527.128906 136.355469 526.984375 134.875 C 526.835938 133.394531 526.652344 131.917969 526.433594 130.445312 C 526.214844 128.972656 525.960938 127.507812 525.671875 126.046875 C 525.382812 124.589844 525.054688 123.136719 524.695312 121.691406 C 524.332031 120.25 523.9375 118.816406 523.503906 117.390625 C 523.074219 115.96875 522.605469 114.554688 522.105469 113.152344 C 521.605469 111.753906 521.070312 110.363281 520.5 108.988281 C 519.933594 107.613281 519.332031 106.253906 518.695312 104.90625 C 518.0625 103.5625 517.394531 102.234375 516.691406 100.917969 C 515.992188 99.605469 515.261719 98.3125 514.496094 97.035156 C 513.734375 95.757812 512.941406 94.5 512.113281 93.261719 C 511.289062 92.023438 510.433594 90.804688 509.550781 89.609375 C 508.664062 88.410156 507.753906 87.238281 506.808594 86.085938 C 505.867188 84.933594 504.898438 83.804688 503.902344 82.703125 C 502.902344 81.597656 501.878906 80.519531 500.832031 79.464844 C 499.78125 78.410156 498.703125 77.382812 497.605469 76.378906 C 496.503906 75.378906 495.378906 74.402344 494.230469 73.457031 C 493.082031 72.507812 491.914062 71.589844 490.71875 70.703125 C 489.527344 69.8125 488.3125 68.953125 487.078125 68.121094 C 485.84375 67.292969 484.589844 66.492188 483.316406 65.722656 C 482.039062 64.957031 480.75 64.21875 479.4375 63.511719 C 478.128906 62.808594 476.800781 62.132812 475.457031 61.492188 C 474.117188 60.851562 472.757812 60.246094 471.386719 59.671875 C 470.011719 59.097656 468.625 58.558594 467.226562 58.050781 C 465.828125 57.542969 464.417969 57.070312 462.996094 56.632812 C 461.570312 56.199219 460.140625 55.796875 458.699219 55.425781 C 457.257812 55.058594 455.804688 54.726562 454.347656 54.433594 C 452.890625 54.136719 451.425781 53.875 449.953125 53.652344 C 448.484375 53.425781 447.007812 53.238281 445.527344 53.085938 C 444.046875 52.933594 442.5625 52.816406 441.078125 52.734375 C 439.59375 52.65625 438.105469 52.613281 436.617188 52.605469 L 388.988281 52.605469 C 387.496094 52.605469 386.003906 52.644531 384.515625 52.722656 C 383.027344 52.796875 381.539062 52.910156 380.054688 53.058594 C 378.574219 53.207031 377.09375 53.390625 375.617188 53.609375 C 374.144531 53.832031 372.675781 54.089844 371.214844 54.382812 C 369.75 54.675781 368.296875 55.003906 366.851562 55.367188 C 365.40625 55.730469 363.96875 56.128906 362.542969 56.566406 C 361.117188 57 359.703125 57.46875 358.296875 57.972656 C 356.894531 58.476562 355.503906 59.015625 354.128906 59.585938 C 352.75 60.160156 351.386719 60.765625 350.039062 61.402344 C 348.695312 62.042969 347.363281 62.714844 346.046875 63.417969 C 344.734375 64.121094 343.4375 64.855469 342.160156 65.625 C 340.878906 66.390625 339.621094 67.191406 338.382812 68.019531 C 337.144531 68.847656 335.925781 69.707031 334.726562 70.597656 C 333.53125 71.488281 332.355469 72.40625 331.203125 73.351562 C 330.050781 74.296875 328.921875 75.273438 327.820312 76.273438 C 326.714844 77.277344 325.636719 78.304688 324.582031 79.359375 C 323.527344 80.414062 322.5 81.492188 321.5 82.597656 C 320.5 83.703125 319.523438 84.832031 318.578125 85.984375 C 317.632812 87.140625 316.714844 88.3125 315.828125 89.511719 C 314.941406 90.710938 314.082031 91.929688 313.253906 93.167969 C 312.425781 94.410156 311.628906 95.667969 310.863281 96.945312 C 310.09375 98.226562 309.359375 99.523438 308.65625 100.839844 C 307.953125 102.152344 307.285156 103.484375 306.644531 104.832031 C 306.007812 106.179688 305.40625 107.542969 304.832031 108.921875 C 304.261719 110.296875 303.726562 111.6875 303.222656 113.09375 C 302.71875 114.496094 302.253906 115.910156 301.820312 117.339844 C 301.386719 118.765625 300.988281 120.203125 300.625 121.648438 C 300.261719 123.09375 299.933594 124.550781 299.640625 126.011719 C 299.351562 127.472656 299.09375 128.941406 298.875 130.417969 C 298.65625 131.890625 298.472656 133.371094 298.324219 134.855469 C 298.179688 136.339844 298.066406 137.824219 297.992188 139.316406 C 297.917969 140.804688 297.882812 142.292969 297.878906 143.785156 L 297.878906 214.785156 L 167.453125 214.785156 C 165.574219 214.789062 163.695312 214.835938 161.816406 214.929688 C 159.941406 215.019531 158.066406 215.160156 156.199219 215.347656 C 154.328125 215.53125 152.464844 215.761719 150.605469 216.039062 C 148.746094 216.316406 146.894531 216.636719 145.050781 217.003906 C 143.207031 217.371094 141.375 217.785156 139.554688 218.242188 C 137.730469 218.699219 135.921875 219.203125 134.121094 219.75 C 132.324219 220.292969 130.539062 220.882812 128.769531 221.519531 C 127.003906 222.152344 125.25 222.828125 123.511719 223.546875 C 121.777344 224.269531 120.058594 225.03125 118.363281 225.832031 C 116.664062 226.636719 114.984375 227.484375 113.328125 228.367188 C 111.671875 229.253906 110.035156 230.179688 108.425781 231.148438 C 106.8125 232.113281 105.226562 233.121094 103.664062 234.164062 C 102.101562 235.207031 100.566406 236.289062 99.054688 237.410156 C 97.546875 238.53125 96.066406 239.6875 94.613281 240.878906 C 93.160156 242.070312 91.738281 243.296875 90.347656 244.558594 C 88.953125 245.820312 87.59375 247.117188 86.265625 248.445312 C 84.9375 249.773438 83.640625 251.136719 82.378906 252.527344 C 81.117188 253.921875 79.890625 255.34375 78.695312 256.796875 C 77.503906 258.246094 76.347656 259.730469 75.230469 261.238281 C 74.109375 262.746094 73.027344 264.28125 71.984375 265.84375 C 70.9375 267.40625 69.933594 268.996094 68.96875 270.605469 C 68 272.21875 67.074219 273.851562 66.1875 275.507812 C 65.300781 277.167969 64.457031 278.84375 63.652344 280.542969 C 62.847656 282.242188 62.085938 283.957031 61.367188 285.695312 C 60.648438 287.429688 59.96875 289.183594 59.335938 290.953125 C 58.703125 292.722656 58.113281 294.503906 57.566406 296.304688 C 57.019531 298.101562 56.519531 299.910156 56.0625 301.734375 C 55.605469 303.558594 55.191406 305.390625 54.824219 307.234375 C 54.457031 309.074219 54.132812 310.925781 53.859375 312.785156 C 53.582031 314.644531 53.351562 316.507812 53.164062 318.378906 C 52.980469 320.25 52.839844 322.121094 52.746094 324 C 52.652344 325.875 52.605469 327.753906 52.605469 329.632812 L 52.605469 1332.546875 C 52.605469 1334.425781 52.652344 1336.304688 52.746094 1338.179688 C 52.839844 1340.058594 52.980469 1341.929688 53.164062 1343.800781 C 53.351562 1345.671875 53.582031 1347.535156 53.859375 1349.394531 C 54.132812 1351.253906 54.457031 1353.105469 54.824219 1354.945312 C 55.191406 1356.789062 55.605469 1358.621094 56.0625 1360.445312 C 56.519531 1362.269531 57.019531 1364.078125 57.566406 1365.875 C 58.113281 1367.675781 58.703125 1369.457031 59.335938 1371.226562 C 59.96875 1372.996094 60.648438 1374.75 61.367188 1376.484375 C 62.085938 1378.222656 62.847656 1379.9375 63.652344 1381.636719 C 64.457031 1383.335938 65.300781 1385.011719 66.1875 1386.671875 C 67.074219 1388.328125 68 1389.960938 68.96875 1391.574219 C 69.933594 1393.183594 70.9375 1394.773438 71.984375 1396.335938 C 73.027344 1397.898438 74.109375 1399.433594 75.230469 1400.941406 C 76.347656 1402.453125 77.503906 1403.933594 78.695312 1405.386719 C 79.890625 1406.835938 81.117188 1408.261719 82.378906 1409.652344 C 83.640625 1411.042969 84.9375 1412.40625 86.265625 1413.734375 C 87.59375 1415.0625 88.953125 1416.359375 90.347656 1417.621094 C 91.738281 1418.882812 93.160156 1420.109375 94.613281 1421.300781 C 96.066406 1422.496094 97.546875 1423.648438 99.054688 1424.769531 C 100.566406 1425.890625 102.101562 1426.972656 103.664062 1428.015625 C 105.226562 1429.058594 106.8125 1430.066406 108.425781 1431.03125 C 110.035156 1432 111.671875 1432.925781 113.328125 1433.8125 C 114.984375 1434.695312 116.664062 1435.542969 118.363281 1436.347656 C 120.058594 1437.148438 121.777344 1437.910156 123.511719 1438.632812 C 125.25 1439.351562 127.003906 1440.027344 128.769531 1440.660156 C 130.539062 1441.296875 132.324219 1441.886719 134.121094 1442.433594 C 135.921875 1442.976562 137.730469 1443.480469 139.554688 1443.9375 C 141.375 1444.394531 143.207031 1444.808594 145.050781 1445.175781 C 146.894531 1445.542969 148.746094 1445.863281 150.605469 1446.140625 C 152.464844 1446.417969 154.328125 1446.648438 156.199219 1446.835938 C 158.066406 1447.019531 159.941406 1447.160156 161.816406 1447.253906 C 163.695312 1447.34375 165.574219 1447.390625 167.453125 1447.394531 L 1332.25 1447.394531 C 1334.132812 1447.398438 1336.011719 1447.355469 1337.894531 1447.265625 C 1339.773438 1447.175781 1341.652344 1447.042969 1343.523438 1446.863281 C 1345.398438 1446.679688 1347.265625 1446.453125 1349.128906 1446.179688 C 1350.992188 1445.90625 1352.84375 1445.589844 1354.691406 1445.226562 C 1356.539062 1444.863281 1358.375 1444.453125 1360.203125 1444 C 1362.027344 1443.542969 1363.84375 1443.046875 1365.644531 1442.5 C 1367.449219 1441.957031 1369.234375 1441.371094 1371.007812 1440.738281 C 1372.78125 1440.109375 1374.539062 1439.433594 1376.28125 1438.71875 C 1378.019531 1438 1379.742188 1437.238281 1381.445312 1436.4375 C 1383.148438 1435.636719 1384.828125 1434.792969 1386.492188 1433.90625 C 1388.152344 1433.023438 1389.789062 1432.097656 1391.40625 1431.132812 C 1393.023438 1430.167969 1394.613281 1429.164062 1396.179688 1428.117188 C 1397.746094 1427.074219 1399.285156 1425.992188 1400.800781 1424.875 C 1402.3125 1423.753906 1403.800781 1422.601562 1405.257812 1421.40625 C 1406.710938 1420.214844 1408.140625 1418.988281 1409.535156 1417.726562 C 1410.933594 1416.464844 1412.296875 1415.167969 1413.628906 1413.839844 C 1414.960938 1412.511719 1416.261719 1411.148438 1417.527344 1409.753906 C 1418.792969 1408.363281 1420.023438 1406.9375 1421.21875 1405.484375 C 1422.414062 1404.03125 1423.574219 1402.550781 1424.699219 1401.039062 C 1425.820312 1399.527344 1426.90625 1397.992188 1427.953125 1396.425781 C 1429 1394.863281 1430.011719 1393.273438 1430.980469 1391.660156 C 1431.949219 1390.046875 1432.878906 1388.410156 1433.765625 1386.753906 C 1434.65625 1385.09375 1435.503906 1383.414062 1436.3125 1381.710938 C 1437.117188 1380.011719 1437.882812 1378.292969 1438.601562 1376.554688 C 1439.324219 1374.816406 1440.003906 1373.058594 1440.640625 1371.289062 C 1441.277344 1369.515625 1441.867188 1367.730469 1442.414062 1365.929688 C 1442.964844 1364.128906 1443.46875 1362.316406 1443.925781 1360.492188 C 1444.386719 1358.664062 1444.800781 1356.828125 1445.167969 1354.984375 C 1445.535156 1353.136719 1445.859375 1351.285156 1446.136719 1349.421875 C 1446.414062 1347.558594 1446.648438 1345.691406 1446.832031 1343.820312 C 1447.019531 1341.945312 1447.15625 1340.070312 1447.25 1338.191406 C 1447.34375 1336.308594 1447.394531 1334.429688 1447.394531 1332.546875 L 1447.394531 329.632812 C 1447.394531 327.753906 1447.34375 325.875 1447.253906 324 C 1447.160156 322.121094 1447.019531 320.25 1446.832031 318.378906 C 1446.648438 316.507812 1446.417969 314.644531 1446.140625 312.785156 C 1445.863281 310.925781 1445.542969 309.074219 1445.175781 307.234375 C 1444.808594 305.390625 1444.394531 303.558594 1443.9375 301.734375 C 1443.480469 299.910156 1442.976562 298.101562 1442.433594 296.304688 C 1441.886719 294.503906 1441.296875 292.722656 1440.660156 290.953125 C 1440.027344 289.183594 1439.351562 287.429688 1438.632812 285.695312 C 1437.910156 283.957031 1437.148438 282.242188 1436.347656 280.542969 C 1435.542969 278.84375 1434.695312 277.167969 1433.8125 275.507812 C 1432.925781 273.851562 1432 272.21875 1431.03125 270.605469 C 1430.066406 268.996094 1429.058594 267.40625 1428.015625 265.84375 C 1426.972656 264.28125 1425.890625 262.746094 1424.769531 261.238281 C 1423.648438 259.730469 1422.492188 258.246094 1421.300781 256.796875 C 1420.109375 255.34375 1418.882812 253.921875 1417.621094 252.527344 C 1416.359375 251.136719 1415.0625 249.773438 1413.734375 248.445312 C 1412.40625 247.117188 1411.042969 245.820312 1409.652344 244.558594 C 1408.261719 243.296875 1406.835938 242.070312 1405.386719 240.878906 C 1403.933594 239.6875 1402.453125 238.53125 1400.941406 237.410156 C 1399.433594 236.289062 1397.898438 235.207031 1396.335938 234.164062 C 1394.773438 233.121094 1393.183594 232.113281 1391.574219 231.148438 C 1389.960938 230.179688 1388.328125 229.253906 1386.671875 228.367188 C 1385.011719 227.484375 1383.335938 226.636719 1381.636719 225.832031 C 1379.9375 225.03125 1378.222656 224.269531 1376.484375 223.546875 C 1374.75 222.828125 1372.996094 222.152344 1371.226562 221.519531 C 1369.457031 220.882812 1367.675781 220.292969 1365.875 219.75 C 1364.078125 219.203125 1362.269531 218.699219 1360.445312 218.242188 C 1358.621094 217.785156 1356.789062 217.371094 1354.945312 217.003906 C 1353.105469 216.636719 1351.253906 216.316406 1349.394531 216.039062 C 1347.535156 215.761719 1345.671875 215.53125 1343.800781 215.347656 C 1341.929688 215.160156 1340.058594 215.019531 1338.179688 214.929688 C 1336.304688 214.835938 1334.425781 214.789062 1332.546875 214.785156 Z M 1031.925781 143.785156 C 1031.925781 142.75 1031.976562 141.71875 1032.074219 140.6875 C 1032.175781 139.660156 1032.328125 138.636719 1032.527344 137.621094 C 1032.726562 136.605469 1032.976562 135.601562 1033.273438 134.613281 C 1033.574219 133.621094 1033.917969 132.648438 1034.3125 131.691406 C 1034.703125 130.734375 1035.144531 129.796875 1035.628906 128.882812 C 1036.113281 127.96875 1036.640625 127.082031 1037.210938 126.21875 C 1037.78125 125.355469 1038.394531 124.523438 1039.046875 123.71875 C 1039.699219 122.914062 1040.386719 122.144531 1041.117188 121.410156 C 1041.84375 120.675781 1042.605469 119.976562 1043.398438 119.3125 C 1044.195312 118.652344 1045.019531 118.03125 1045.878906 117.449219 C 1046.734375 116.867188 1047.617188 116.328125 1048.523438 115.835938 C 1049.433594 115.339844 1050.363281 114.890625 1051.316406 114.484375 C 1052.269531 114.082031 1053.238281 113.722656 1054.226562 113.414062 C 1055.210938 113.105469 1056.210938 112.84375 1057.226562 112.632812 C 1058.238281 112.417969 1059.257812 112.257812 1060.285156 112.144531 C 1061.316406 112.03125 1062.347656 111.96875 1063.382812 111.957031 L 1111.011719 111.957031 C 1112.054688 111.960938 1113.089844 112.011719 1114.125 112.117188 C 1115.164062 112.222656 1116.191406 112.375 1117.210938 112.582031 C 1118.230469 112.785156 1119.238281 113.042969 1120.234375 113.34375 C 1121.230469 113.648438 1122.207031 114 1123.167969 114.402344 C 1124.128906 114.800781 1125.070312 115.246094 1125.988281 115.738281 C 1126.902344 116.230469 1127.792969 116.769531 1128.660156 117.347656 C 1129.523438 117.925781 1130.359375 118.546875 1131.160156 119.207031 C 1131.964844 119.871094 1132.734375 120.570312 1133.46875 121.304688 C 1134.207031 122.042969 1134.902344 122.8125 1135.5625 123.617188 C 1136.222656 124.425781 1136.839844 125.261719 1137.417969 126.125 C 1137.996094 126.992188 1138.527344 127.882812 1139.019531 128.800781 C 1139.507812 129.71875 1139.953125 130.660156 1140.351562 131.621094 C 1140.75 132.585938 1141.097656 133.5625 1141.398438 134.558594 C 1141.703125 135.554688 1141.953125 136.5625 1142.15625 137.585938 C 1142.359375 138.605469 1142.511719 139.632812 1142.613281 140.671875 C 1142.714844 141.707031 1142.765625 142.746094 1142.765625 143.785156 L 1142.765625 327.628906 L 1031.925781 327.628906 Z M 357.53125 143.785156 C 357.53125 142.75 357.578125 141.71875 357.679688 140.6875 C 357.78125 139.660156 357.929688 138.636719 358.132812 137.621094 C 358.332031 136.605469 358.582031 135.601562 358.878906 134.613281 C 359.175781 133.621094 359.523438 132.648438 359.917969 131.691406 C 360.308594 130.734375 360.75 129.796875 361.234375 128.882812 C 361.71875 127.96875 362.246094 127.082031 362.816406 126.21875 C 363.386719 125.355469 364 124.523438 364.652344 123.71875 C 365.304688 122.914062 365.992188 122.144531 366.71875 121.410156 C 367.449219 120.675781 368.207031 119.976562 369.003906 119.3125 C 369.800781 118.652344 370.625 118.03125 371.480469 117.449219 C 372.335938 116.867188 373.21875 116.328125 374.128906 115.835938 C 375.039062 115.339844 375.96875 114.890625 376.921875 114.484375 C 377.871094 114.082031 378.84375 113.722656 379.828125 113.414062 C 380.816406 113.105469 381.816406 112.84375 382.828125 112.632812 C 383.84375 112.417969 384.863281 112.257812 385.890625 112.144531 C 386.921875 112.03125 387.953125 111.96875 388.988281 111.957031 L 436.617188 111.957031 C 437.652344 111.96875 438.683594 112.03125 439.710938 112.144531 C 440.738281 112.257812 441.761719 112.417969 442.773438 112.632812 C 443.785156 112.84375 444.785156 113.105469 445.773438 113.414062 C 446.761719 113.722656 447.730469 114.082031 448.683594 114.484375 C 449.636719 114.890625 450.566406 115.339844 451.472656 115.835938 C 452.382812 116.328125 453.265625 116.867188 454.121094 117.449219 C 454.976562 118.03125 455.804688 118.652344 456.597656 119.3125 C 457.394531 119.976562 458.15625 120.675781 458.882812 121.410156 C 459.609375 122.144531 460.300781 122.914062 460.953125 123.71875 C 461.605469 124.523438 462.214844 125.355469 462.789062 126.21875 C 463.359375 127.082031 463.886719 127.96875 464.371094 128.882812 C 464.855469 129.796875 465.292969 130.734375 465.6875 131.691406 C 466.082031 132.648438 466.425781 133.621094 466.722656 134.613281 C 467.023438 135.601562 467.269531 136.605469 467.472656 137.621094 C 467.671875 138.636719 467.824219 139.660156 467.921875 140.6875 C 468.023438 141.71875 468.074219 142.75 468.074219 143.785156 L 468.074219 327.628906 L 356.789062 327.628906 Z M 167.453125 274.140625 L 297.878906 274.140625 L 297.878906 386.984375 L 527.425781 386.984375 L 527.425781 274.140625 L 972.570312 274.140625 L 972.570312 386.984375 L 1202.5625 386.984375 L 1202.5625 274.140625 L 1332.992188 274.140625 C 1334.800781 274.15625 1336.601562 274.261719 1338.398438 274.453125 C 1340.195312 274.644531 1341.980469 274.925781 1343.75 275.292969 C 1345.519531 275.660156 1347.265625 276.113281 1348.992188 276.648438 C 1350.71875 277.1875 1352.414062 277.808594 1354.082031 278.507812 C 1355.746094 279.210938 1357.371094 279.996094 1358.960938 280.855469 C 1360.550781 281.71875 1362.09375 282.65625 1363.59375 283.667969 C 1365.089844 284.679688 1366.535156 285.761719 1367.925781 286.914062 C 1369.316406 288.070312 1370.648438 289.289062 1371.921875 290.570312 C 1373.195312 291.855469 1374.402344 293.195312 1375.546875 294.597656 C 1376.6875 296 1377.757812 297.453125 1378.757812 298.957031 C 1379.757812 300.464844 1380.683594 302.015625 1381.53125 303.609375 C 1382.382812 305.207031 1383.152344 306.839844 1383.839844 308.511719 C 1384.53125 310.179688 1385.136719 311.882812 1385.660156 313.613281 C 1386.183594 315.34375 1386.621094 317.09375 1386.972656 318.867188 C 1387.328125 320.640625 1387.59375 322.425781 1387.769531 324.222656 C 1387.949219 326.023438 1388.039062 327.824219 1388.042969 329.632812 L 1388.042969 560.886719 L 111.957031 560.886719 L 111.957031 329.632812 C 111.960938 327.816406 112.050781 326.003906 112.230469 324.195312 C 112.410156 322.386719 112.679688 320.59375 113.035156 318.8125 C 113.390625 317.03125 113.835938 315.269531 114.363281 313.53125 C 114.894531 311.792969 115.503906 310.085938 116.203125 308.40625 C 116.898438 306.730469 117.675781 305.089844 118.53125 303.488281 C 119.390625 301.886719 120.324219 300.332031 121.332031 298.820312 C 122.34375 297.308594 123.425781 295.851562 124.578125 294.449219 C 125.730469 293.042969 126.949219 291.699219 128.234375 290.414062 C 129.519531 289.128906 130.863281 287.910156 132.265625 286.757812 C 133.671875 285.605469 135.128906 284.523438 136.636719 283.515625 C 138.148438 282.503906 139.703125 281.570312 141.308594 280.714844 C 142.910156 279.855469 144.550781 279.078125 146.226562 278.382812 C 147.90625 277.6875 149.613281 277.074219 151.351562 276.546875 C 153.089844 276.015625 154.847656 275.574219 156.632812 275.21875 C 158.414062 274.859375 160.207031 274.59375 162.015625 274.414062 C 163.824219 274.234375 165.636719 274.140625 167.453125 274.140625 Z M 1332.546875 1388.042969 L 167.75 1388.042969 C 165.925781 1388.046875 164.105469 1387.964844 162.292969 1387.792969 C 160.476562 1387.621094 158.675781 1387.363281 156.886719 1387.011719 C 155.097656 1386.664062 153.328125 1386.226562 151.582031 1385.703125 C 149.835938 1385.183594 148.121094 1384.574219 146.433594 1383.882812 C 144.746094 1383.191406 143.097656 1382.417969 141.488281 1381.5625 C 139.875 1380.707031 138.3125 1379.777344 136.792969 1378.769531 C 135.273438 1377.761719 133.808594 1376.679688 132.394531 1375.527344 C 130.984375 1374.375 129.628906 1373.15625 128.339844 1371.871094 C 127.046875 1370.585938 125.820312 1369.238281 124.660156 1367.832031 C 123.5 1366.425781 122.410156 1364.964844 121.394531 1363.453125 C 120.378906 1361.9375 119.4375 1360.378906 118.574219 1358.773438 C 117.714844 1357.167969 116.929688 1355.523438 116.230469 1353.839844 C 115.527344 1352.15625 114.914062 1350.445312 114.378906 1348.699219 C 113.847656 1346.957031 113.402344 1345.191406 113.042969 1343.402344 C 112.683594 1341.617188 112.414062 1339.816406 112.234375 1338.003906 C 112.050781 1336.1875 111.960938 1334.371094 111.957031 1332.546875 L 111.957031 620.3125 L 1388.042969 620.3125 L 1388.042969 1332.546875 C 1388.039062 1334.363281 1387.949219 1336.175781 1387.765625 1337.984375 C 1387.585938 1339.792969 1387.320312 1341.585938 1386.960938 1343.367188 C 1386.605469 1345.148438 1386.164062 1346.910156 1385.636719 1348.648438 C 1385.105469 1350.386719 1384.492188 1352.09375 1383.796875 1353.773438 C 1383.101562 1355.449219 1382.324219 1357.089844 1381.464844 1358.691406 C 1380.609375 1360.292969 1379.675781 1361.847656 1378.664062 1363.359375 C 1377.65625 1364.871094 1376.574219 1366.328125 1375.421875 1367.730469 C 1374.269531 1369.136719 1373.050781 1370.480469 1371.765625 1371.765625 C 1370.480469 1373.050781 1369.136719 1374.269531 1367.730469 1375.421875 C 1366.328125 1376.574219 1364.871094 1377.65625 1363.359375 1378.664062 C 1361.851562 1379.675781 1360.292969 1380.609375 1358.691406 1381.464844 C 1357.089844 1382.324219 1355.449219 1383.101562 1353.773438 1383.796875 C 1352.09375 1384.492188 1350.386719 1385.105469 1348.648438 1385.632812 C 1346.910156 1386.164062 1345.148438 1386.605469 1343.367188 1386.960938 C 1341.585938 1387.320312 1339.792969 1387.585938 1337.984375 1387.765625 C 1336.175781 1387.945312 1334.363281 1388.039062 1332.546875 1388.042969 Z M 1332.546875 1388.042969 " fill-opacity="1" fill-rule="nonzero"/></g></svg>