<svg xmlns="http://www.w3.org/2000/svg" xmlns:xlink="http://www.w3.org/1999/xlink" width="2000" zoomAndPan="magnify" viewBox="0 0 1500 1499.999933" height="2000" preserveAspectRatio="xMidYMid meet" version="1.0"><defs><clipPath id="4326e8589e"><path d="M 126.300781 253 L 1315 253 L 1315 1289 L 126.300781 1289 Z M 126.300781 253 " clip-rule="nonzero"/></clipPath></defs><g clip-path="url(#4326e8589e)"><path fill="#09497a" d="M 1137.625 383.398438 C 906.402344 210.523438 534.335938 210.472656 303.050781 383.398438 C 189.027344 468.648438 126.230469 582.703125 126.230469 704.550781 C 126.230469 839.371094 203.535156 964.613281 339.023438 1050.46875 L 307.070312 1258.152344 C 305.519531 1268.238281 310.023438 1278.296875 318.582031 1283.851562 C 327.109375 1289.390625 338.128906 1289.453125 346.742188 1283.917969 L 569.550781 1140.683594 C 760.035156 1178.363281 978.929688 1144.355469 1137.628906 1025.703125 C 1373.625 849.253906 1373.582031 559.8125 1137.625 383.398438 Z M 720.335938 1103.402344 C 669.171875 1103.402344 618.527344 1098.144531 569.8125 1087.769531 C 563.121094 1086.347656 556.136719 1087.617188 550.378906 1091.320312 L 367.105469 1209.140625 L 392.925781 1041.316406 C 394.535156 1030.859375 389.628906 1020.46875 380.53125 1015.066406 C 251.894531 938.683594 178.117188 825.503906 178.117188 704.550781 C 178.117188 484.625 421.355469 305.699219 720.335938 305.699219 C 1019.320312 305.699219 1262.554688 484.625 1262.554688 704.550781 C 1262.554688 924.476562 1019.320312 1103.402344 720.335938 1103.402344 Z M 720.335938 1103.402344 " fill-opacity="1" fill-rule="nonzero"/></g><path fill="#09497a" d="M 613.96875 691.335938 C 613.96875 693.035156 613.882812 694.730469 613.71875 696.421875 C 613.550781 698.113281 613.300781 699.792969 612.96875 701.457031 C 612.636719 703.125 612.226562 704.773438 611.734375 706.398438 C 611.238281 708.023438 610.667969 709.621094 610.015625 711.191406 C 609.367188 712.761719 608.640625 714.296875 607.839844 715.796875 C 607.039062 717.292969 606.167969 718.75 605.222656 720.164062 C 604.277344 721.574219 603.265625 722.9375 602.1875 724.253906 C 601.109375 725.566406 599.972656 726.824219 598.769531 728.027344 C 597.566406 729.226562 596.308594 730.367188 594.996094 731.445312 C 593.683594 732.523438 592.320312 733.535156 590.90625 734.480469 C 589.492188 735.421875 588.039062 736.296875 586.539062 737.097656 C 585.039062 737.898438 583.507812 738.625 581.9375 739.273438 C 580.367188 739.925781 578.769531 740.496094 577.140625 740.988281 C 575.515625 741.480469 573.871094 741.894531 572.203125 742.226562 C 570.535156 742.558594 568.855469 742.808594 567.164062 742.972656 C 565.476562 743.140625 563.78125 743.222656 562.078125 743.222656 C 560.378906 743.222656 558.683594 743.140625 556.996094 742.972656 C 555.304688 742.808594 553.625 742.558594 551.957031 742.226562 C 550.289062 741.894531 548.644531 741.484375 547.019531 740.988281 C 545.390625 740.496094 543.792969 739.925781 542.222656 739.273438 C 540.652344 738.625 539.121094 737.898438 537.621094 737.097656 C 536.121094 736.296875 534.664062 735.421875 533.253906 734.480469 C 531.839844 733.535156 530.476562 732.523438 529.164062 731.445312 C 527.847656 730.367188 526.59375 729.226562 525.390625 728.027344 C 524.1875 726.824219 523.050781 725.566406 521.972656 724.253906 C 520.894531 722.9375 519.882812 721.574219 518.9375 720.164062 C 517.992188 718.75 517.121094 717.292969 516.320312 715.796875 C 515.519531 714.296875 514.792969 712.761719 514.140625 711.191406 C 513.492188 709.621094 512.921875 708.023438 512.425781 706.398438 C 511.933594 704.773438 511.519531 703.125 511.191406 701.457031 C 510.859375 699.792969 510.609375 698.113281 510.441406 696.421875 C 510.277344 694.730469 510.191406 693.035156 510.191406 691.335938 C 510.191406 689.636719 510.277344 687.941406 510.441406 686.25 C 510.609375 684.558594 510.859375 682.878906 511.191406 681.214844 C 511.519531 679.546875 511.933594 677.898438 512.425781 676.273438 C 512.921875 674.648438 513.492188 673.050781 514.140625 671.480469 C 514.792969 669.910156 515.519531 668.375 516.320312 666.875 C 517.121094 665.378906 517.992188 663.921875 518.9375 662.507812 C 519.882812 661.097656 520.894531 659.734375 521.972656 658.417969 C 523.050781 657.105469 524.1875 655.847656 525.390625 654.648438 C 526.59375 653.445312 527.847656 652.304688 529.164062 651.226562 C 530.476562 650.148438 531.839844 649.136719 533.253906 648.195312 C 534.664062 647.25 536.121094 646.378906 537.621094 645.574219 C 539.121094 644.773438 540.652344 644.050781 542.222656 643.398438 C 543.792969 642.75 545.390625 642.175781 547.019531 641.683594 C 548.644531 641.191406 550.289062 640.777344 551.957031 640.445312 C 553.625 640.113281 555.304688 639.867188 556.996094 639.699219 C 558.683594 639.53125 560.378906 639.449219 562.078125 639.449219 C 563.78125 639.449219 565.476562 639.53125 567.164062 639.699219 C 568.855469 639.867188 570.535156 640.113281 572.203125 640.445312 C 573.871094 640.777344 575.515625 641.191406 577.140625 641.683594 C 578.769531 642.175781 580.367188 642.75 581.9375 643.398438 C 583.507812 644.050781 585.039062 644.773438 586.539062 645.574219 C 588.039062 646.378906 589.492188 647.25 590.90625 648.195312 C 592.320312 649.136719 593.683594 650.148438 594.996094 651.226562 C 596.308594 652.304688 597.566406 653.445312 598.769531 654.648438 C 599.972656 655.847656 601.109375 657.105469 602.1875 658.417969 C 603.265625 659.734375 604.277344 661.097656 605.222656 662.507812 C 606.167969 663.921875 607.039062 665.378906 607.839844 666.875 C 608.640625 668.375 609.367188 669.910156 610.015625 671.480469 C 610.667969 673.050781 611.238281 674.648438 611.734375 676.273438 C 612.226562 677.902344 612.636719 679.546875 612.96875 681.214844 C 613.300781 682.878906 613.550781 684.558594 613.71875 686.25 C 613.882812 687.941406 613.96875 689.636719 613.96875 691.335938 Z M 613.96875 691.335938 " fill-opacity="1" fill-rule="nonzero"/><path fill="#09497a" d="M 769.628906 691.335938 C 769.628906 693.035156 769.546875 694.730469 769.378906 696.421875 C 769.210938 698.113281 768.964844 699.792969 768.632812 701.457031 C 768.300781 703.125 767.886719 704.773438 767.394531 706.398438 C 766.902344 708.023438 766.328125 709.621094 765.679688 711.191406 C 765.027344 712.761719 764.300781 714.296875 763.5 715.796875 C 762.699219 717.292969 761.828125 718.75 760.882812 720.164062 C 759.941406 721.574219 758.929688 722.9375 757.851562 724.253906 C 756.773438 725.566406 755.632812 726.824219 754.429688 728.027344 C 753.230469 729.226562 751.972656 730.367188 750.65625 731.445312 C 749.34375 732.523438 747.980469 733.535156 746.566406 734.480469 C 745.15625 735.421875 743.699219 736.296875 742.199219 737.097656 C 740.703125 737.898438 739.167969 738.625 737.597656 739.273438 C 736.027344 739.925781 734.429688 740.496094 732.804688 740.988281 C 731.175781 741.480469 729.53125 741.894531 727.863281 742.226562 C 726.199219 742.558594 724.519531 742.808594 722.828125 742.972656 C 721.136719 743.140625 719.441406 743.222656 717.742188 743.222656 C 716.042969 743.222656 714.347656 743.140625 712.65625 742.972656 C 710.964844 742.808594 709.285156 742.558594 707.617188 742.226562 C 705.953125 741.894531 704.304688 741.484375 702.679688 740.988281 C 701.054688 740.496094 699.453125 739.925781 697.886719 739.273438 C 696.316406 738.625 694.78125 737.898438 693.28125 737.097656 C 691.78125 736.296875 690.328125 735.421875 688.914062 734.480469 C 687.5 733.535156 686.136719 732.523438 684.824219 731.445312 C 683.511719 730.367188 682.253906 729.226562 681.050781 728.027344 C 679.851562 726.824219 678.710938 725.566406 677.632812 724.253906 C 676.554688 722.9375 675.542969 721.574219 674.597656 720.164062 C 673.65625 718.75 672.78125 717.292969 671.980469 715.796875 C 671.179688 714.296875 670.453125 712.761719 669.804688 711.191406 C 669.152344 709.621094 668.582031 708.023438 668.089844 706.398438 C 667.59375 704.773438 667.183594 703.125 666.851562 701.457031 C 666.519531 699.792969 666.269531 698.113281 666.105469 696.421875 C 665.9375 694.730469 665.855469 693.035156 665.855469 691.335938 C 665.855469 689.636719 665.9375 687.941406 666.105469 686.25 C 666.269531 684.558594 666.519531 682.878906 666.851562 681.214844 C 667.183594 679.546875 667.59375 677.898438 668.089844 676.273438 C 668.582031 674.648438 669.152344 673.050781 669.804688 671.480469 C 670.453125 669.910156 671.179688 668.375 671.980469 666.875 C 672.78125 665.378906 673.65625 663.921875 674.597656 662.507812 C 675.542969 661.097656 676.554688 659.734375 677.632812 658.417969 C 678.710938 657.105469 679.851562 655.847656 681.050781 654.648438 C 682.253906 653.445312 683.511719 652.304688 684.824219 651.226562 C 686.136719 650.148438 687.5 649.136719 688.914062 648.195312 C 690.328125 647.25 691.78125 646.378906 693.28125 645.574219 C 694.78125 644.773438 696.316406 644.050781 697.886719 643.398438 C 699.453125 642.75 701.054688 642.175781 702.679688 641.683594 C 704.304688 641.191406 705.953125 640.777344 707.617188 640.445312 C 709.285156 640.113281 710.964844 639.867188 712.65625 639.699219 C 714.347656 639.53125 716.042969 639.449219 717.742188 639.449219 C 719.441406 639.449219 721.136719 639.53125 722.828125 639.699219 C 724.519531 639.867188 726.199219 640.113281 727.863281 640.445312 C 729.53125 640.777344 731.175781 641.191406 732.804688 641.683594 C 734.429688 642.175781 736.027344 642.75 737.597656 643.398438 C 739.167969 644.050781 740.703125 644.773438 742.199219 645.574219 C 743.699219 646.378906 745.15625 647.25 746.566406 648.195312 C 747.980469 649.136719 749.34375 650.148438 750.65625 651.226562 C 751.972656 652.304688 753.230469 653.445312 754.429688 654.648438 C 755.632812 655.847656 756.773438 657.105469 757.851562 658.417969 C 758.929688 659.734375 759.941406 661.097656 760.882812 662.507812 C 761.828125 663.921875 762.699219 665.378906 763.5 666.875 C 764.300781 668.375 765.027344 669.910156 765.679688 671.480469 C 766.328125 673.050781 766.902344 674.648438 767.394531 676.273438 C 767.886719 677.902344 768.300781 679.546875 768.632812 681.214844 C 768.964844 682.878906 769.210938 684.558594 769.378906 686.25 C 769.546875 687.941406 769.628906 689.636719 769.628906 691.335938 Z M 769.628906 691.335938 " fill-opacity="1" fill-rule="nonzero"/><path fill="#09497a" d="M 925.292969 691.335938 C 925.292969 693.035156 925.207031 694.730469 925.042969 696.421875 C 924.875 698.113281 924.625 699.792969 924.296875 701.457031 C 923.964844 703.125 923.550781 704.773438 923.058594 706.398438 C 922.566406 708.023438 921.992188 709.621094 921.34375 711.191406 C 920.691406 712.761719 919.964844 714.296875 919.164062 715.796875 C 918.363281 717.292969 917.492188 718.75 916.546875 720.164062 C 915.601562 721.574219 914.59375 722.9375 913.515625 724.253906 C 912.4375 725.566406 911.296875 726.824219 910.09375 728.027344 C 908.894531 729.226562 907.636719 730.367188 906.320312 731.445312 C 905.007812 732.523438 903.644531 733.535156 902.230469 734.480469 C 900.820312 735.421875 899.363281 736.296875 897.863281 737.097656 C 896.367188 737.898438 894.832031 738.625 893.261719 739.273438 C 891.691406 739.925781 890.09375 740.496094 888.46875 740.988281 C 886.839844 741.480469 885.195312 741.894531 883.527344 742.226562 C 881.859375 742.558594 880.183594 742.808594 878.492188 742.972656 C 876.800781 743.140625 875.105469 743.222656 873.40625 743.222656 C 871.707031 743.222656 870.011719 743.140625 868.320312 742.972656 C 866.628906 742.808594 864.949219 742.558594 863.28125 742.226562 C 861.617188 741.894531 859.96875 741.484375 858.34375 740.988281 C 856.71875 740.496094 855.117188 739.925781 853.546875 739.273438 C 851.980469 738.625 850.445312 737.898438 848.945312 737.097656 C 847.445312 736.296875 845.992188 735.421875 844.578125 734.480469 C 843.164062 733.535156 841.800781 732.523438 840.488281 731.445312 C 839.175781 730.367188 837.917969 729.226562 836.714844 728.027344 C 835.515625 726.824219 834.375 725.566406 833.296875 724.253906 C 832.21875 722.9375 831.207031 721.574219 830.261719 720.164062 C 829.320312 718.75 828.445312 717.292969 827.644531 715.796875 C 826.84375 714.296875 826.117188 712.761719 825.46875 711.191406 C 824.816406 709.621094 824.246094 708.023438 823.753906 706.398438 C 823.257812 704.773438 822.847656 703.125 822.515625 701.457031 C 822.183594 699.792969 821.933594 698.113281 821.769531 696.421875 C 821.601562 694.730469 821.519531 693.035156 821.519531 691.335938 C 821.519531 689.636719 821.601562 687.941406 821.769531 686.25 C 821.933594 684.558594 822.183594 682.878906 822.515625 681.214844 C 822.847656 679.546875 823.257812 677.898438 823.753906 676.273438 C 824.246094 674.648438 824.816406 673.050781 825.46875 671.480469 C 826.117188 669.910156 826.84375 668.375 827.644531 666.875 C 828.445312 665.378906 829.320312 663.921875 830.261719 662.507812 C 831.207031 661.097656 832.21875 659.734375 833.296875 658.417969 C 834.375 657.105469 835.515625 655.847656 836.714844 654.648438 C 837.917969 653.445312 839.175781 652.304688 840.488281 651.226562 C 841.800781 650.148438 843.164062 649.136719 844.578125 648.195312 C 845.992188 647.25 847.445312 646.378906 848.945312 645.574219 C 850.445312 644.773438 851.980469 644.050781 853.546875 643.398438 C 855.117188 642.75 856.71875 642.175781 858.34375 641.683594 C 859.96875 641.191406 861.617188 640.777344 863.28125 640.445312 C 864.949219 640.113281 866.628906 639.867188 868.320312 639.699219 C 870.011719 639.53125 871.707031 639.449219 873.40625 639.449219 C 875.105469 639.449219 876.800781 639.53125 878.492188 639.699219 C 880.183594 639.867188 881.859375 640.113281 883.527344 640.445312 C 885.195312 640.777344 886.839844 641.191406 888.46875 641.683594 C 890.09375 642.175781 891.691406 642.75 893.261719 643.398438 C 894.832031 644.050781 896.367188 644.773438 897.863281 645.574219 C 899.363281 646.378906 900.820312 647.25 902.230469 648.195312 C 903.644531 649.136719 905.007812 650.148438 906.320312 651.226562 C 907.636719 652.304688 908.894531 653.445312 910.09375 654.648438 C 911.296875 655.847656 912.4375 657.105469 913.515625 658.417969 C 914.59375 659.734375 915.601562 661.097656 916.546875 662.507812 C 917.492188 663.921875 918.363281 665.378906 919.164062 666.875 C 919.964844 668.375 920.691406 669.910156 921.34375 671.480469 C 921.992188 673.050781 922.566406 674.648438 923.058594 676.273438 C 923.550781 677.902344 923.964844 679.546875 924.296875 681.214844 C 924.625 682.878906 924.875 684.558594 925.042969 686.25 C 925.207031 687.941406 925.292969 689.636719 925.292969 691.335938 Z M 925.292969 691.335938 " fill-opacity="1" fill-rule="nonzero"/></svg>