<svg xmlns="http://www.w3.org/2000/svg" xmlns:xlink="http://www.w3.org/1999/xlink" width="2000" zoomAndPan="magnify" viewBox="0 0 1500 1499.999933" height="2000" preserveAspectRatio="xMidYMid meet" version="1.0"><path fill="#09497a" d="M 414.601562 62.441406 C 335.929688 61.433594 286.835938 67.503906 267.308594 80.648438 L 267.207031 80.644531 C 244.472656 94.382812 231.996094 130.832031 229.785156 189.988281 L 229.753906 189.988281 C 225.5625 235.308594 224.828125 369.972656 227.539062 593.980469 C 227.679688 605.496094 236.984375 614.753906 248.4375 614.898438 C 248.621094 614.902344 248.796875 614.902344 248.976562 614.902344 C 260.675781 614.761719 270.042969 605.164062 269.898438 593.464844 C 267.179688 368.855469 267.890625 235.3125 272.03125 192.832031 L 272.117188 191.570312 C 273.785156 146.953125 279.453125 122.0625 289.117188 116.898438 L 290.960938 115.789062 C 303.183594 107.5625 343.472656 103.886719 411.832031 104.761719 C 415.289062 104.804688 418.8125 104.863281 422.410156 104.929688 L 422.3125 104.929688 C 720.074219 114.355469 878.664062 121.601562 898.082031 126.660156 L 897.96875 126.660156 C 900.144531 127.425781 902.429688 127.828125 904.726562 127.859375 C 905.945312 127.875 907.171875 127.785156 908.386719 127.585938 C 909.433594 127.417969 910.449219 127.339844 911.433594 127.351562 C 922.023438 127.484375 929.035156 138.140625 932.46875 159.3125 L 932.46875 159.316406 C 932.878906 161.851562 933.238281 164.523438 933.546875 167.339844 C 934.726562 178.089844 943.757812 186.074219 954.304688 186.210938 C 955.160156 186.222656 956.035156 186.179688 956.914062 186.082031 C 968.539062 184.808594 976.933594 174.347656 975.65625 162.71875 C 975.273438 159.207031 974.8125 155.8125 974.28125 152.53125 L 974.28125 152.539062 C 967.011719 107.703125 947.425781 85.078125 915.519531 84.671875 C 912.5625 84.636719 909.5 84.789062 906.328125 85.132812 C 876.316406 79.339844 715.367188 71.824219 423.476562 62.582031 L 423.203125 62.574219 C 420.296875 62.523438 417.429688 62.476562 414.601562 62.441406 Z M 414.601562 62.441406 " fill-opacity="1" fill-rule="nonzero"/><path fill="#09497a" d="M 1197.707031 268.464844 C 997.160156 266.421875 890.363281 266.003906 877.316406 267.210938 L 876.960938 267.207031 C 834.886719 268.597656 806.109375 272.949219 790.625 280.253906 L 790.574219 280.253906 C 764.039062 291.59375 747.621094 317.605469 741.328125 358.292969 L 741.167969 359.589844 C 732.25 456.480469 728.070312 540.582031 728.632812 611.894531 L 728.628906 611.945312 C 728.722656 623.496094 738.035156 632.808594 749.535156 632.957031 C 749.683594 632.957031 749.832031 632.960938 749.980469 632.957031 C 761.675781 632.867188 771.082031 623.308594 770.992188 612.050781 L 770.992188 612 L 770.988281 611.558594 C 770.445312 541.984375 774.527344 459.71875 783.234375 364.769531 L 783.195312 364.769531 C 787.128906 339.320312 795.289062 324.070312 807.667969 319.019531 L 808.707031 318.5625 C 819.042969 313.6875 842.671875 310.664062 879.59375 309.503906 L 881.167969 309.394531 L 881.175781 309.394531 L 881.257812 309.386719 C 892.589844 308.3125 997.734375 308.789062 1196.6875 310.816406 L 1197.046875 310.820312 L 1390.453125 317.128906 L 1390.222656 317.125 C 1393.730469 317.382812 1395.964844 317.910156 1396.925781 318.710938 L 1396.933594 318.71875 L 1396.859375 318.714844 C 1396.867188 318.734375 1396.875 318.75 1396.882812 318.769531 C 1397.335938 320.003906 1397.90625 321.191406 1398.59375 322.335938 L 1398.574219 322.335938 C 1404.644531 334.96875 1408.441406 386.027344 1409.96875 475.515625 L 1409.960938 475.515625 L 1405.203125 992.636719 L 1405.164062 992.636719 C 1404.121094 1006.453125 1402.113281 1015.113281 1399.136719 1018.621094 C 1398.109375 1019.828125 1397.234375 1021.140625 1396.507812 1022.527344 L 1396.148438 1022.523438 C 1390.847656 1027.050781 1378.238281 1035.457031 1358.3125 1047.746094 L 1355.617188 1049.71875 C 1346.9375 1057.1875 1343.035156 1066.886719 1343.90625 1078.8125 C 1343.988281 1079.949219 1344.164062 1081.085938 1344.429688 1082.199219 C 1355.863281 1130.035156 1382.417969 1182.121094 1424.09375 1238.453125 C 1403.183594 1228.570312 1378.535156 1212.921875 1350.15625 1191.515625 L 1350.109375 1191.515625 C 1334.328125 1178.367188 1319.429688 1162.554688 1305.425781 1144.082031 L 1305.121094 1143.6875 C 1290.945312 1125.882812 1275.3125 1098.792969 1258.222656 1062.414062 L 1256.804688 1059.875 C 1251.402344 1051.566406 1244.632812 1045.308594 1236.503906 1041.097656 L 1236.148438 1041.089844 C 1233.511719 1038.804688 1230.296875 1036.933594 1226.5 1035.472656 L 1226.496094 1035.472656 C 1217.472656 1032.007812 1198.183594 1030.085938 1168.628906 1029.707031 C 1124.070312 1029.140625 1056.179688 1032.078125 964.949219 1038.519531 C 953.28125 1039.347656 944.492188 1049.476562 945.316406 1061.144531 C 946.09375 1072.210938 955.246094 1080.691406 966.148438 1080.828125 C 966.738281 1080.835938 967.332031 1080.820312 967.9375 1080.777344 C 1064.101562 1073.984375 1132.148438 1070.84375 1172.074219 1071.351562 C 1191.035156 1071.59375 1203.652344 1072.660156 1209.929688 1074.550781 L 1209.574219 1074.546875 C 1211.417969 1076.09375 1213.527344 1077.332031 1215.828125 1078.1875 C 1217.894531 1078.953125 1219.71875 1080.550781 1221.296875 1082.972656 L 1221.078125 1082.972656 C 1239.128906 1121.09375 1256.09375 1150.125 1271.972656 1170.074219 L 1271.96875 1170.074219 C 1287.839844 1190.945312 1304.851562 1208.945312 1323.003906 1224.0625 L 1326.820312 1226.59375 L 1325.917969 1226.027344 L 1325.558594 1226.023438 C 1384.742188 1270.511719 1432.691406 1292.992188 1469.40625 1293.464844 C 1473.132812 1293.511719 1476.746094 1293.332031 1480.242188 1292.925781 C 1488.007812 1292.023438 1494.644531 1286.917969 1497.503906 1279.640625 C 1500.371094 1272.367188 1498.992188 1264.105469 1493.921875 1258.15625 C 1437.367188 1191.734375 1401.898438 1132.25 1387.519531 1079.695312 L 1387.15625 1079.691406 C 1409.21875 1065.859375 1423.097656 1055.921875 1428.792969 1049.878906 C 1430.246094 1048.335938 1431.492188 1046.757812 1432.53125 1045.144531 L 1432.175781 1045.140625 C 1440.792969 1034.402344 1445.90625 1017.457031 1447.515625 994.296875 L 1447.566406 993.027344 L 1452.328125 475.347656 L 1452.324219 474.792969 C 1450.679688 378.304688 1445.34375 321.070312 1436.316406 303.09375 L 1436.3125 303.082031 L 1436.230469 303.082031 C 1435.425781 301.054688 1434.484375 299.109375 1433.40625 297.253906 C 1430.933594 292.996094 1427.804688 289.292969 1424.019531 286.148438 C 1415.953125 279.4375 1405.453125 275.660156 1392.511719 274.824219 L 1391.828125 274.789062 L 1198.179688 268.476562 Z M 1197.707031 268.464844 " fill-opacity="1" fill-rule="nonzero"/><path fill="#09497a" d="M 1129.035156 438.082031 L 1126.570312 438.183594 C 1083.257812 442.546875 1046.949219 465.058594 1017.648438 505.722656 C 1010.808594 515.214844 1012.957031 528.449219 1022.449219 535.285156 C 1026.113281 537.929688 1030.339844 539.230469 1034.542969 539.285156 C 1041.214844 539.371094 1047.820312 536.308594 1052.015625 530.488281 C 1073.585938 500.550781 1099.4375 483.878906 1129.570312 480.464844 L 1129.925781 480.472656 C 1161.464844 481.339844 1181.777344 492.882812 1190.871094 515.101562 L 1190.804688 515.097656 C 1195.265625 529.738281 1192.449219 543.785156 1182.351562 557.25 L 1182.34375 557.25 C 1178.308594 562.355469 1172.871094 567.488281 1166.035156 572.640625 C 1165.058594 573.378906 1164.144531 574.203125 1163.308594 575.09375 L 1162.953125 575.089844 C 1157.089844 579.039062 1141.191406 588.242188 1115.257812 602.703125 L 1113.832031 603.578125 C 1105.058594 609.417969 1098.515625 616.476562 1094.207031 624.746094 L 1094.175781 624.746094 C 1087.023438 637.4375 1082.234375 665.367188 1079.816406 708.539062 C 1079.15625 720.21875 1088.09375 730.21875 1099.777344 730.875 C 1100.085938 730.894531 1100.394531 730.902344 1100.703125 730.90625 C 1111.980469 731.050781 1121.46875 722.28125 1122.109375 710.914062 C 1124.160156 674.316406 1127.136719 652.554688 1131.03125 645.632812 L 1131.769531 644.324219 C 1132.574219 642.78125 1134.007812 641.238281 1136.070312 639.707031 L 1135.886719 639.703125 C 1166.726562 622.503906 1184.945312 611.742188 1190.535156 607.417969 L 1190.542969 607.40625 C 1190.945312 607.097656 1191.332031 606.78125 1191.703125 606.46875 L 1191.542969 606.464844 C 1201.5 598.957031 1209.652344 591.128906 1216.003906 582.976562 L 1216.246094 582.664062 C 1235.523438 556.960938 1240.296875 529.527344 1230.566406 500.375 L 1230.078125 499.058594 C 1213.78125 459.226562 1180.101562 438.902344 1129.035156 438.082031 Z M 1129.035156 438.082031 " fill-opacity="1" fill-rule="nonzero"/><path fill="#09497a" d="M 1094.160156 760.199219 C 1086.210938 760.09375 1078.53125 764.496094 1074.828125 772.117188 C 1074.214844 773.375 1073.742188 774.660156 1073.398438 775.960938 L 1073.042969 775.957031 C 1068.300781 783.574219 1068.777344 793.683594 1074.90625 800.878906 C 1079.808594 806.640625 1085.917969 809.566406 1093.234375 809.660156 C 1093.386719 809.660156 1093.539062 809.664062 1093.695312 809.664062 L 1095.796875 809.554688 C 1104.746094 808.628906 1111.144531 804.109375 1114.988281 795.988281 L 1115.183594 795.554688 C 1118.007812 789.226562 1118.296875 782.9375 1116.046875 776.691406 C 1113.734375 770.175781 1109.429688 765.390625 1103.136719 762.332031 C 1100.238281 760.925781 1097.183594 760.234375 1094.160156 760.199219 Z M 1094.160156 760.199219 " fill-opacity="1" fill-rule="nonzero"/><path fill="#09497a" d="M 101.363281 752.355469 C 101.304688 752.355469 101.242188 752.355469 101.179688 752.355469 C 101.121094 752.351562 101.0625 752.351562 101.003906 752.351562 Z M 617.816406 697.351562 C 665.066406 697.957031 726.777344 700.074219 802.949219 703.707031 L 803.585938 703.726562 C 813.105469 703.890625 819.84375 704.609375 823.800781 705.878906 L 823.449219 705.875 C 842.445312 858.015625 849.542969 981.4375 844.738281 1076.148438 L 844.734375 1076.242188 C 841.765625 1140.523438 831.269531 1186.726562 813.238281 1214.84375 C 811.6875 1217.027344 808.238281 1218.3125 802.882812 1218.699219 L 802.53125 1218.695312 C 588.171875 1218.265625 459.035156 1222.476562 415.125 1231.328125 L 414.535156 1231.457031 C 404.1875 1233.851562 393.878906 1238.648438 383.605469 1245.847656 L 381.265625 1247.75 C 350.140625 1276.984375 318.308594 1302.566406 285.761719 1324.5 L 285.386719 1324.757812 C 269.921875 1335.667969 251.671875 1346.03125 230.632812 1355.851562 L 230.636719 1355.851562 C 179.058594 1379.855469 126.070312 1393.230469 71.671875 1395.964844 C 137.8125 1340.164062 181.464844 1292.464844 202.625 1252.863281 L 202.28125 1252.859375 C 207.945312 1248.390625 211.183594 1241.136719 210.179688 1233.460938 C 208.792969 1222.890625 199.832031 1215.164062 189.46875 1215.03125 C 188.46875 1215.019531 187.449219 1215.078125 186.425781 1215.210938 C 160.765625 1218.574219 139.476562 1220.148438 122.5625 1219.933594 C 117.710938 1219.871094 113.214844 1219.660156 109.082031 1219.304688 L 109.082031 1219.300781 C 97.800781 1218.328125 90.460938 1216.695312 87.070312 1214.398438 L 86.722656 1214.394531 L 86.773438 1213.355469 C 87.492188 1156.550781 88.453125 1104.851562 89.65625 1058.253906 L 89.65625 1058.25 C 94.320312 877.59375 101.957031 774.632812 112.566406 749.363281 L 112.222656 749.359375 C 115.914062 747.152344 118.933594 743.824219 120.746094 739.714844 C 125.222656 729.542969 146.179688 722.679688 183.613281 719.117188 L 183.601562 719.117188 C 357.476562 704.4375 470.492188 697.429688 522.648438 698.097656 C 527.308594 698.15625 531.484375 698.277344 535.171875 698.460938 L 537.511719 698.445312 C 556.589844 697.277344 583.355469 696.914062 617.816406 697.351562 Z M 618.515625 655.011719 C 583.449219 654.5625 555.96875 654.925781 536.078125 656.09375 C 532.421875 655.929688 528.34375 655.820312 523.847656 655.761719 C 469.789062 655.070312 355.183594 662.117188 180.039062 676.910156 L 179.820312 676.929688 C 131.25 681.527344 99.992188 694.292969 86.042969 715.226562 L 85.699219 715.222656 C 82.714844 717.566406 80.046875 720.699219 77.699219 724.621094 L 77.695312 724.621094 C 62.503906 749.984375 52.375 860.832031 47.308594 1057.160156 C 46.097656 1104.097656 45.132812 1155.988281 44.414062 1212.820312 L 44.386719 1212.820312 C 44.304688 1214.308594 44.304688 1215.789062 44.378906 1217.257812 L 44.375 1217.257812 C 44.863281 1227.1875 48.5625 1235.734375 55.46875 1242.894531 C 65.5 1253.292969 82.160156 1259.5 105.441406 1261.507812 C 110.503906 1261.941406 115.964844 1262.199219 121.820312 1262.273438 C 129.28125 1262.367188 137.386719 1262.171875 146.136719 1261.679688 L 146.484375 1261.683594 C 120.519531 1295.964844 78.175781 1336.777344 19.441406 1384.117188 C 17.050781 1386.046875 15.101562 1388.472656 13.742188 1391.230469 C 4.734375 1409.480469 9.378906 1423.121094 27.671875 1432.152344 C 28.09375 1432.359375 28.515625 1432.5625 28.941406 1432.753906 L 28.964844 1432.765625 C 36.941406 1436.363281 48.539062 1438.261719 63.761719 1438.457031 C 65.761719 1438.480469 67.828125 1438.476562 69.957031 1438.445312 L 70.539062 1438.425781 C 131.585938 1435.789062 190.914062 1421.0625 248.53125 1394.246094 L 248.550781 1394.238281 C 271.714844 1383.425781 292.015625 1371.890625 309.445312 1359.628906 L 309.433594 1359.628906 C 343.148438 1336.910156 376.078125 1310.542969 408.222656 1280.535156 L 407.921875 1280.53125 C 413.488281 1276.628906 418.699219 1274.070312 423.554688 1272.855469 L 423.496094 1272.851562 C 464.691406 1264.546875 591.378906 1260.617188 803.558594 1261.054688 L 804.859375 1261.019531 C 824.839844 1259.832031 839.484375 1252.113281 848.796875 1237.867188 L 848.902344 1237.710938 C 871.007812 1203.234375 883.722656 1150.09375 887.042969 1078.292969 C 892.054688 979.550781 884.550781 851.152344 864.535156 693.097656 C 864.328125 691.453125 863.929688 689.839844 863.34375 688.292969 C 860.6875 681.246094 855.898438 675.539062 848.972656 671.175781 C 839.246094 665.042969 824.539062 661.78125 804.855469 661.382812 L 804.722656 661.382812 C 728.492188 657.746094 666.425781 655.625 618.515625 655.011719 Z M 618.515625 655.011719 " fill-opacity="1" fill-rule="nonzero"/><path fill="#09497a" d="M 479.808594 799.566406 C 479.804688 799.566406 479.800781 799.566406 479.792969 799.566406 L 479.058594 799.566406 C 432.429688 800.589844 397.734375 815.476562 374.972656 844.230469 C 367.714844 853.402344 369.265625 866.722656 378.4375 873.980469 C 382.25 877 386.78125 878.496094 391.292969 878.554688 C 397.636719 878.636719 403.949219 875.878906 408.1875 870.519531 C 422.644531 852.253906 446.449219 842.722656 479.601562 841.925781 L 479.953125 841.929688 C 504.296875 842.390625 519.632812 850.683594 525.960938 866.804688 L 525.90625 866.800781 C 528.234375 874.734375 527.214844 883.332031 522.84375 892.59375 L 522.753906 892.789062 C 520.050781 898.675781 515.039062 905.984375 507.722656 914.707031 L 506.894531 915.839844 L 506.859375 915.839844 L 506.828125 915.878906 C 503.886719 919.523438 490.167969 933.070312 465.664062 956.519531 L 464.847656 957.355469 C 458.671875 963.957031 453.753906 970.34375 450.097656 976.515625 L 450.078125 976.515625 C 440.003906 992.386719 434.625 1016.132812 433.949219 1047.75 C 433.695312 1059.445312 442.976562 1069.128906 454.667969 1069.378906 C 454.734375 1069.378906 454.796875 1069.378906 454.855469 1069.382812 C 466.464844 1069.53125 476.046875 1060.289062 476.296875 1048.65625 C 476.808594 1024.601562 480.050781 1008.027344 486.019531 998.941406 L 486.539062 998.109375 C 488.5 994.808594 491.320312 991.144531 495.007812 987.125 L 494.960938 987.125 C 520.695312 962.488281 535.632812 947.621094 539.765625 942.519531 C 539.925781 942.320312 540.082031 942.125 540.230469 941.929688 L 540.179688 941.929688 C 549.863281 930.382812 556.855469 919.960938 561.15625 910.664062 C 570.542969 890.757812 572.085938 871.328125 565.773438 852.371094 L 565.390625 851.324219 C 552.0625 817.378906 523.535156 800.125 479.808594 799.566406 Z M 479.808594 799.566406 " fill-opacity="1" fill-rule="nonzero"/><path fill="#09497a" d="M 444.902344 1103.519531 C 435.605469 1103.398438 427.003906 1109.453125 424.292969 1118.8125 C 423.277344 1122.324219 422.917969 1125.6875 423.210938 1128.90625 L 423.414062 1130.453125 C 424.199219 1135.160156 426.277344 1139.191406 429.640625 1142.542969 L 429.625 1142.542969 C 432.429688 1145.375 435.882812 1147.320312 439.984375 1148.375 C 441.949219 1148.886719 443.863281 1149.15625 445.722656 1149.179688 C 451.566406 1149.253906 456.886719 1146.917969 461.691406 1142.171875 C 465.5 1138.441406 467.824219 1133.8125 468.660156 1128.292969 C 470.417969 1116.726562 462.472656 1105.925781 450.90625 1104.171875 C 450.417969 1104.097656 449.929688 1104.039062 449.445312 1104 L 449.09375 1103.996094 C 447.691406 1103.691406 446.289062 1103.535156 444.902344 1103.519531 Z M 444.902344 1103.519531 " fill-opacity="1" fill-rule="nonzero"/></svg>