<svg xmlns="http://www.w3.org/2000/svg" xmlns:xlink="http://www.w3.org/1999/xlink" width="2000" zoomAndPan="magnify" viewBox="0 0 1500 1499.999933" height="2000" preserveAspectRatio="xMidYMid meet" version="1.0"><defs><clipPath id="affe4d88d2"><path d="M 247.59375 729 L 1252.59375 729 L 1252.59375 1196 L 247.59375 1196 Z M 247.59375 729 " clip-rule="nonzero"/></clipPath></defs><g clip-path="url(#affe4d88d2)"><path fill="#c7cc82" d="M 927.554688 729.164062 C 874.703125 770.75 808.148438 795.648438 735.839844 795.648438 C 665.324219 795.648438 600.234375 771.988281 548.039062 732.234375 C 377.703125 759.765625 247.59375 907.449219 247.59375 1085.566406 C 247.59375 1283.300781 407.871094 1154.75 605.582031 1154.75 L 894.382812 1154.75 C 1092.105469 1154.75 1252.394531 1283.300781 1252.394531 1085.566406 C 1252.394531 899.050781 1109.714844 745.898438 927.554688 729.164062 Z M 927.554688 729.164062 " fill-opacity="1" fill-rule="nonzero"/></g><path fill="#c7cc82" d="M 735.839844 753.980469 C 884.15625 753.980469 1004.8125 633.304688 1004.8125 484.972656 C 1004.8125 336.65625 884.15625 215.976562 735.839844 215.976562 C 587.519531 215.976562 466.851562 336.65625 466.851562 484.972656 C 466.863281 633.304688 587.53125 753.980469 735.839844 753.980469 Z M 735.839844 753.980469 " fill-opacity="1" fill-rule="nonzero"/></svg>