<svg xmlns="http://www.w3.org/2000/svg" xmlns:xlink="http://www.w3.org/1999/xlink" width="2000" zoomAndPan="magnify" viewBox="0 0 1500 1499.999933" height="2000" preserveAspectRatio="xMidYMid meet" version="1.0"><defs><clipPath id="5e17d2632d"><path d="M 80.238281 80.238281 L 1419.738281 80.238281 L 1419.738281 1419.738281 L 80.238281 1419.738281 Z M 80.238281 80.238281 " clip-rule="nonzero"/></clipPath></defs><g clip-path="url(#5e17d2632d)"><path fill="#09497a" d="M 1419.761719 750 C 1419.761719 578.605469 1354.359375 407.179688 1223.585938 276.410156 C 1092.816406 145.640625 921.390625 80.238281 750 80.238281 C 578.605469 80.238281 407.179688 145.640625 276.410156 276.410156 C 145.640625 407.179688 80.238281 578.605469 80.238281 750 C 80.238281 921.390625 145.640625 1092.816406 276.410156 1223.585938 C 407.179688 1354.359375 578.605469 1419.761719 750 1419.761719 C 921.390625 1419.761719 1092.816406 1354.359375 1223.585938 1223.585938 C 1354.359375 1092.816406 1419.761719 921.390625 1419.761719 750 Z M 750 1376.695312 C 589.625 1376.695312 429.214844 1315.511719 306.851562 1193.148438 C 184.484375 1070.78125 123.304688 910.375 123.304688 750 C 123.304688 589.625 184.484375 429.214844 306.851562 306.851562 C 429.214844 184.484375 589.625 123.304688 750 123.304688 C 910.375 123.304688 1070.78125 184.484375 1193.148438 306.851562 C 1315.511719 429.214844 1376.695312 589.625 1376.695312 750 C 1376.695312 910.375 1315.511719 1070.78125 1193.148438 1193.148438 C 1070.78125 1315.511719 910.375 1376.695312 750 1376.695312 Z M 1315.78125 738.714844 C 1315.847656 738.078125 1316.148438 737.542969 1316.148438 736.90625 C 1316.148438 736.101562 1315.78125 735.398438 1315.679688 734.628906 C 1315.546875 726.324219 1315.378906 717.949219 1314.910156 709.3125 L 1313.90625 697.558594 C 1313.90625 696.285156 1313.769531 695.078125 1313.535156 693.875 L 1312.332031 682.253906 C 1308.714844 654.960938 1304.195312 630.3125 1297.195312 603.621094 C 1296.960938 602.417969 1296.660156 601.210938 1296.222656 600.074219 C 1291.46875 582.925781 1286.175781 566.617188 1280.015625 549.90625 C 1272.648438 532.527344 1266.320312 516.21875 1257.980469 499.105469 C 1231.859375 451.519531 1211.566406 417.5625 1175.5 376.105469 L 1171.949219 372.285156 C 1171.078125 371.113281 1170.105469 370.011719 1169.003906 369.039062 C 1162.90625 362.375 1156.8125 356.011719 1150.484375 349.480469 C 1051.660156 258.125 942.386719 197.648438 805.890625 186.429688 C 792.863281 185.15625 779.636719 184.886719 766.410156 184.484375 C 765.269531 184.285156 764.230469 183.816406 763.058594 183.816406 C 762.324219 183.816406 761.71875 184.152344 761.015625 184.21875 C 757.332031 184.152344 753.714844 183.683594 750.03125 183.683594 L 750.03125 183.582031 C 732.148438 183.582031 713.867188 184.484375 695.246094 186.292969 C 693.972656 186.292969 692.734375 186.429688 691.496094 186.664062 C 649.871094 191.015625 601.109375 200.792969 562.03125 215.628906 L 561.996094 215.5625 C 540.097656 223.367188 520.035156 232.039062 499.074219 242.085938 C 490.734375 246.339844 481.523438 250.824219 473.453125 255.582031 C 451.019531 268.140625 429.382812 282.238281 408.753906 297.84375 C 387.992188 313.550781 368.203125 330.761719 349.515625 349.414062 C 339.570312 359.359375 329.757812 369.976562 320.078125 381.261719 C 310.570312 392.3125 301.59375 403.597656 293.1875 415.050781 L 292.988281 415.320312 C 289.335938 420.308594 285.320312 426 280.929688 432.5 C 276.378906 439.195312 272.527344 445.089844 269.34375 450.179688 L 269.210938 450.414062 C 261.910156 462.101562 255.011719 474.125 248.546875 486.449219 C 242.253906 498.4375 236.226562 511.027344 230.53125 524.089844 L 225.140625 536.847656 L 219.949219 550.242188 C 217.671875 556.335938 215.394531 562.667969 213.21875 569.164062 C 210.976562 575.859375 208.898438 582.425781 206.988281 588.789062 C 206.320312 591.199219 204.042969 600.207031 203.238281 601.949219 C 200.863281 610.789062 198.683594 619.664062 196.742188 628.503906 C 194.867188 637.078125 193.125 646.019531 191.585938 655.261719 L 191.519531 655.695312 C 190.011719 664.738281 188.738281 673.546875 187.699219 682.117188 C 186.628906 690.992188 185.757812 700.035156 185.121094 709.210938 C 184.6875 718.488281 183.984375 727.527344 183.851562 736.839844 L 183.78125 736.839844 C 184.050781 745.109375 184.117188 753.113281 184.21875 761.183594 C 184.152344 761.820312 183.851562 762.355469 183.851562 762.992188 C 183.851562 763.796875 184.21875 764.5 184.320312 765.269531 C 184.453125 773.574219 184.621094 781.945312 185.121094 790.585938 L 186.125 802.339844 C 186.125 803.613281 186.261719 804.820312 186.496094 806.023438 L 187.699219 817.644531 C 191.316406 844.835938 195.804688 869.71875 202.871094 896.308594 C 203.105469 897.515625 203.40625 898.6875 203.84375 899.824219 C 208.597656 916.96875 213.886719 933.28125 220.050781 949.988281 C 227.382812 967.371094 233.746094 983.679688 242.085938 1000.792969 C 268.207031 1048.378906 288.5 1082.335938 324.566406 1123.792969 L 328.082031 1127.609375 C 328.953125 1128.78125 329.925781 1129.886719 331.03125 1130.859375 L 339.402344 1139.902344 L 349.546875 1150.382812 C 409.660156 1205.941406 459.1875 1242.875 535.207031 1273.953125 L 535.171875 1274.019531 C 586.308594 1294.851562 638.484375 1307.675781 693.335938 1313.335938 C 707.90625 1314.777344 722.171875 1315.511719 736.269531 1315.878906 C 736.503906 1315.878906 736.738281 1316.015625 736.972656 1316.015625 C 737.171875 1316.015625 737.339844 1315.914062 737.507812 1315.914062 C 741.660156 1316.015625 745.878906 1316.25 750 1316.25 C 767.914062 1316.25 786.265625 1315.34375 804.953125 1313.535156 C 806.160156 1313.535156 807.332031 1313.402344 808.503906 1313.203125 C 877.453125 1306.035156 938.535156 1287.71875 1000.957031 1257.777344 C 1009.265625 1253.558594 1018.539062 1249.039062 1026.578125 1244.285156 C 1049.015625 1231.726562 1070.679688 1217.625 1091.308594 1202.019531 C 1112.074219 1186.316406 1131.863281 1169.136719 1150.550781 1150.449219 C 1160.496094 1140.503906 1170.308594 1129.886719 1179.984375 1118.601562 C 1189.496094 1107.550781 1198.472656 1096.265625 1206.878906 1084.8125 L 1207.078125 1084.546875 C 1210.726562 1079.554688 1214.746094 1073.863281 1219.132812 1067.367188 C 1223.6875 1060.667969 1227.539062 1054.773438 1230.71875 1049.683594 L 1230.855469 1049.449219 C 1238.15625 1037.761719 1245.054688 1025.738281 1251.515625 1013.417969 C 1257.8125 1001.429688 1263.839844 988.835938 1269.535156 975.777344 L 1274.925781 963.015625 L 1280.117188 949.621094 C 1282.394531 943.527344 1284.667969 937.199219 1286.847656 930.699219 C 1289.089844 924.003906 1291.167969 917.441406 1293.074219 911.078125 C 1293.746094 908.664062 1296.023438 899.65625 1296.824219 897.917969 C 1299.203125 889.074219 1301.378906 880.199219 1303.324219 871.359375 C 1305.199219 862.789062 1306.9375 853.847656 1308.480469 844.601562 L 1308.546875 844.167969 C 1310.054688 835.125 1311.328125 826.320312 1312.363281 817.746094 C 1313.4375 808.871094 1314.308594 799.828125 1314.941406 790.652344 C 1315.378906 781.378906 1316.082031 772.335938 1316.214844 763.027344 L 1316.28125 763.027344 C 1315.980469 754.789062 1315.882812 746.785156 1315.78125 738.714844 Z M 1272.882812 773.472656 C 1272.78125 774.34375 1272.714844 775.214844 1272.75 776.121094 L 1271.945312 788.777344 C 1271.375 796.648438 1270.570312 804.652344 1269.601562 812.753906 C 1268.628906 820.792969 1267.523438 828.628906 1266.25 836.164062 L 1265.78125 839.011719 C 1264.476562 846.546875 1262.96875 854.347656 1261.195312 862.316406 C 1259.453125 870.1875 1257.578125 878.058594 1255.5 885.761719 C 1254.363281 890.179688 1253.15625 894.667969 1251.785156 899.019531 C 1249.941406 905.25 1248.035156 911.3125 1246.058594 917.136719 C 1244.25 922.496094 1242.308594 927.988281 1240.230469 933.582031 C 1239.761719 934.550781 1239.394531 935.589844 1239.09375 936.628906 L 1235.007812 946.910156 L 1230.71875 957.222656 C 1230.152344 958.296875 1229.683594 959.398438 1229.3125 960.539062 C 1224.59375 971.289062 1219.300781 982.273438 1213.441406 993.390625 C 1207.714844 1004.273438 1201.519531 1015.089844 1194.855469 1025.839844 L 1193.449219 1028.117188 C 1189.765625 1033.976562 1186.484375 1039.066406 1183.601562 1043.320312 C 1180.621094 1047.707031 1177.105469 1052.699219 1173.019531 1058.257812 L 1171.3125 1060.601562 C 1163.675781 1070.914062 1155.707031 1080.960938 1147.335938 1090.671875 C 1139.0625 1100.316406 1129.953125 1110.097656 1120.074219 1119.976562 C 1102.59375 1137.457031 1084.277344 1153.363281 1065.355469 1167.695312 C 1046.035156 1182.332031 1026.042969 1195.390625 1005.648438 1206.808594 C 997.644531 1210.929688 990.042969 1215.183594 981.9375 1219.269531 C 923.03125 1247.464844 867.542969 1263.875 802.441406 1270.671875 C 788.175781 1272.113281 773.339844 1272.582031 758.40625 1272.816406 L 758.40625 1146.097656 C 758.40625 1134.242188 748.792969 1124.664062 736.972656 1124.664062 C 725.152344 1124.664062 715.539062 1134.273438 715.539062 1146.097656 L 715.539062 1271.542969 C 709.613281 1271.175781 703.382812 1271.242188 697.558594 1270.671875 C 645.917969 1264.945312 599.703125 1253.894531 551.3125 1234.203125 L 551.28125 1234.269531 C 452.691406 1192.375 373.828125 1128.917969 313.785156 1039.234375 C 313.28125 1038.296875 312.679688 1037.394531 312.007812 1036.523438 C 298.246094 1015.390625 286.457031 994.195312 275.707031 971.390625 C 275.339844 970.449219 274.902344 969.546875 274.402344 968.675781 C 260.636719 938.402344 249.957031 907.960938 241.953125 875.746094 C 241.785156 874.777344 241.550781 873.839844 241.25 872.898438 C 237.566406 856.589844 234.617188 841.453125 232.074219 824.910156 L 230.464844 812.589844 L 229.058594 800.0625 L 228.054688 787.503906 C 227.988281 786.433594 227.988281 785.429688 227.921875 784.359375 L 353.867188 784.359375 C 365.691406 784.359375 375.300781 774.746094 375.300781 762.925781 C 375.300781 751.070312 365.691406 741.492188 353.867188 741.492188 L 226.78125 741.492188 C 226.816406 739.917969 226.78125 738.378906 226.882812 736.804688 L 226.816406 736.804688 L 227.183594 726.421875 C 227.285156 725.554688 227.351562 724.648438 227.316406 723.746094 L 228.121094 711.085938 C 228.691406 703.214844 229.492188 695.210938 230.464844 687.109375 C 231.4375 679.070312 232.542969 671.234375 233.8125 663.667969 L 234.28125 660.820312 C 235.589844 653.285156 237.097656 645.484375 238.871094 637.480469 C 240.613281 629.609375 242.488281 621.773438 244.5625 614.039062 C 245.703125 609.617188 246.90625 605.128906 248.28125 600.777344 C 250.121094 594.546875 252.03125 588.484375 254.007812 582.660156 C 255.816406 577.300781 257.757812 571.808594 259.835938 566.214844 C 260.304688 565.246094 260.671875 564.207031 260.972656 563.136719 L 265.058594 552.855469 L 269.34375 542.539062 C 269.914062 541.46875 270.382812 540.328125 270.75 539.191406 C 275.472656 528.441406 280.765625 517.457031 286.625 506.339844 C 292.316406 495.488281 298.546875 484.640625 305.210938 473.890625 L 306.617188 471.613281 C 310.300781 465.753906 313.582031 460.660156 316.460938 456.410156 C 319.441406 452.023438 322.960938 447.03125 327.042969 441.472656 L 328.753906 439.128906 C 336.386719 428.816406 344.359375 418.769531 352.730469 409.058594 C 361 399.414062 370.109375 389.632812 379.988281 379.753906 C 397.46875 362.273438 415.789062 346.367188 434.707031 332.035156 C 454.03125 317.398438 474.023438 304.339844 494.417969 292.921875 C 502.421875 288.800781 510.023438 284.546875 518.128906 280.460938 C 576.597656 252.464844 632.457031 235.855469 696.953125 229.125 L 697.523438 229.058594 C 711.824219 227.617188 726.691406 227.148438 741.660156 226.914062 L 741.660156 353.601562 C 741.660156 365.457031 751.273438 375.03125 763.09375 375.03125 C 774.914062 375.03125 784.527344 365.421875 784.527344 353.601562 L 784.527344 228.121094 C 790.25 228.488281 795.945312 228.386719 801.671875 228.957031 C 963.117188 249.789062 1094.324219 323.125 1186.28125 460.460938 C 1186.785156 461.398438 1187.386719 462.304688 1188.058594 463.171875 C 1201.820312 484.304688 1213.609375 505.503906 1224.359375 528.308594 C 1224.726562 529.246094 1225.160156 530.148438 1225.664062 531.019531 C 1240.433594 563.503906 1249.808594 592.636719 1258.851562 626.796875 C 1262.535156 643.070312 1265.480469 658.273438 1268.027344 674.785156 L 1269.632812 687.109375 L 1271.039062 699.632812 L 1272.046875 712.191406 C 1272.113281 713.261719 1272.113281 714.265625 1272.179688 715.304688 L 1146.230469 715.304688 C 1134.375 715.304688 1124.796875 724.917969 1124.796875 736.738281 C 1124.796875 748.59375 1134.410156 758.171875 1146.230469 758.171875 L 1273.316406 758.171875 C 1273.285156 759.742188 1273.316406 761.285156 1273.21875 762.859375 L 1273.285156 762.859375 Z M 750 1419.761719 Z M 1019.578125 452.425781 L 626.460938 614.105469 C 623.714844 615.144531 621.136719 616.714844 618.925781 618.925781 C 616.714844 621.136719 615.175781 623.714844 614.105469 626.460938 L 452.425781 1019.578125 C 450.347656 1024.636719 450.179688 1030.460938 452.425781 1035.886719 C 456.910156 1046.835938 469.46875 1052.0625 480.421875 1047.574219 L 873.570312 885.859375 C 876.28125 884.820312 878.859375 883.25 881.070312 881.070312 C 883.28125 878.894531 884.820312 876.316406 885.859375 873.570312 L 1047.574219 480.421875 C 1049.652344 475.363281 1049.816406 469.535156 1047.574219 464.109375 C 1043.054688 453.160156 1030.527344 447.9375 1019.578125 452.425781 Z M 641.730469 672.171875 L 674.214844 704.65625 C 665.878906 718.621094 661.390625 734.257812 661.390625 750 C 661.390625 772.671875 670.0625 795.34375 687.34375 812.621094 C 704.621094 829.902344 727.328125 838.574219 749.964844 838.574219 C 765.703125 838.574219 781.34375 834.121094 795.308594 825.75 L 827.824219 858.265625 L 511.664062 988.300781 Z M 750 704.457031 C 761.652344 704.457031 773.308594 708.910156 782.179688 717.785156 C 791.054688 726.65625 795.507812 738.3125 795.507812 749.964844 C 795.507812 761.621094 791.054688 773.273438 782.179688 782.148438 C 773.308594 791.023438 761.621094 795.476562 750 795.476562 C 738.34375 795.476562 726.691406 791.023438 717.816406 782.148438 C 708.941406 773.273438 704.488281 761.585938 704.488281 749.964844 C 704.488281 738.3125 708.941406 726.65625 717.816406 717.785156 C 726.691406 708.910156 738.34375 704.457031 750 704.457031 Z M 858.265625 827.824219 L 825.75 795.308594 C 834.085938 781.34375 838.574219 765.703125 838.574219 749.964844 C 838.574219 727.292969 829.902344 704.621094 812.621094 687.34375 C 795.34375 670.0625 772.636719 661.390625 750 661.390625 C 734.257812 661.390625 718.621094 665.84375 704.65625 674.214844 L 672.171875 641.730469 L 988.332031 511.699219 Z M 858.265625 827.824219 " fill-opacity="1" fill-rule="nonzero"/></g></svg>