<svg xmlns="http://www.w3.org/2000/svg" xmlns:xlink="http://www.w3.org/1999/xlink" width="2000" zoomAndPan="magnify" viewBox="0 0 1500 1499.999933" height="2000" preserveAspectRatio="xMidYMid meet" version="1.0"><path fill="#ffffff" d="M 1283.144531 1266.441406 C 1269.78125 1266.441406 1258.644531 1255.621094 1258.644531 1241.9375 L 1258.644531 1033.199219 L 241.671875 1033.199219 L 241.671875 1242.257812 C 241.671875 1255.621094 230.855469 1266.757812 217.171875 1266.757812 C 203.488281 1266.757812 192.671875 1255.941406 192.671875 1242.257812 L 192.671875 1008.699219 C 192.671875 995.332031 203.488281 984.195312 217.171875 984.195312 L 1283.144531 984.195312 C 1296.511719 984.195312 1307.648438 995.015625 1307.648438 1008.699219 L 1307.648438 1242.257812 C 1307.648438 1255.621094 1296.511719 1266.441406 1283.144531 1266.441406 Z M 1283.144531 1266.441406 " fill-opacity="1" fill-rule="nonzero"/><path fill="#ffffff" d="M 1428.5625 1500 L 71.753906 1500 C 58.390625 1500 47.253906 1489.179688 47.253906 1475.5 L 47.253906 1241.9375 C 47.253906 1228.574219 58.070312 1217.4375 71.753906 1217.4375 L 1428.246094 1217.4375 C 1441.609375 1217.4375 1452.746094 1228.257812 1452.746094 1241.9375 L 1452.746094 1475.5 C 1452.746094 1488.863281 1441.929688 1500 1428.5625 1500 Z M 96.253906 1450.996094 L 1404.0625 1450.996094 L 1404.0625 1266.441406 L 96.253906 1266.441406 Z M 96.253906 1450.996094 " fill-opacity="1" fill-rule="nonzero"/><path fill="#ffffff" d="M 1144.09375 1033.199219 C 1130.726562 1033.199219 1119.589844 1022.378906 1119.589844 1008.699219 L 1119.589844 411.753906 C 1119.589844 162.28125 928.035156 49.003906 749.839844 49.003906 C 571.964844 49.003906 380.089844 162.601562 380.089844 411.753906 L 380.089844 1008.699219 C 380.089844 1022.0625 369.273438 1033.199219 355.589844 1033.199219 C 341.90625 1033.199219 331.089844 1022.378906 331.089844 1008.699219 L 331.089844 411.753906 C 331.089844 284.789062 376.589844 177.875 462.503906 102.777344 C 539.191406 36.59375 641.015625 0 750.160156 0 C 859.300781 0 961.125 36.59375 1037.175781 102.777344 C 1123.089844 177.875 1168.59375 284.789062 1168.59375 411.753906 L 1168.59375 1008.699219 C 1168.59375 1022.0625 1157.773438 1033.199219 1144.09375 1033.199219 Z M 1144.09375 1033.199219 " fill-opacity="1" fill-rule="nonzero"/><path fill="#ffffff" d="M 996.765625 481.4375 L 503.554688 481.4375 C 490.1875 481.4375 479.050781 470.621094 479.050781 456.9375 L 479.050781 263.152344 C 479.050781 249.789062 489.871094 238.652344 503.554688 238.652344 L 996.765625 238.652344 C 1010.128906 238.652344 1021.265625 249.46875 1021.265625 263.152344 L 1021.265625 457.253906 C 1021.265625 470.621094 1010.449219 481.4375 996.765625 481.4375 Z M 528.054688 432.753906 L 972.582031 432.753906 L 972.582031 287.652344 L 528.054688 287.652344 Z M 528.054688 432.753906 " fill-opacity="1" fill-rule="nonzero"/><path fill="#ffffff" d="M 948.398438 637.992188 L 551.917969 637.992188 C 538.554688 637.992188 527.417969 627.175781 527.417969 613.492188 C 527.417969 599.808594 538.238281 588.988281 551.917969 588.988281 L 948.398438 588.988281 C 961.761719 588.988281 972.898438 599.808594 972.898438 613.492188 C 972.898438 627.175781 961.761719 637.992188 948.398438 637.992188 Z M 948.398438 637.992188 " fill-opacity="1" fill-rule="nonzero"/><path fill="#ffffff" d="M 1014.585938 794.230469 L 485.734375 794.230469 C 472.371094 794.230469 461.234375 783.410156 461.234375 769.726562 C 461.234375 756.046875 472.050781 745.226562 485.734375 745.226562 L 1014.265625 745.226562 C 1027.628906 745.226562 1038.765625 756.046875 1038.765625 769.726562 C 1038.765625 783.410156 1027.949219 794.230469 1014.585938 794.230469 Z M 1014.585938 794.230469 " fill-opacity="1" fill-rule="nonzero"/></svg>