<svg xmlns="http://www.w3.org/2000/svg" xmlns:xlink="http://www.w3.org/1999/xlink" width="2000" zoomAndPan="magnify" viewBox="0 0 1500 1499.999933" height="2000" preserveAspectRatio="xMidYMid meet" version="1.0"><defs><clipPath id="1b6e34bfb5"><path d="M 42 78.191406 L 1460 78.191406 L 1460 1421.441406 L 42 1421.441406 Z M 42 78.191406 " clip-rule="nonzero"/></clipPath><clipPath id="2cc8be6d9f"><path d="M 2 0.191406 L 1417.679688 0.191406 L 1417.679688 1343.441406 L 2 1343.441406 Z M 2 0.191406 " clip-rule="nonzero"/></clipPath><clipPath id="8b391e6436"><rect x="0" width="1418" y="0" height="1344"/></clipPath></defs><g clip-path="url(#1b6e34bfb5)"><g transform="matrix(1, 0, 0, 1, 42, 78)"><g clip-path="url(#8b391e6436)"><g clip-path="url(#2cc8be6d9f)"><path fill="#ffffff" d="M 4.109375 654.203125 L 30.164062 327.734375 C 44.820312 144.003906 195.167969 0.078125 372.476562 0.078125 L 1048.019531 0.078125 C 1225.328125 0.078125 1375.675781 144.003906 1390.328125 327.734375 L 1416.386719 654.203125 C 1424.5625 756.3125 1390.074219 857.34375 1321.777344 931.300781 C 1256.421875 1002.058594 1168.488281 1041.046875 1074.074219 1041.046875 L 733.972656 1041.046875 L 370.496094 1320.605469 C 350.605469 1335.910156 327.492188 1343.664062 304.234375 1343.664062 C 285.136719 1343.664062 265.898438 1338.429688 248.246094 1327.933594 C 208.410156 1304.140625 187.585938 1258.871094 195.140625 1212.554688 L 226.855469 1017.335938 C 83.894531 961.96875 -8.625 813.601562 4.109375 654.203125 Z M 270.144531 967.089844 C 285.054688 971.476562 294.277344 986.246094 291.757812 1001.523438 L 255.828125 1222.375 C 251.613281 1248.203125 265.445312 1266.511719 279.789062 1275.054688 C 297.078125 1285.4375 317.023438 1284.136719 333.007812 1271.800781 L 704.773438 985.875 C 710.121094 981.746094 716.710938 979.511719 723.503906 979.511719 L 1074.046875 979.511719 C 1151.117188 979.511719 1223.007812 947.566406 1276.59375 889.539062 C 1333.234375 828.144531 1361.894531 744.171875 1355.105469 659.125 L 1329.046875 332.65625 C 1316.910156 180.640625 1193.414062 61.585938 1047.988281 61.585938 L 372.476562 61.585938 C 227.054688 61.585938 103.554688 180.640625 91.417969 332.65625 L 65.363281 659.125 C 54.214844 799.144531 140.335938 928.640625 270.144531 967.089844 Z M 270.144531 967.089844 " fill-opacity="1" fill-rule="nonzero"/></g><path fill="#ffffff" d="M 402.722656 579.539062 L 1017.800781 579.539062 C 1034.804688 579.539062 1048.554688 593.289062 1048.554688 610.292969 C 1048.554688 627.296875 1034.804688 641.046875 1017.800781 641.046875 L 402.722656 641.046875 C 385.71875 641.046875 371.96875 627.296875 371.96875 610.292969 C 371.96875 593.289062 385.71875 579.539062 402.722656 579.539062 Z M 402.722656 579.539062 " fill-opacity="1" fill-rule="nonzero"/><path fill="#ffffff" d="M 1017.800781 395.015625 L 648.753906 395.015625 C 631.75 395.015625 618 381.265625 618 364.261719 C 618 347.257812 631.75 333.507812 648.753906 333.507812 L 1017.800781 333.507812 C 1034.804688 333.507812 1048.554688 347.257812 1048.554688 364.261719 C 1048.554688 381.265625 1034.804688 395.015625 1017.800781 395.015625 Z M 1017.800781 395.015625 " fill-opacity="1" fill-rule="nonzero"/></g></g></g></svg>