<svg xmlns="http://www.w3.org/2000/svg" xmlns:xlink="http://www.w3.org/1999/xlink" width="2000" zoomAndPan="magnify" viewBox="0 0 1500 1499.999933" height="2000" preserveAspectRatio="xMidYMid meet" version="1.0"><defs><clipPath id="3bfc872e0c"><path d="M 59.113281 139.429688 L 1440.613281 139.429688 L 1440.613281 1360.429688 L 59.113281 1360.429688 Z M 59.113281 139.429688 " clip-rule="nonzero"/></clipPath></defs><g clip-path="url(#3bfc872e0c)"><path fill="#09497a" d="M 1426.828125 523.144531 L 1354.1875 508.800781 C 1353.585938 480.945312 1352.894531 453.09375 1352.089844 425.382812 C 1351.832031 416.527344 1344.933594 409.3125 1336.105469 408.679688 C 1215.664062 399.941406 1087.695312 413.109375 983.609375 444.726562 C 983.722656 439.984375 983.78125 435.214844 983.695312 430.414062 C 981.421875 309.109375 888.519531 186.425781 772.1875 151.097656 C 656.546875 116 519.808594 164.378906 447.082031 266.136719 C 413.96875 312.472656 396.003906 368.554688 393.246094 425.324219 C 313.621094 414.285156 259.550781 408.59375 161.761719 428.746094 C 153.828125 430.382812 148.078125 437.3125 147.992188 445.417969 L 147.160156 512.765625 C 127.007812 514.347656 86.304688 519.550781 65.464844 536.25 C 61.296875 539.585938 58.910156 544.644531 59 549.992188 C 59.804688 598.628906 60.78125 645.710938 61.730469 691.246094 C 65.320312 864.71875 68.742188 1028.566406 60.261719 1215.496094 C 60.121094 1218.65625 60.867188 1221.761719 62.332031 1224.464844 C 62.878906 1234.121094 62.417969 1244.554688 61.871094 1255.566406 C 61.183594 1269.21875 60.464844 1283.332031 61.871094 1296.898438 C 62.765625 1305.550781 69.949219 1312.222656 78.660156 1312.394531 C 151.527344 1313.917969 238.195312 1314.492188 322.015625 1315.039062 C 405.71875 1315.585938 492.269531 1316.160156 564.878906 1317.683594 C 585.605469 1318.113281 609.089844 1318.601562 627.113281 1328.003906 C 632.574219 1330.847656 638.007812 1334.730469 643.726562 1338.839844 C 654.019531 1346.199219 665.6875 1354.535156 680.207031 1358.328125 C 686.183594 1359.878906 692.046875 1360.570312 697.769531 1360.570312 C 722.605469 1360.570312 744.996094 1347.492188 765.203125 1335.707031 C 772.707031 1331.335938 779.804688 1327.199219 786.792969 1323.777344 C 816.285156 1309.40625 850.949219 1306.5 884.496094 1303.714844 C 1039.660156 1290.777344 1400.726562 1327.972656 1404.347656 1328.347656 C 1409.148438 1328.835938 1413.976562 1327.3125 1417.597656 1324.09375 C 1421.222656 1320.875 1423.320312 1316.273438 1423.378906 1311.445312 C 1423.378906 1311.445312 1424.066406 1261.890625 1424.410156 1239.035156 C 1424.410156 1238.175781 1424.355469 1237.339844 1424.238281 1236.507812 L 1440.769531 540.476562 C 1440.941406 532.082031 1435.074219 524.753906 1426.828125 523.144531 Z M 1405.898438 554.160156 L 1389.917969 1226.332031 C 1312.996094 1206.152344 1199.769531 1192.929688 1073.980469 1189.652344 C 1014.996094 1188.101562 959.175781 1188.964844 909.792969 1191.980469 C 1046.816406 1151.910156 1218.597656 1134.722656 1332.542969 1136.761719 C 1341.796875 1137.019531 1349.644531 1129.632812 1350.078125 1120.320312 C 1357.234375 964.667969 1358.902344 755.777344 1354.90625 544.128906 Z M 475.109375 286.171875 C 506.15625 242.738281 552.320312 208.53125 605.066406 189.875 C 657.554688 171.304688 713.320312 169.265625 762.128906 184.070312 C 865.007812 215.3125 947.160156 323.796875 949.171875 431.015625 C 951.011719 529.382812 897.257812 644.878906 772.992188 681.125 C 627.832031 723.46875 522.914062 662.757812 473.125 591.785156 C 411.007812 503.222656 411.8125 374.675781 475.109375 286.171875 Z M 389.449219 459.617188 C 390.800781 459.789062 392.09375 459.820312 393.386719 459.703125 C 396.609375 513.972656 413.738281 567.238281 444.898438 611.648438 C 482.355469 665.027344 535.847656 702.109375 599.574219 718.898438 C 625.675781 725.765625 652.925781 729.1875 680.78125 729.1875 C 714.324219 729.1875 748.648438 724.214844 782.679688 714.296875 C 812.085938 705.703125 839.078125 692.59375 863.109375 675.808594 L 924.363281 744.625 C 911.402344 758.277344 899.183594 776.042969 897.632812 799.269531 C 895.503906 831.492188 914.5625 860.378906 932.585938 884.898438 C 976.480469 944.632812 1024.253906 1002.378906 1074.558594 1056.5625 C 1089.9375 1073.121094 1110.429688 1082.0625 1130.550781 1082.0625 C 1139.78125 1082.0625 1148.890625 1080.191406 1157.429688 1076.3125 C 1189.421875 1061.796875 1212.074219 1042.765625 1230.84375 1014.710938 C 1237.539062 1004.679688 1244.898438 990.996094 1242.023438 974.410156 C 1240.070312 963.054688 1233.746094 953.914062 1229.117188 947.246094 C 1179.851562 875.988281 1126.183594 806.683594 1069.640625 741.230469 C 1054.207031 723.382812 1035.695312 703.976562 1011.03125 699.78125 C 985.101562 695.355469 964.207031 709.355469 949.773438 721.339844 L 890.101562 654.308594 C 938.652344 610.328125 970.988281 549.300781 980.675781 480.285156 C 982.890625 480.488281 985.1875 480.285156 987.460938 479.566406 C 1084.273438 449.15625 1203.910156 435.671875 1318.054688 442.082031 C 1324.582031 679.316406 1323.949219 923.332031 1316.359375 1102.125 C 1182.09375 1102.152344 918.644531 1128.484375 768.855469 1210.75 C 765.664062 1211.554688 762.558594 1212.390625 759.597656 1213.253906 C 754.625 1214.691406 750.804688 1218.195312 748.761719 1222.566406 C 748.648438 1222.625 748.53125 1222.710938 748.417969 1222.765625 C 749.539062 1173.902344 750.773438 1133.140625 751.953125 1093.53125 C 754.855469 997.894531 757.355469 915.3125 756.867188 757.675781 C 756.839844 748.160156 749.078125 740.339844 739.5625 740.484375 C 730.050781 740.511719 722.34375 748.273438 722.375 757.789062 C 722.863281 914.851562 720.390625 997.175781 717.488281 1092.496094 C 716.136719 1136.5625 714.785156 1182.035156 713.578125 1238.492188 C 707.425781 1234.925781 701.332031 1231.449219 695.269531 1228.054688 C 693.113281 1225.757812 690.324219 1224.003906 687.046875 1223.140625 C 686.730469 1223.054688 686.386719 1222.96875 686.070312 1222.882812 C 508.714844 1125.003906 359.957031 1091.519531 174.265625 1106.492188 L 182.285156 459.820312 C 266.507812 443.921875 314.570312 449.210938 389.449219 459.617188 Z M 1143.171875 1044.894531 C 1129.746094 1050.988281 1111.925781 1046.128906 1099.824219 1033.078125 C 1054.636719 984.386719 1011.546875 932.757812 971.535156 879.410156 C 973.230469 879.007812 974.898438 878.375 976.449219 877.425781 C 1012.121094 855.925781 1045.4375 830.542969 1075.734375 801.914062 C 1119.6875 855.003906 1161.652344 910.28125 1200.746094 966.851562 C 1203.679688 971.105469 1207.359375 976.394531 1208.019531 980.246094 C 1208.625 983.808594 1206.8125 988.523438 1202.128906 995.539062 C 1186.980469 1018.246094 1169.328125 1033.023438 1143.171875 1044.894531 Z M 958.65625 847.875 C 956.15625 849.398438 954.171875 851.441406 952.765625 853.796875 C 941.09375 836.894531 930.949219 818.527344 932.070312 801.511719 C 933.277344 783 947.707031 768.914062 965.039062 753.707031 C 979.46875 741 990.421875 733.414062 1001.316406 733.414062 C 1002.636719 733.414062 1003.960938 733.527344 1005.28125 733.757812 C 1018.675781 736.058594 1032.101562 750.457031 1043.597656 763.769531 C 1046.933594 767.621094 1050.238281 771.558594 1053.542969 775.4375 C 1024.628906 802.945312 992.777344 827.292969 958.65625 847.875 Z M 146.699219 547.375 L 139.570312 1125.121094 C 139.511719 1130.035156 141.523438 1134.722656 145.148438 1138.027344 C 148.769531 1141.332031 153.597656 1143 158.484375 1142.480469 C 265.53125 1132.105469 357.054688 1137.941406 446.59375 1160.878906 C 480.140625 1169.472656 513.914062 1180.683594 548.753906 1194.796875 C 400.460938 1172.261719 244.171875 1172.347656 95.621094 1195.746094 C 102.949219 1016.464844 99.671875 857.964844 96.195312 690.496094 C 95.304688 648.039062 94.410156 604.234375 93.636719 559.105469 C 106.859375 552.75 129.050781 548.984375 146.699219 547.375 Z M 881.5625 1269.332031 C 846.582031 1272.238281 806.914062 1275.542969 771.613281 1292.761719 C 763.449219 1296.726562 755.460938 1301.414062 747.753906 1305.898438 C 726.828125 1318.113281 707.082031 1329.640625 688.886719 1324.925781 C 680.550781 1322.742188 672.386719 1316.933594 663.792969 1310.753906 C 657.351562 1306.128906 650.65625 1301.355469 643.066406 1297.390625 C 617.886719 1284.253906 588.882812 1283.648438 565.597656 1283.160156 C 492.730469 1281.636719 406.066406 1281.0625 322.246094 1280.515625 C 244.691406 1280 164.664062 1279.480469 95.5625 1278.1875 C 95.621094 1271.488281 95.964844 1264.503906 96.308594 1257.261719 C 96.742188 1248.4375 97.199219 1239.410156 97.085938 1230.441406 C 287.550781 1199.855469 491.265625 1208.566406 673.304688 1255.164062 C 686.5 1262.519531 699.894531 1270.226562 713.605469 1278.359375 C 716.335938 1280 719.382812 1280.804688 722.429688 1280.804688 C 726.570312 1280.804688 730.679688 1279.308594 733.929688 1276.40625 C 736.171875 1274.394531 738.527344 1272.410156 740.941406 1270.453125 C 741.203125 1270.253906 741.433594 1270.082031 741.660156 1269.878906 C 753.390625 1260.394531 766.898438 1251.425781 781.933594 1243.003906 C 843.90625 1228.171875 953.253906 1220.984375 1073.121094 1224.117188 C 1199.28125 1227.421875 1316.015625 1241.453125 1389.542969 1261.976562 C 1389.402344 1272.324219 1389.226562 1283.246094 1389.113281 1292.15625 C 1311.730469 1284.539062 1021.121094 1257.691406 881.5625 1269.332031 Z M 881.5625 1269.332031 " fill-opacity="1" fill-rule="nonzero"/></g><path fill="#09497a" d="M 599.519531 639.128906 C 623.519531 648.816406 649.304688 653.445312 675.375 653.445312 C 739.160156 653.445312 804.410156 625.648438 847.902344 575.949219 C 877.339844 542.289062 895.535156 498.507812 899.15625 452.605469 C 902.71875 407.617188 892.226562 362.375 869.632812 325.234375 C 813.410156 232.820312 732.089844 199.9375 627.917969 227.472656 C 539.816406 250.785156 482.640625 319.746094 474.964844 411.902344 C 471.230469 456.828125 481.117188 504.488281 502.820312 546.140625 C 525.789062 590.207031 560.109375 623.203125 599.519531 639.128906 Z M 509.375 414.804688 C 515.753906 337.824219 563.386719 280.277344 636.773438 260.875 C 658.070312 255.242188 677.933594 252.394531 696.503906 252.394531 C 756.523438 252.394531 803.003906 282.089844 840.171875 343.199219 C 879.492188 407.875 871.820312 496.210938 821.917969 553.269531 C 770.03125 612.570312 681.929688 635.25 612.425781 607.164062 C 547.863281 581.066406 502.589844 496.582031 509.375 414.804688 Z M 509.375 414.804688 " fill-opacity="1" fill-rule="nonzero"/><path fill="#09497a" d="M 598.339844 491.554688 C 602.738281 491.554688 607.136719 489.886719 610.5 486.550781 L 729.332031 368.609375 C 736.085938 361.914062 736.144531 350.992188 729.417969 344.207031 C 722.71875 337.453125 711.796875 337.394531 705.011719 344.121094 L 586.179688 462.0625 C 579.425781 468.757812 579.367188 479.679688 586.09375 486.464844 C 589.484375 489.855469 593.914062 491.554688 598.339844 491.554688 Z M 598.339844 491.554688 " fill-opacity="1" fill-rule="nonzero"/><path fill="#09497a" d="M 668.332031 480.601562 C 661.40625 487.125 661.0625 498.050781 667.585938 504.976562 C 670.976562 508.570312 675.546875 510.410156 680.148438 510.410156 C 684.402344 510.410156 688.628906 508.859375 691.960938 505.722656 L 748.90625 452.113281 C 755.832031 445.589844 756.179688 434.667969 749.652344 427.738281 C 743.128906 420.8125 732.203125 420.46875 725.277344 426.992188 Z M 668.332031 480.601562 " fill-opacity="1" fill-rule="nonzero"/></svg>