<svg xmlns="http://www.w3.org/2000/svg" xmlns:xlink="http://www.w3.org/1999/xlink" width="2000" zoomAndPan="magnify" viewBox="0 0 1500 1499.999933" height="2000" preserveAspectRatio="xMidYMid meet" version="1.0"><defs><clipPath id="3f00c2d627"><path d="M 100.625 9 L 925 9 L 925 795 L 100.625 795 Z M 100.625 9 " clip-rule="nonzero"/></clipPath><clipPath id="65bd1d8321"><path d="M 575 705 L 1399.625 705 L 1399.625 1491 L 575 1491 Z M 575 705 " clip-rule="nonzero"/></clipPath></defs><path fill="#09497a" d="M 1145.542969 750.078125 C 1145.542969 531.957031 968.117188 354.53125 749.996094 354.53125 C 531.875 354.53125 354.449219 531.957031 354.449219 750.078125 C 354.449219 968.199219 531.875 1145.625 749.996094 1145.625 C 968.117188 1145.625 1145.542969 968.199219 1145.542969 750.078125 Z M 444.410156 750.078125 C 444.410156 581.539062 581.457031 444.492188 749.996094 444.492188 C 918.535156 444.492188 1055.582031 581.539062 1055.582031 750.078125 C 1055.582031 918.617188 918.535156 1055.664062 749.996094 1055.664062 C 581.457031 1055.664062 444.410156 918.617188 444.410156 750.078125 Z M 444.410156 750.078125 " fill-opacity="1" fill-rule="nonzero"/><g clip-path="url(#3f00c2d627)"><path fill="#09497a" d="M 705.875 191.601562 L 705.875 245.238281 C 705.875 272.519531 736.277344 288.582031 758.882812 273.457031 L 909.183594 172.582031 C 929.292969 159.171875 929.292969 129.550781 909.183594 116.140625 L 758.882812 15.265625 C 736.277344 0.144531 705.875 16.359375 705.875 43.488281 L 705.875 101.019531 C 368.324219 124.25 100.625 406.136719 100.625 749.609375 C 100.625 774.398438 120.738281 794.511719 145.527344 794.511719 C 170.316406 794.511719 190.429688 774.398438 190.429688 749.609375 C 190.585938 455.871094 417.90625 214.679688 705.875 191.601562 Z M 705.875 191.601562 " fill-opacity="1" fill-rule="nonzero"/></g><g clip-path="url(#65bd1d8321)"><path fill="#09497a" d="M 1399.367188 750.703125 C 1399.367188 725.910156 1379.253906 705.800781 1354.464844 705.800781 C 1329.675781 705.800781 1309.5625 725.910156 1309.5625 750.703125 C 1309.5625 1044.4375 1082.242188 1285.632812 794.273438 1308.550781 L 794.273438 1254.917969 C 794.273438 1227.632812 763.871094 1211.574219 741.265625 1226.699219 L 590.964844 1327.417969 C 570.855469 1340.824219 570.855469 1370.449219 590.964844 1383.859375 L 741.265625 1484.730469 C 763.871094 1499.855469 794.273438 1483.640625 794.273438 1456.511719 L 794.273438 1398.824219 C 1131.667969 1375.90625 1399.367188 1094.019531 1399.367188 750.703125 Z M 1399.367188 750.703125 " fill-opacity="1" fill-rule="nonzero"/></g><path fill="#09497a" d="M 930.230469 620.984375 C 912.613281 603.363281 884.234375 603.363281 866.617188 620.984375 L 703.847656 783.753906 L 633.21875 713.125 C 615.601562 695.507812 587.222656 695.507812 569.605469 713.125 C 551.988281 730.746094 551.988281 759.121094 569.605469 776.738281 L 672.039062 879.171875 C 680.460938 887.589844 691.839844 892.425781 703.847656 892.425781 C 715.851562 892.425781 727.234375 887.746094 735.652344 879.171875 L 930.230469 684.59375 C 947.847656 666.976562 947.847656 638.601562 930.230469 620.984375 Z M 930.230469 620.984375 " fill-opacity="1" fill-rule="nonzero"/></svg>