<svg xmlns="http://www.w3.org/2000/svg" xmlns:xlink="http://www.w3.org/1999/xlink" width="2000" zoomAndPan="magnify" viewBox="0 0 1500 1499.999933" height="2000" preserveAspectRatio="xMidYMid meet" version="1.0"><defs><clipPath id="1203fc991f"><path d="M 36.878906 36.878906 L 1463.378906 36.878906 L 1463.378906 1463.378906 L 36.878906 1463.378906 Z M 36.878906 36.878906 " clip-rule="nonzero"/></clipPath></defs><g clip-path="url(#1203fc991f)"><path fill="#747474" d="M 1270.550781 520.332031 C 1245.550781 526.363281 1238.316406 562.425781 1237.96875 582.800781 C 1237.296875 627.828125 1267.125 668.90625 1326.601562 704.925781 C 1339.742188 712.914062 1357.773438 723.894531 1374.359375 723.875 C 1380.550781 723.875 1386.542969 722.347656 1392.023438 718.558594 C 1415.027344 702.625 1404.796875 662.261719 1401.132812 650.28125 C 1401.070312 650.097656 1401.007812 649.914062 1400.949219 649.730469 C 1394.570312 629.214844 1385.035156 619.558594 1364.394531 598.613281 C 1357.183594 591.296875 1348.21875 582.210938 1337.257812 570.496094 C 1330.085938 562.832031 1324.113281 556.253906 1319.019531 550.648438 C 1298.21875 527.707031 1287.746094 516.195312 1270.550781 520.351562 Z M 1342.613281 620.046875 C 1362.90625 640.625 1367.839844 646.003906 1371.894531 659.226562 C 1371.953125 659.390625 1371.996094 659.550781 1372.054688 659.714844 C 1375.949219 672.714844 1377.171875 689.136719 1374.582031 693.3125 C 1368.207031 694.351562 1348.910156 682.699219 1342.472656 678.765625 C 1292.921875 648.773438 1268.042969 616.621094 1268.554688 583.25 C 1268.796875 567.886719 1273.625 555.070312 1276.96875 550.976562 C 1280.941406 554.09375 1288.5 562.40625 1296.40625 571.144531 C 1301.582031 576.851562 1307.671875 583.554688 1314.945312 591.335938 C 1326.191406 603.339844 1335.300781 612.589844 1342.636719 620.023438 Z M 1092.984375 124.941406 C 1092.085938 124.207031 1091.128906 123.554688 1090.03125 123.023438 C 1089.519531 122.78125 1088.992188 122.636719 1088.480469 122.453125 C 1031.65625 91.667969 970.183594 68.421875 905.433594 53.976562 C 904.660156 53.730469 903.886719 53.585938 903.089844 53.464844 C 853.765625 42.625 802.542969 36.859375 749.996094 36.859375 C 726.21875 36.859375 702.707031 38.0625 679.5 40.34375 C 679.5 40.34375 679.457031 40.34375 679.4375 40.34375 C 679.398438 40.34375 679.355469 40.34375 679.316406 40.34375 C 548.753906 53.242188 428.421875 101.53125 328.074219 175.429688 C 326.40625 176.222656 324.898438 177.324219 323.59375 178.6875 C 193.664062 275.957031 97.902344 416.441406 57.746094 578.625 C 57.214844 579.929688 56.910156 581.292969 56.765625 582.660156 C 43.808594 636.367188 36.878906 692.398438 36.878906 750.015625 C 36.878906 1143.226562 356.785156 1463.132812 749.996094 1463.132812 C 1143.207031 1463.132812 1463.109375 1143.226562 1463.109375 750.015625 C 1463.109375 481.050781 1313.417969 246.414062 1092.984375 124.960938 Z M 1432.488281 745.085938 C 1409.914062 753.011719 1373.378906 770.820312 1353.496094 807.308594 C 1345.546875 821.878906 1341.003906 838.542969 1339.988281 856.882812 C 1339.3125 865.644531 1339.355469 874.445312 1339.394531 882.960938 C 1339.457031 896.917969 1339.519531 910.101562 1336.542969 922.222656 C 1333.179688 936.75 1325.335938 949.972656 1317.023438 963.992188 C 1312.785156 971.144531 1308.386719 978.539062 1304.617188 986.078125 C 1298.605469 997.527344 1294.0625 1009.570312 1289.679688 1021.203125 C 1283.648438 1037.199219 1277.945312 1052.316406 1268.960938 1065.214844 C 1251.824219 1089.457031 1219.753906 1119.042969 1185.527344 1123.015625 C 1185.117188 1123.015625 1184.710938 1123.015625 1184.304688 1123.015625 C 1151.417969 1123.015625 1140.742188 1095.511719 1124.910156 1047.464844 L 1122.242188 1039.398438 L 1120.386719 1033.367188 C 1110.566406 1001.398438 1100.421875 968.332031 1104.699219 937.300781 C 1114.03125 877.96875 1108.101562 863.910156 1090.496094 822.121094 C 1088.316406 816.925781 1085.914062 811.242188 1083.429688 805.171875 C 1081.429688 800.035156 1079.738281 794.617188 1077.96875 788.890625 C 1072.691406 771.816406 1066.699219 752.480469 1050.074219 738.363281 C 1049.871094 738.199219 1049.6875 738.035156 1049.484375 737.894531 C 1022.855469 717.476562 990.171875 719.535156 961.34375 721.371094 C 944.351562 722.429688 928.292969 723.449219 914.523438 720.351562 C 874.566406 710.898438 857.167969 678.886719 850.363281 660.671875 C 836.464844 623.53125 841.417969 580.152344 862.953125 550.179688 C 863.074219 550.019531 863.199219 549.835938 863.300781 549.652344 C 869.820312 539.730469 877.542969 530.5 885.730469 520.738281 C 888.707031 517.171875 891.679688 513.628906 894.535156 510.125 C 897 507.128906 899.445312 504.09375 901.867188 501.058594 C 913.707031 486.347656 924.871094 472.429688 939.132812 463.199219 C 955.433594 452.730469 973.914062 449.304688 995.308594 445.332031 C 1000.378906 444.394531 1005.554688 443.4375 1010.527344 442.417969 C 1019.898438 440.667969 1031.636719 438.488281 1041.4375 438.730469 C 1057.265625 438.875 1067.394531 447.613281 1082.511719 461.898438 C 1110.078125 490.929688 1142.65625 487.589844 1174.175781 484.371094 L 1176.152344 484.167969 C 1189.925781 482.660156 1204.148438 481.109375 1219.125 482.273438 C 1222.914062 482.515625 1226.722656 482.84375 1230.574219 483.1875 C 1239.945312 484.023438 1249.644531 484.878906 1259.363281 484.492188 C 1269.347656 484.167969 1278.78125 482.375 1286.664062 479.316406 C 1301.886719 473.386719 1311.910156 463.039062 1314.191406 450.957031 C 1315.3125 445.027344 1315.414062 433.414062 1303.210938 422.144531 C 1293.371094 413.464844 1280.921875 408.738281 1269.957031 404.582031 C 1264.355469 402.464844 1259.078125 400.46875 1254.453125 398.0625 C 1246.914062 394.273438 1239.925781 388.546875 1233.773438 383.476562 C 1229.65625 380.09375 1225.765625 376.875 1221.894531 374.429688 C 1213.90625 369.109375 1204.371094 367.460938 1195.203125 369.742188 C 1191.84375 370.535156 1188.765625 371.554688 1185.789062 372.535156 C 1180.332031 374.347656 1175.601562 375.894531 1172.121094 374.9375 C 1170.144531 374.429688 1166.515625 372.820312 1160.464844 368.050781 C 1159.996094 367.683594 1159.507812 367.339844 1159 367.03125 C 1157.816406 366.15625 1154.453125 363.203125 1151.722656 360.816406 C 1130.757812 342.417969 1119.59375 334.105469 1107.855469 337.121094 C 1102.132812 338.609375 1097.691406 342.683594 1095.671875 348.328125 C 1095.449219 348.941406 1095.265625 349.570312 1095.125 350.222656 C 1094.125 354.789062 1094.839844 359.371094 1096.632812 365.605469 C 1093.023438 363.648438 1089.378906 361.695312 1085.894531 360.105469 C 1065.070312 350.570312 1042.191406 348.53125 1009.367188 353.320312 C 987.667969 356.5 976.316406 362.691406 967.191406 367.683594 C 959.101562 372.105469 953.742188 375.039062 941.292969 375.652344 C 917.171875 376.914062 895.308594 368.582031 892.578125 360.574219 C 891.84375 358.414062 892.089844 355.417969 893.109375 353.808594 C 894.839844 351.078125 903.375 350.019531 910.894531 349.101562 C 915.398438 348.550781 920.0625 347.960938 924.972656 346.984375 C 926.808594 346.617188 928.601562 346.332031 930.375 346.027344 C 949.160156 342.949219 964.746094 338.203125 994.1875 304.828125 C 1014.277344 282.089844 1040.660156 264.242188 1066.882812 255.765625 C 1073.503906 253.484375 1082.347656 252.242188 1091.71875 250.957031 C 1117.085938 247.433594 1148.648438 243.050781 1159.996094 212.410156 C 1160.097656 212.101562 1160.199219 211.796875 1160.300781 211.492188 C 1160.894531 209.535156 1161.238281 207.621094 1161.421875 205.746094 C 1324.785156 329.5625 1430.917969 525.097656 1432.488281 745.066406 Z M 1090.457031 158.578125 C 1104.128906 166.464844 1117.472656 174.816406 1130.535156 183.621094 C 1126.824219 184.820312 1123.035156 186.511719 1119.082031 188.285156 C 1112.503906 191.238281 1105.046875 194.582031 1099.566406 194.742188 C 1099.339844 194.742188 1099.097656 194.742188 1098.871094 194.785156 C 1096.507812 194.96875 1093.777344 193.867188 1091.394531 191.769531 C 1088.316406 189.078125 1086.28125 185.148438 1086.097656 181.5625 C 1086.097656 181.195312 1086.035156 180.828125 1085.996094 180.460938 C 1085.242188 174.492188 1087.625 166.078125 1090.5 158.578125 Z M 871.9375 78.363281 C 862.21875 88.429688 852.683594 96.476562 842.742188 102.996094 C 832.351562 109.902344 820.289062 114.9375 807.511719 120.253906 C 798.753906 123.902344 789.707031 127.671875 781.25 132.070312 C 768.109375 138.734375 754.925781 147.78125 740.96875 159.71875 C 738.28125 161.898438 735.550781 164.242188 732.777344 166.667969 C 721.980469 176 710.816406 185.636719 700.445312 185.839844 C 689.097656 185.371094 685.816406 170.804688 685.082031 166.300781 C 683.023438 153.871094 686.019531 140.464844 689.175781 126.265625 L 689.257812 125.878906 C 693.597656 108.070312 695.71875 89.527344 695.757812 69.582031 C 713.667969 68.175781 731.738281 67.421875 750.015625 67.421875 C 791.621094 67.421875 832.390625 71.171875 871.960938 78.34375 Z M 336.347656 207.457031 C 342.847656 211.289062 349.53125 215.871094 356.089844 220.375 C 376.121094 234.128906 396.800781 248.371094 418.640625 246.292969 C 418.988281 246.25 419.3125 246.210938 419.660156 246.148438 C 439.628906 242.890625 452.382812 227.914062 462.609375 215.894531 C 464.199219 214.019531 465.769531 212.164062 467.359375 210.390625 C 467.542969 210.1875 467.703125 209.984375 467.886719 209.761719 C 491.214844 180.480469 507.964844 176.203125 536.589844 192.300781 C 551.996094 201.957031 572.125 218.214844 581.292969 241.074219 C 584.859375 250.835938 585.410156 257.90625 582.820312 260.535156 C 577.542969 265.097656 567.601562 267.582031 558.003906 269.988281 C 552.75 271.3125 547.308594 272.675781 542.171875 274.46875 C 530.621094 278.199219 520.515625 285.757812 513.691406 295.78125 C 513.425781 296.167969 513.199219 296.554688 512.976562 296.945312 C 496.941406 325.710938 484.675781 331.070312 466.09375 339.199219 C 453.992188 344.5 440.257812 350.488281 423.410156 363.304688 C 402.058594 379.910156 384.023438 395.660156 366.664062 412.855469 L 363.121094 416.378906 C 350.589844 428.769531 337.632812 441.605469 328.871094 457.78125 C 323.53125 467.214844 319.785156 477.363281 316.175781 487.183594 C 314.589844 491.480469 313.101562 495.554688 311.632812 499.121094 C 311.023438 500.570312 310.492188 501.667969 310.066406 502.484375 C 306.925781 500.875 302.363281 497.816406 298.246094 495.066406 C 286.53125 487.242188 271.945312 477.503906 256.050781 475.34375 C 215.710938 468.945312 177.957031 498.367188 162.753906 529.480469 C 157.011719 540.625 152.464844 558.941406 158.457031 574.222656 C 162.144531 583.636719 169.113281 590.402344 178.402344 593.722656 C 191.605469 598.652344 205.5625 596.777344 217.890625 595.128906 C 223.1875 594.414062 228.199219 593.742188 232.476562 593.703125 C 232.621094 593.703125 232.761719 593.703125 232.90625 593.703125 C 240.078125 593.414062 243.359375 597.144531 250.957031 614.625 C 251.914062 616.804688 252.851562 618.964844 253.808594 621.042969 C 258.292969 631.824219 265.75 648.039062 276.019531 664.746094 C 298.796875 707.65625 335.429688 696.308594 362.203125 688.015625 C 376.773438 683.492188 391.828125 678.828125 405.664062 680.660156 C 452.300781 686.367188 498.980469 706.292969 533.839844 735.386719 C 544.699219 746.449219 553.035156 755.597656 560.410156 763.6875 C 589.097656 795.167969 600.996094 808.246094 666.722656 830.070312 C 686.730469 837.6875 698.589844 846.246094 702.992188 856.25 C 709.105469 870.1875 703.03125 891.132812 691.175781 920.632812 C 687.425781 930.414062 684.449219 940.417969 681.558594 950.097656 C 676.625 966.679688 671.960938 982.328125 663.933594 995.878906 C 656.882812 1007.675781 646.898438 1017.84375 636.324219 1028.601562 C 629.234375 1035.8125 621.878906 1043.289062 615.421875 1051.277344 C 604.316406 1064.4375 596.003906 1079.292969 587.976562 1093.65625 C 582.148438 1104.089844 576.628906 1113.929688 570.210938 1123.015625 C 556.375 1141.3125 541.929688 1155.453125 529.195312 1167.941406 C 491.296875 1205.066406 461.347656 1234.425781 492.460938 1322.035156 C 492.988281 1324.09375 493.621094 1326.292969 494.273438 1328.578125 C 495.148438 1331.671875 496.515625 1336.421875 497.269531 1340.292969 C 493.152344 1338.601562 488.546875 1335.402344 482.394531 1331.023438 L 481.171875 1330.144531 C 421.207031 1282.246094 412.835938 1191.167969 412.242188 1117.25 C 412.242188 1103.699219 412.691406 1089.90625 413.648438 1074.789062 C 413.933594 1068.492188 414.445312 1061.992188 414.933594 1055.699219 C 416.664062 1033.410156 418.457031 1010.363281 411.898438 987.238281 C 404.378906 961.28125 386.796875 943.820312 369.78125 926.910156 C 363.773438 920.941406 358.109375 915.316406 352.890625 909.347656 C 330.113281 883.265625 307.679688 840.886719 313.039062 800.136719 C 314.179688 791.335938 316.300781 785.691406 318.335938 780.230469 C 321.515625 771.734375 325.101562 762.117188 322.066406 746.980469 C 316.035156 716.847656 291.320312 698.367188 260.042969 674.996094 C 238.140625 658.59375 219.90625 648.550781 205.257812 640.460938 C 187.449219 630.640625 175.386719 625.121094 163.753906 619.800781 C 152.464844 614.625 141.789062 609.757812 126.488281 601.136719 C 113.753906 593.988281 101.589844 586.347656 89.507812 577.992188 C 128.484375 428.484375 217.011719 298.777344 336.429688 207.519531 Z M 749.996094 1432.550781 C 373.632812 1432.550781 67.441406 1126.359375 67.441406 749.996094 C 67.441406 701.933594 72.476562 655.007812 81.96875 609.734375 C 91.605469 616.074219 101.347656 622.042969 111.433594 627.726562 C 127.832031 636.957031 139.589844 642.335938 150.957031 647.550781 C 162.105469 652.644531 173.617188 657.921875 190.425781 667.191406 C 204.238281 674.8125 221.457031 684.308594 241.667969 699.425781 C 272.308594 722.328125 288.46875 735.101562 292.035156 752.949219 C 293.359375 759.550781 292.277344 762.464844 289.628906 769.496094 C 287.226562 775.914062 284.25 783.878906 282.660156 796.144531 C 274.246094 860.101562 316.625 914.316406 329.808594 929.414062 C 335.738281 936.199219 342.054688 942.476562 348.164062 948.546875 C 363.078125 963.359375 377.160156 977.355469 382.4375 995.613281 C 387.46875 1013.398438 385.960938 1032.777344 384.371094 1053.292969 C 383.863281 1059.8125 383.332031 1066.578125 383.046875 1073.078125 C 382.070312 1088.582031 381.601562 1103.007812 381.601562 1117.332031 C 382.253906 1198.300781 392.011719 1298.402344 462.386719 1354.289062 C 462.589844 1354.453125 462.8125 1354.617188 463.039062 1354.777344 L 464.585938 1355.878906 C 475.894531 1363.925781 487.550781 1372.238281 503.441406 1372.238281 C 504.378906 1372.238281 505.355469 1372.21875 506.3125 1372.15625 C 507.476562 1372.078125 508.636719 1371.871094 509.757812 1371.546875 C 536.019531 1363.683594 527.320312 1333.203125 523.59375 1320.183594 C 522.960938 1317.980469 522.347656 1315.84375 521.859375 1313.886719 C 521.738281 1313.398438 521.59375 1312.910156 521.433594 1312.441406 C 496.515625 1242.71875 514.566406 1225.03125 550.527344 1189.761719 C 564.078125 1176.480469 579.4375 1161.441406 594.679688 1141.230469 C 594.761719 1141.109375 594.863281 1140.988281 594.945312 1140.863281 C 602.359375 1130.390625 608.574219 1119.308594 614.585938 1108.570312 C 622.246094 1094.859375 629.5 1081.898438 638.914062 1070.734375 C 644.636719 1063.644531 651.15625 1057.023438 658.042969 1050.011719 C 669.414062 1038.441406 681.171875 1026.480469 690.113281 1011.503906 C 700.097656 994.675781 705.539062 976.441406 710.773438 958.816406 C 713.605469 949.28125 716.296875 940.273438 719.535156 931.820312 C 731.617188 901.808594 742.4375 870.289062 730.90625 843.984375 C 722.917969 825.769531 705.84375 812.242188 677.175781 801.402344 C 676.972656 801.320312 676.789062 801.257812 676.585938 801.199219 C 618.171875 781.820312 610 772.855469 582.945312 743.148438 C 575.28125 734.734375 566.582031 725.199219 555.070312 713.484375 C 554.722656 713.136719 554.378906 712.8125 554.011719 712.507812 C 514.667969 679.457031 461.9375 656.820312 409.472656 650.402344 C 389.160156 647.714844 370.007812 653.644531 353.097656 658.878906 C 321.699219 668.617188 312.652344 669.027344 302.792969 650.160156 C 302.628906 649.832031 302.445312 649.527344 302.261719 649.222656 C 294.90625 637.28125 287.652344 623.039062 281.867188 609.105469 C 281.785156 608.921875 281.703125 608.71875 281.621094 608.535156 C 280.726562 606.578125 279.828125 604.5625 278.953125 602.503906 C 272.414062 587.445312 261.449219 562.179688 231.96875 563.21875 C 225.855469 563.28125 219.722656 564.117188 213.792969 564.910156 C 204.605469 566.15625 195.089844 567.417969 188.855469 565.09375 C 187.734375 564.6875 187.308594 564.28125 186.859375 563.160156 C 185.167969 558.820312 186.53125 549.996094 189.914062 543.496094 C 189.976562 543.375 190.058594 543.234375 190.117188 543.109375 C 200.613281 521.492188 226.367188 501.585938 251.34375 505.640625 C 251.507812 505.660156 251.671875 505.683594 251.832031 505.722656 C 260.738281 506.882812 271.636719 514.15625 281.253906 520.578125 C 289.261719 525.914062 296.167969 530.539062 303.300781 532.761719 C 319.253906 537.628906 331.519531 530.375 339.8125 511.039062 C 341.585938 506.722656 343.253906 502.199219 344.863281 497.816406 C 348.0625 489.097656 351.386719 480.089844 355.542969 472.816406 C 355.601562 472.714844 355.664062 472.613281 355.703125 472.511719 C 362.304688 460.265625 373.144531 449.53125 384.636719 438.179688 L 388.222656 434.636719 C 404.683594 418.335938 421.820312 403.359375 442.074219 387.632812 C 455.886719 377.136719 467.296875 372.144531 478.359375 367.316406 C 498.957031 358.3125 518.417969 349.816406 539.320312 312.632812 C 542.316406 308.476562 546.796875 305.214844 551.6875 303.667969 C 551.851562 303.625 551.996094 303.566406 552.15625 303.523438 C 556.007812 302.160156 560.613281 301.019531 565.480469 299.796875 C 578.15625 296.617188 592.5 293.03125 603.359375 283.375 C 603.460938 283.292969 603.542969 283.210938 603.644531 283.109375 C 616.335938 271.25 618.457031 253.523438 609.960938 230.460938 C 609.917969 230.339844 609.859375 230.214844 609.816406 230.09375 C 597.550781 199.308594 571.902344 178.445312 552.542969 166.363281 C 552.359375 166.238281 552.15625 166.117188 551.953125 166.015625 C 498.328125 135.71875 466.238281 163.121094 444.273438 190.566406 C 442.644531 192.402344 441.011719 194.316406 439.382812 196.230469 C 431.457031 205.542969 423.960938 214.34375 415.257812 216.054688 C 404.523438 216.648438 388.710938 205.847656 373.449219 195.335938 C 370.007812 192.972656 366.523438 190.609375 363 188.265625 C 451.058594 127.40625 554.03125 86.695312 665.257812 72.839844 C 665.011719 89.160156 663.136719 104.382812 659.550781 119.09375 L 659.410156 119.765625 C 655.90625 135.414062 651.953125 153.160156 654.988281 171.433594 C 659.410156 198.289062 677.074219 215.996094 699.976562 216.566406 C 700.097656 216.566406 700.21875 216.566406 700.34375 216.566406 L 700.425781 216.566406 C 722.144531 216.441406 739.136719 201.773438 752.808594 189.957031 C 755.394531 187.714844 757.941406 185.515625 760.425781 183.496094 C 760.53125 183.414062 760.632812 183.3125 760.753906 183.230469 C 773.058594 172.679688 784 165.140625 795.289062 159.414062 C 802.726562 155.542969 810.792969 152.179688 819.332031 148.617188 C 832.878906 142.972656 846.878906 137.144531 859.632812 128.648438 C 875.851562 118.011719 890.925781 104.238281 906.617188 85.738281 C 961.769531 98.738281 1014.359375 118.441406 1063.480469 143.949219 C 1058.082031 157.050781 1054.128906 170.988281 1055.617188 183.945312 C 1056.410156 195.621094 1062.074219 206.867188 1071.242188 214.914062 C 1074.441406 217.726562 1077.90625 219.988281 1081.535156 221.71875 C 1073.078125 222.960938 1064.621094 224.410156 1057.246094 226.976562 C 1026.257812 237 994.941406 258.066406 971.328125 284.78125 C 946.816406 312.550781 937.402344 314.097656 925.484375 316.054688 C 923.34375 316.402344 921.183594 316.769531 918.984375 317.214844 C 915.214844 317.96875 911.140625 318.480469 907.1875 318.96875 C 893.65625 320.640625 876.828125 322.71875 867.332031 337.652344 C 861.382812 347.066406 859.980469 359.675781 863.667969 370.597656 C 872.835938 397.535156 911.160156 408.046875 942.882812 406.375 C 962.28125 405.398438 972.691406 399.714844 981.859375 394.703125 C 989.910156 390.300781 997.527344 386.144531 1013.789062 383.761719 C 1040.703125 379.847656 1057.898438 381.089844 1073.179688 388.101562 C 1076.214844 389.484375 1079.84375 391.460938 1083.652344 393.558594 C 1092.617188 398.449219 1101.90625 403.503906 1110.832031 404.992188 C 1116.640625 405.847656 1122.160156 404.460938 1126.359375 401.058594 C 1130.308594 397.859375 1132.714844 393.234375 1133.121094 388.019531 C 1133.203125 387.183594 1133.222656 386.347656 1133.203125 385.472656 C 1137.503906 389.242188 1140.027344 391.378906 1142.210938 392.804688 C 1150.359375 399.121094 1157.429688 402.914062 1164.214844 404.664062 C 1176.417969 408.007812 1186.910156 404.523438 1195.347656 401.730469 C 1197.8125 400.914062 1200.15625 400.140625 1202.394531 399.613281 C 1203.355469 399.367188 1204.109375 399.507812 1204.921875 400.058594 C 1205.066406 400.140625 1205.1875 400.242188 1205.332031 400.324219 C 1207.632812 401.769531 1210.851562 404.441406 1214.296875 407.253906 C 1221.324219 413.039062 1230.085938 420.25 1240.558594 425.488281 C 1246.589844 428.585938 1252.945312 431.007812 1259.078125 433.332031 C 1268.429688 436.878906 1277.273438 440.238281 1282.691406 445.007812 C 1283.101562 445.394531 1283.40625 445.699219 1283.628906 445.964844 C 1282.613281 447.125 1280.1875 449.203125 1275.542969 451.015625 C 1270.855469 452.832031 1264.90625 453.910156 1258.222656 454.132812 C 1250.359375 454.441406 1242.066406 453.707031 1233.265625 452.933594 C 1229.167969 452.566406 1225.09375 452.21875 1221.261719 451.976562 C 1203.660156 450.609375 1187.277344 452.402344 1172.792969 453.972656 L 1171.058594 454.15625 C 1139.5625 457.375 1120.9375 458.351562 1104.457031 440.808594 C 1104.25 440.585938 1104.046875 440.382812 1103.824219 440.175781 C 1088.175781 425.386719 1070.449219 408.617188 1041.945312 408.351562 C 1029.148438 408.066406 1015.132812 410.632812 1004.640625 412.589844 C 999.585938 413.628906 994.613281 414.546875 989.703125 415.464844 C 966.171875 419.824219 943.941406 423.960938 922.550781 437.691406 C 904.109375 449.609375 890.847656 466.136719 878.011719 482.089844 C 875.648438 485.023438 873.285156 487.976562 870.839844 490.953125 C 868.027344 494.414062 865.152344 497.859375 862.261719 501.28125 C 853.949219 511.203125 845.351562 521.472656 837.914062 532.78125 C 810.753906 570.800781 804.398438 625.222656 821.714844 671.554688 C 836.933594 712.28125 868.191406 740.96875 907.613281 750.300781 C 925.808594 754.417969 944.839844 753.214844 963.257812 752.054688 C 988.871094 750.445312 1013.054688 748.914062 1030.554688 762.097656 C 1040.171875 770.453125 1044.144531 783.289062 1048.75 798.121094 C 1050.605469 804.132812 1052.519531 810.324219 1055.027344 816.722656 C 1057.65625 823.140625 1060.078125 828.886719 1062.300781 834.164062 C 1078.988281 873.75 1082.449219 881.984375 1074.421875 933 C 1069.167969 971.019531 1080.332031 1007.371094 1091.128906 1042.515625 L 1093.023438 1048.667969 C 1093.066406 1048.789062 1093.105469 1048.914062 1093.148438 1049.035156 L 1095.855469 1057.207031 C 1110.773438 1102.519531 1127.640625 1153.761719 1184.140625 1153.761719 C 1185.078125 1153.761719 1186.035156 1153.761719 1186.992188 1153.722656 C 1187.378906 1153.722656 1187.789062 1153.679688 1188.175781 1153.640625 C 1232.714844 1148.851562 1271.996094 1114.03125 1293.960938 1082.917969 C 1305.167969 1066.800781 1311.828125 1049.199219 1318.246094 1032.144531 C 1322.503906 1020.878906 1326.519531 1010.222656 1331.796875 1000.175781 C 1335.21875 993.351562 1339.132812 986.75 1343.289062 979.742188 C 1352.414062 964.335938 1361.871094 948.425781 1366.25 929.457031 C 1370.058594 913.871094 1370 898.160156 1369.9375 882.960938 C 1369.898438 874.648438 1369.875 866.785156 1370.449219 859.222656 C 1370.449219 859.101562 1370.449219 858.980469 1370.46875 858.878906 C 1371.242188 844.859375 1374.441406 832.839844 1380.308594 822.101562 C 1392.65625 799.425781 1414.863281 785.894531 1431.898438 778.355469 C 1417.042969 1141.699219 1116.882812 1432.710938 749.976562 1432.710938 Z M 749.996094 1432.550781 " fill-opacity="1" fill-rule="nonzero"/></g></svg>