<svg xmlns="http://www.w3.org/2000/svg" xmlns:xlink="http://www.w3.org/1999/xlink" width="2000" zoomAndPan="magnify" viewBox="0 0 1500 1499.999933" height="2000" preserveAspectRatio="xMidYMid meet" version="1.0"><path fill="#09497a" d="M 1467.816406 1351.761719 L 1074.082031 958.027344 C 1238.96875 736.617188 1221.617188 421.40625 1020.75 220.542969 C 800.128906 -0.0820312 441.164062 -0.0820312 220.542969 220.542969 C -0.0820312 441.164062 -0.0820312 800.128906 220.542969 1020.75 C 421.40625 1221.617188 736.617188 1238.96875 958.027344 1074.082031 L 1351.761719 1467.816406 C 1383.816406 1499.871094 1435.761719 1499.871094 1467.816406 1467.816406 C 1499.871094 1435.761719 1499.871094 1383.816406 1467.816406 1351.761719 Z M 297.910156 943.386719 C 119.957031 765.4375 119.957031 475.867188 297.910156 297.910156 C 475.867188 119.957031 765.429688 119.957031 943.386719 297.910156 C 1121.339844 475.867188 1121.339844 765.429688 943.386719 943.386719 C 765.429688 1121.339844 475.867188 1121.335938 297.910156 943.386719 Z M 297.910156 943.386719 " fill-opacity="1" fill-rule="nonzero"/><path fill="#09497a" d="M 268.90625 658.871094 C 250.394531 658.871094 235.382812 643.859375 235.382812 625.34375 C 235.382812 415.398438 406.183594 244.597656 616.128906 244.597656 C 634.644531 244.597656 649.65625 259.605469 649.65625 278.121094 C 649.65625 296.636719 634.644531 311.648438 616.128906 311.648438 C 443.15625 311.648438 302.433594 452.371094 302.433594 625.34375 C 302.433594 643.859375 287.429688 658.871094 268.90625 658.871094 Z M 268.90625 658.871094 " fill-opacity="1" fill-rule="nonzero"/></svg>