<svg xmlns="http://www.w3.org/2000/svg" xmlns:xlink="http://www.w3.org/1999/xlink" width="2000" zoomAndPan="magnify" viewBox="0 0 1500 1499.999933" height="2000" preserveAspectRatio="xMidYMid meet" version="1.0"><defs><clipPath id="8aa3095ade"><path d="M 185 1327 L 1315 1327 L 1315 1438.65625 L 185 1438.65625 Z M 185 1327 " clip-rule="nonzero"/></clipPath><clipPath id="c5215d24f7"><path d="M 731 61.65625 L 909 61.65625 L 909 224 L 731 224 Z M 731 61.65625 " clip-rule="nonzero"/></clipPath></defs><path fill="#ffffff" d="M 1156.964844 596.796875 L 337.859375 596.796875 C 328.363281 596.796875 320.59375 589.027344 320.59375 579.53125 C 320.59375 570.039062 328.363281 562.269531 337.859375 562.269531 L 1156.964844 562.269531 C 1166.457031 562.269531 1174.226562 570.039062 1174.226562 579.53125 C 1174.226562 589.027344 1166.457031 596.796875 1156.964844 596.796875 Z M 1156.964844 596.796875 " fill-opacity="1" fill-rule="evenodd"/><path fill="#ffffff" d="M 1240.6875 671.023438 L 251.546875 671.023438 C 242.050781 671.023438 234.28125 663.257812 234.28125 653.761719 L 234.28125 515.660156 C 234.28125 509.621094 237.734375 503.578125 243.777344 500.125 L 746.980469 255.859375 C 752.15625 253.273438 757.335938 253.273438 762.515625 255.859375 L 1248.453125 500.125 C 1254.496094 503.578125 1257.949219 509.621094 1257.949219 515.660156 L 1257.949219 653.761719 C 1257.949219 663.257812 1250.179688 671.023438 1240.6875 671.023438 Z M 268.808594 636.5 L 1223.421875 636.5 L 1223.421875 526.882812 L 754.746094 290.386719 L 268.808594 526.882812 Z M 268.808594 636.5 " fill-opacity="1" fill-rule="evenodd"/><path fill="#ffffff" d="M 1238.097656 1360.660156 L 256.722656 1360.660156 C 247.230469 1360.660156 239.460938 1352.890625 239.460938 1343.398438 L 239.460938 1266.578125 C 239.460938 1257.085938 247.230469 1249.316406 256.722656 1249.316406 L 1238.097656 1249.316406 C 1247.589844 1249.316406 1255.359375 1257.085938 1255.359375 1266.578125 L 1255.359375 1343.398438 C 1255.359375 1352.890625 1247.589844 1360.660156 1238.097656 1360.660156 Z M 273.988281 1326.136719 L 1220.835938 1326.136719 L 1220.835938 1283.84375 L 273.988281 1283.84375 Z M 273.988281 1326.136719 " fill-opacity="1" fill-rule="evenodd"/><g clip-path="url(#8aa3095ade)"><path fill="#ffffff" d="M 1297.652344 1438.339844 L 202.347656 1438.339844 C 192.851562 1438.339844 185.085938 1430.574219 185.085938 1421.078125 L 185.085938 1344.261719 C 185.085938 1334.765625 192.851562 1327 202.347656 1327 L 1297.652344 1327 C 1307.148438 1327 1314.914062 1334.765625 1314.914062 1344.261719 L 1314.914062 1421.078125 C 1314.914062 1430.574219 1307.148438 1438.339844 1297.652344 1438.339844 Z M 219.609375 1403.816406 L 1280.390625 1403.816406 L 1280.390625 1361.523438 L 219.609375 1361.523438 Z M 219.609375 1403.816406 " fill-opacity="1" fill-rule="evenodd"/></g><path fill="#ffffff" d="M 362.886719 1228.601562 L 297.292969 1228.601562 C 287.796875 1228.601562 280.027344 1220.835938 280.027344 1211.339844 L 280.027344 731.441406 C 280.027344 721.949219 287.796875 714.179688 297.292969 714.179688 L 362.886719 714.179688 C 372.382812 714.179688 380.152344 721.949219 380.152344 731.441406 L 380.152344 1211.339844 C 380.152344 1220.835938 372.382812 1228.601562 362.886719 1228.601562 Z M 314.554688 1194.078125 L 345.625 1194.078125 L 345.625 748.707031 L 314.554688 748.707031 Z M 314.554688 1194.078125 " fill-opacity="1" fill-rule="evenodd"/><path fill="#ffffff" d="M 394.824219 748.707031 L 271.398438 748.707031 C 261.902344 748.707031 254.136719 740.9375 254.136719 731.441406 C 254.136719 721.949219 261.902344 714.179688 271.398438 714.179688 L 394.824219 714.179688 C 404.320312 714.179688 412.085938 721.949219 412.085938 731.441406 C 412.085938 740.9375 404.320312 748.707031 394.824219 748.707031 Z M 394.824219 748.707031 " fill-opacity="1" fill-rule="evenodd"/><path fill="#ffffff" d="M 394.824219 748.707031 L 271.398438 748.707031 C 261.902344 748.707031 254.136719 740.9375 254.136719 731.441406 C 254.136719 721.949219 261.902344 714.179688 271.398438 714.179688 L 394.824219 714.179688 C 404.320312 714.179688 412.085938 721.949219 412.085938 731.441406 C 412.085938 740.9375 404.320312 748.707031 394.824219 748.707031 Z M 394.824219 748.707031 " fill-opacity="1" fill-rule="evenodd"/><path fill="#ffffff" d="M 392.234375 1226.875 L 268.808594 1226.875 C 259.3125 1226.875 251.546875 1219.109375 251.546875 1209.613281 C 251.546875 1200.121094 259.3125 1192.351562 268.808594 1192.351562 L 392.234375 1192.351562 C 401.730469 1192.351562 409.496094 1200.121094 409.496094 1209.613281 C 409.496094 1219.109375 401.730469 1226.875 392.234375 1226.875 Z M 392.234375 1226.875 " fill-opacity="1" fill-rule="evenodd"/><path fill="#ffffff" d="M 573.492188 1228.601562 L 507.03125 1228.601562 C 497.535156 1228.601562 489.769531 1220.835938 489.769531 1211.339844 L 489.769531 731.441406 C 489.769531 721.949219 497.535156 714.179688 507.03125 714.179688 L 573.492188 714.179688 C 582.984375 714.179688 590.753906 721.949219 590.753906 731.441406 L 590.753906 1211.339844 C 590.753906 1220.835938 582.984375 1228.601562 573.492188 1228.601562 Z M 524.292969 1194.078125 L 556.230469 1194.078125 L 556.230469 748.707031 L 524.292969 748.707031 Z M 524.292969 1194.078125 " fill-opacity="1" fill-rule="evenodd"/><path fill="#ffffff" d="M 601.972656 748.707031 L 481.136719 748.707031 C 471.640625 748.707031 463.875 740.9375 463.875 731.441406 C 463.875 721.949219 471.640625 714.179688 481.136719 714.179688 L 601.972656 714.179688 C 611.46875 714.179688 619.238281 721.949219 619.238281 731.441406 C 619.238281 740.9375 611.46875 748.707031 601.972656 748.707031 Z M 601.972656 748.707031 " fill-opacity="1" fill-rule="evenodd"/><path fill="#ffffff" d="M 601.972656 748.707031 L 481.136719 748.707031 C 471.640625 748.707031 463.875 740.9375 463.875 731.441406 C 463.875 721.949219 471.640625 714.179688 481.136719 714.179688 L 601.972656 714.179688 C 611.46875 714.179688 619.238281 721.949219 619.238281 731.441406 C 619.238281 740.9375 611.46875 748.707031 601.972656 748.707031 Z M 601.972656 748.707031 " fill-opacity="1" fill-rule="evenodd"/><path fill="#ffffff" d="M 599.382812 1226.875 L 478.546875 1226.875 C 469.054688 1226.875 461.285156 1219.109375 461.285156 1209.613281 C 461.285156 1200.121094 469.054688 1192.351562 478.546875 1192.351562 L 599.382812 1192.351562 C 608.878906 1192.351562 616.648438 1200.121094 616.648438 1209.613281 C 616.648438 1219.109375 608.878906 1226.875 599.382812 1226.875 Z M 599.382812 1226.875 " fill-opacity="1" fill-rule="evenodd"/><path fill="#ffffff" d="M 779.777344 1228.601562 L 714.179688 1228.601562 C 704.6875 1228.601562 696.917969 1220.835938 696.917969 1211.339844 L 696.917969 731.441406 C 696.917969 721.949219 704.6875 714.179688 714.179688 714.179688 L 779.777344 714.179688 C 789.273438 714.179688 797.039062 721.949219 797.039062 731.441406 L 797.039062 1211.339844 C 797.039062 1220.835938 789.273438 1228.601562 779.777344 1228.601562 Z M 731.441406 1194.078125 L 762.515625 1194.078125 L 762.515625 748.707031 L 731.441406 748.707031 Z M 731.441406 1194.078125 " fill-opacity="1" fill-rule="evenodd"/><path fill="#ffffff" d="M 811.714844 748.707031 L 688.285156 748.707031 C 678.792969 748.707031 671.023438 740.9375 671.023438 731.441406 C 671.023438 721.949219 678.792969 714.179688 688.285156 714.179688 L 811.714844 714.179688 C 821.207031 714.179688 828.976562 721.949219 828.976562 731.441406 C 828.976562 740.9375 821.207031 748.707031 811.714844 748.707031 Z M 811.714844 748.707031 " fill-opacity="1" fill-rule="evenodd"/><path fill="#ffffff" d="M 811.714844 748.707031 L 688.285156 748.707031 C 678.792969 748.707031 671.023438 740.9375 671.023438 731.441406 C 671.023438 721.949219 678.792969 714.179688 688.285156 714.179688 L 811.714844 714.179688 C 821.207031 714.179688 828.976562 721.949219 828.976562 731.441406 C 828.976562 740.9375 821.207031 748.707031 811.714844 748.707031 Z M 811.714844 748.707031 " fill-opacity="1" fill-rule="evenodd"/><path fill="#ffffff" d="M 809.125 1226.875 L 685.695312 1226.875 C 676.203125 1226.875 668.433594 1219.109375 668.433594 1209.613281 C 668.433594 1200.121094 676.203125 1192.351562 685.695312 1192.351562 L 809.125 1192.351562 C 818.617188 1192.351562 826.386719 1200.121094 826.386719 1209.613281 C 826.386719 1219.109375 818.617188 1226.875 809.125 1226.875 Z M 809.125 1226.875 " fill-opacity="1" fill-rule="evenodd"/><path fill="#ffffff" d="M 986.925781 1228.601562 L 921.332031 1228.601562 C 911.835938 1228.601562 904.066406 1220.835938 904.066406 1211.339844 L 904.066406 731.441406 C 904.066406 721.949219 911.835938 714.179688 921.332031 714.179688 L 986.925781 714.179688 C 996.421875 714.179688 1004.191406 721.949219 1004.191406 731.441406 L 1004.191406 1211.339844 C 1004.191406 1220.835938 996.421875 1228.601562 986.925781 1228.601562 Z M 938.59375 1194.078125 L 969.664062 1194.078125 L 969.664062 748.707031 L 938.59375 748.707031 Z M 938.59375 1194.078125 " fill-opacity="1" fill-rule="evenodd"/><path fill="#ffffff" d="M 1018.863281 748.707031 L 898.027344 748.707031 C 888.53125 748.707031 880.761719 740.9375 880.761719 731.441406 C 880.761719 721.949219 888.53125 714.179688 898.027344 714.179688 L 1018.863281 714.179688 C 1028.359375 714.179688 1036.125 721.949219 1036.125 731.441406 C 1036.125 740.9375 1028.359375 748.707031 1018.863281 748.707031 Z M 1018.863281 748.707031 " fill-opacity="1" fill-rule="evenodd"/><path fill="#ffffff" d="M 1018.863281 748.707031 L 898.027344 748.707031 C 888.53125 748.707031 880.761719 740.9375 880.761719 731.441406 C 880.761719 721.949219 888.53125 714.179688 898.027344 714.179688 L 1018.863281 714.179688 C 1028.359375 714.179688 1036.125 721.949219 1036.125 731.441406 C 1036.125 740.9375 1028.359375 748.707031 1018.863281 748.707031 Z M 1018.863281 748.707031 " fill-opacity="1" fill-rule="evenodd"/><path fill="#ffffff" d="M 1016.273438 1226.875 L 895.4375 1226.875 C 885.941406 1226.875 878.175781 1219.109375 878.175781 1209.613281 C 878.175781 1200.121094 885.941406 1192.351562 895.4375 1192.351562 L 1016.273438 1192.351562 C 1025.769531 1192.351562 1033.535156 1200.121094 1033.535156 1209.613281 C 1033.535156 1219.109375 1025.769531 1226.875 1016.273438 1226.875 Z M 1016.273438 1226.875 " fill-opacity="1" fill-rule="evenodd"/><path fill="#ffffff" d="M 1197.53125 1228.601562 L 1131.070312 1228.601562 C 1121.574219 1228.601562 1113.808594 1220.835938 1113.808594 1211.339844 L 1113.808594 731.441406 C 1113.808594 721.949219 1121.574219 714.179688 1131.070312 714.179688 L 1197.53125 714.179688 C 1207.023438 714.179688 1214.792969 721.949219 1214.792969 731.441406 L 1214.792969 1211.339844 C 1214.792969 1220.835938 1207.023438 1228.601562 1197.53125 1228.601562 Z M 1148.332031 1194.078125 L 1180.265625 1194.078125 L 1180.265625 748.707031 L 1148.332031 748.707031 Z M 1148.332031 1194.078125 " fill-opacity="1" fill-rule="evenodd"/><path fill="#ffffff" d="M 1229.464844 748.707031 L 1105.175781 748.707031 C 1095.679688 748.707031 1087.914062 740.9375 1087.914062 731.441406 C 1087.914062 721.949219 1095.679688 714.179688 1105.175781 714.179688 L 1229.464844 714.179688 C 1238.960938 714.179688 1246.726562 721.949219 1246.726562 731.441406 C 1246.726562 740.9375 1238.960938 748.707031 1229.464844 748.707031 Z M 1229.464844 748.707031 " fill-opacity="1" fill-rule="evenodd"/><path fill="#ffffff" d="M 1229.464844 748.707031 L 1105.175781 748.707031 C 1095.679688 748.707031 1087.914062 740.9375 1087.914062 731.441406 C 1087.914062 721.949219 1095.679688 714.179688 1105.175781 714.179688 L 1229.464844 714.179688 C 1238.960938 714.179688 1246.726562 721.949219 1246.726562 731.441406 C 1246.726562 740.9375 1238.960938 748.707031 1229.464844 748.707031 Z M 1229.464844 748.707031 " fill-opacity="1" fill-rule="evenodd"/><path fill="#ffffff" d="M 1226.011719 1226.875 L 1102.585938 1226.875 C 1093.09375 1226.875 1085.324219 1219.109375 1085.324219 1209.613281 C 1085.324219 1200.121094 1093.09375 1192.351562 1102.585938 1192.351562 L 1226.011719 1192.351562 C 1235.507812 1192.351562 1243.277344 1200.121094 1243.277344 1209.613281 C 1243.277344 1219.109375 1235.507812 1226.875 1226.011719 1226.875 Z M 1226.011719 1226.875 " fill-opacity="1" fill-rule="evenodd"/><g clip-path="url(#c5215d24f7)"><path fill="#ffffff" d="M 891.121094 223.0625 L 748.707031 223.0625 C 739.210938 223.0625 731.441406 215.292969 731.441406 205.800781 L 731.441406 78.921875 C 731.441406 69.425781 739.210938 61.65625 748.707031 61.65625 L 891.121094 61.65625 C 900.613281 61.65625 908.382812 69.425781 908.382812 78.921875 L 908.382812 205.800781 C 908.382812 215.292969 900.613281 223.0625 891.121094 223.0625 Z M 765.96875 188.539062 L 873.859375 188.539062 L 873.859375 96.183594 L 765.96875 96.183594 Z M 765.96875 188.539062 " fill-opacity="1" fill-rule="evenodd"/></g><path fill="#ffffff" d="M 748.707031 291.25 C 739.210938 291.25 731.441406 283.480469 731.441406 273.988281 L 731.441406 139.339844 C 731.441406 129.84375 739.210938 122.078125 748.707031 122.078125 C 758.199219 122.078125 765.96875 129.84375 765.96875 139.339844 L 765.96875 273.988281 C 765.96875 283.480469 758.199219 291.25 748.707031 291.25 Z M 748.707031 291.25 " fill-opacity="1" fill-rule="evenodd"/></svg>