<svg xmlns="http://www.w3.org/2000/svg" xmlns:xlink="http://www.w3.org/1999/xlink" width="2000" zoomAndPan="magnify" viewBox="0 0 1500 1499.999933" height="2000" preserveAspectRatio="xMidYMid meet" version="1.0"><path fill="#09497a" d="M 766.292969 915.898438 L 727.65625 915.898438 C 704.867188 915.898438 684.21875 899.96875 676.304688 876.242188 L 664.921875 842.082031 C 662.859375 835.90625 661.8125 829.429688 661.8125 822.835938 L 661.8125 709.074219 C 661.8125 702.347656 667.25 696.90625 673.976562 696.90625 C 680.703125 696.90625 686.144531 702.347656 686.144531 709.074219 L 686.144531 822.835938 C 686.144531 826.792969 686.761719 830.679688 687.996094 834.371094 L 699.402344 868.542969 C 703.988281 882.3125 715.347656 891.566406 727.65625 891.566406 L 766.292969 891.566406 C 778.601562 891.566406 789.960938 882.3125 794.546875 868.542969 L 807.164062 830.640625 C 807.589844 829.367188 807.804688 828.085938 807.804688 826.792969 L 807.804688 709.074219 C 807.804688 702.347656 813.246094 696.90625 819.972656 696.90625 C 826.699219 696.90625 832.136719 702.347656 832.136719 709.074219 L 832.136719 826.792969 C 832.136719 830.710938 831.496094 834.597656 830.238281 838.339844 L 817.644531 876.226562 C 809.730469 899.96875 789.082031 915.898438 766.292969 915.898438 Z M 766.292969 915.898438 " fill-opacity="1" fill-rule="nonzero"/><path fill="#09497a" d="M 819.972656 818.570312 L 673.976562 818.570312 C 667.25 818.570312 661.8125 813.128906 661.8125 806.402344 C 661.8125 799.679688 667.25 794.238281 673.976562 794.238281 L 819.972656 794.238281 C 826.699219 794.238281 832.136719 799.679688 832.136719 806.402344 C 832.136719 813.128906 826.699219 818.570312 819.972656 818.570312 Z M 819.972656 818.570312 " fill-opacity="1" fill-rule="nonzero"/><path fill="#09497a" d="M 819.972656 721.242188 L 673.976562 721.242188 C 653.851562 721.242188 637.480469 704.867188 637.480469 684.742188 L 637.480469 651.582031 C 637.480469 627.691406 631.0625 604.1875 618.921875 583.613281 L 589.765625 533.957031 C 573.226562 506.253906 564.480469 474.234375 564.480469 441.417969 C 564.480469 340.785156 646.34375 258.925781 746.976562 258.925781 C 847.605469 258.925781 929.46875 340.785156 929.46875 441.417969 C 929.46875 473.710938 920.984375 505.230469 904.945312 532.699219 C 904.753906 533.140625 904.515625 533.566406 904.277344 533.984375 L 875.027344 583.613281 C 862.886719 604.1875 856.46875 627.691406 856.46875 651.582031 L 856.46875 684.742188 C 856.46875 704.867188 840.097656 721.242188 819.972656 721.242188 Z M 746.976562 283.257812 C 659.765625 283.257812 588.8125 354.210938 588.8125 441.417969 C 588.8125 469.839844 596.371094 497.554688 610.699219 521.566406 L 639.878906 571.265625 C 654.230469 595.5625 661.8125 623.339844 661.8125 651.582031 L 661.8125 684.742188 C 661.8125 691.457031 667.277344 696.90625 673.976562 696.90625 L 819.972656 696.90625 C 826.671875 696.90625 832.136719 691.457031 832.136719 684.742188 L 832.136719 651.582031 C 832.136719 623.339844 839.71875 595.5625 854.070312 571.253906 L 882.5625 522.921875 C 882.75 522.460938 882.988281 522.007812 883.25 521.566406 C 897.578125 497.554688 905.136719 469.839844 905.136719 441.417969 C 905.136719 354.210938 834.183594 283.257812 746.976562 283.257812 Z M 746.976562 283.257812 " fill-opacity="1" fill-rule="nonzero"/><path fill="#09497a" d="M 673.976562 453.585938 C 667.25 453.585938 661.8125 448.144531 661.8125 441.417969 C 661.8125 394.464844 700.019531 356.253906 746.976562 356.253906 C 753.699219 356.253906 759.140625 361.695312 759.140625 368.421875 C 759.140625 375.144531 753.699219 380.585938 746.976562 380.585938 C 713.421875 380.585938 686.144531 407.878906 686.144531 441.417969 C 686.144531 448.144531 680.703125 453.585938 673.976562 453.585938 Z M 673.976562 453.585938 " fill-opacity="1" fill-rule="nonzero"/><path fill="#09497a" d="M 798.964844 1061.894531 C 708.503906 1061.894531 622.984375 1020.144531 567.832031 949.628906 C 488.726562 999.957031 386.386719 1003.25 303.929688 957.339844 C 219.882812 910.578125 169.269531 819.863281 173.617188 724.828125 C 93.539062 661.941406 59.609375 559.230469 87.101562 461.246094 C 114.378906 364.097656 195.859375 293.796875 296.085938 280.011719 C 315.835938 187.484375 379.089844 109.914062 466.773438 71.359375 C 554.121094 32.921875 654.300781 38.28125 736.734375 85.367188 C 797.707031 23.441406 889.476562 0.140625 973.425781 26.125 C 1056.429688 51.789062 1118.070312 121.378906 1133.511719 205.4375 C 1240.941406 188.160156 1346.089844 242.707031 1392.851562 341.011719 C 1440.140625 440.421875 1414.382812 556.851562 1330.546875 627.558594 C 1366.59375 713.933594 1348.988281 812.832031 1284.519531 881.957031 C 1220.007812 951.136719 1121.632812 976.351562 1031.761719 947.492188 C 976.707031 1019.300781 890.355469 1061.894531 798.964844 1061.894531 Z M 570.660156 920.949219 C 574.4375 920.949219 578.167969 922.707031 580.546875 926.023438 C 630.707031 995.859375 712.351562 1037.5625 798.964844 1037.5625 C 885.578125 1037.5625 967.25 995.859375 1017.414062 926.023438 C 1020.59375 921.589844 1026.324219 919.832031 1031.429688 921.675781 C 1114.453125 951.699219 1206.796875 929.597656 1266.746094 865.359375 C 1326.578125 801.175781 1341.453125 708.433594 1304.648438 629.078125 C 1302.246094 623.949219 1303.722656 617.851562 1308.1875 614.371094 C 1388.8125 551.472656 1414.59375 443.355469 1370.898438 351.464844 C 1327.128906 259.492188 1226.328125 210.152344 1125.957031 231.597656 C 1122.628906 232.347656 1119.183594 231.609375 1116.359375 229.613281 C 1113.601562 227.644531 1111.769531 224.589844 1111.34375 221.214844 C 1101.246094 140.957031 1044.289062 73.496094 966.25 49.367188 C 888.167969 25.210938 802.433594 48.570312 747.925781 108.949219 C 744.003906 113.285156 737.515625 114.210938 732.527344 111.148438 C 655.324219 63.648438 559.632812 57.125 476.5625 93.621094 C 393.511719 130.144531 334.347656 204.757812 318.28125 293.214844 C 317.308594 298.535156 312.933594 302.585938 307.542969 303.144531 C 213.230469 312.816406 135.90625 377.460938 110.53125 467.828125 C 85.175781 558.148438 117.707031 652.949219 193.414062 709.335938 C 196.738281 711.820312 198.566406 715.820312 198.285156 719.96875 C 191.890625 807.984375 238.015625 892.816406 315.761719 936.074219 C 393.5625 979.378906 490.867188 974.332031 563.671875 923.15625 C 565.789062 921.660156 568.234375 920.949219 570.660156 920.949219 Z M 570.660156 920.949219 " fill-opacity="1" fill-rule="nonzero"/><path fill="#09497a" d="M 844.304688 1353.882812 C 783.925781 1353.882812 734.808594 1304.765625 734.808594 1244.386719 C 734.808594 1184.007812 783.925781 1134.890625 844.304688 1134.890625 C 904.683594 1134.890625 953.800781 1184.007812 953.800781 1244.386719 C 953.800781 1304.765625 904.683594 1353.882812 844.304688 1353.882812 Z M 844.304688 1159.222656 C 797.351562 1159.222656 759.140625 1197.433594 759.140625 1244.386719 C 759.140625 1291.339844 797.351562 1329.550781 844.304688 1329.550781 C 891.257812 1329.550781 929.46875 1291.339844 929.46875 1244.386719 C 929.46875 1197.433594 891.257812 1159.222656 844.304688 1159.222656 Z M 844.304688 1159.222656 " fill-opacity="1" fill-rule="nonzero"/><path fill="#09497a" d="M 576.648438 1499.878906 C 529.695312 1499.878906 491.484375 1461.667969 491.484375 1414.714844 C 491.484375 1367.761719 529.695312 1329.550781 576.648438 1329.550781 C 623.601562 1329.550781 661.8125 1367.761719 661.8125 1414.714844 C 661.8125 1461.667969 623.601562 1499.878906 576.648438 1499.878906 Z M 576.648438 1353.882812 C 543.097656 1353.882812 515.816406 1381.175781 515.816406 1414.714844 C 515.816406 1448.253906 543.097656 1475.546875 576.648438 1475.546875 C 610.199219 1475.546875 637.480469 1448.253906 637.480469 1414.714844 C 637.480469 1381.175781 610.199219 1353.882812 576.648438 1353.882812 Z M 576.648438 1353.882812 " fill-opacity="1" fill-rule="nonzero"/><path fill="#09497a" d="M 1087.628906 453.585938 L 1038.964844 453.585938 C 1032.238281 453.585938 1026.796875 448.144531 1026.796875 441.417969 C 1026.796875 434.691406 1032.238281 429.25 1038.964844 429.25 L 1087.628906 429.25 C 1094.355469 429.25 1099.792969 434.691406 1099.792969 441.417969 C 1099.792969 448.144531 1094.355469 453.585938 1087.628906 453.585938 Z M 1087.628906 453.585938 " fill-opacity="1" fill-rule="nonzero"/><path fill="#09497a" d="M 953.445312 247.113281 C 950.332031 247.113281 947.21875 245.925781 944.839844 243.550781 C 940.089844 238.800781 940.089844 231.097656 944.839844 226.347656 L 979.25 191.941406 C 984 187.1875 991.699219 187.1875 996.453125 191.941406 C 1001.203125 196.691406 1001.203125 204.390625 996.453125 209.144531 L 962.046875 243.550781 C 959.667969 245.925781 956.558594 247.113281 953.445312 247.113281 Z M 953.445312 247.113281 " fill-opacity="1" fill-rule="nonzero"/><path fill="#09497a" d="M 540.503906 247.113281 C 537.390625 247.113281 534.28125 245.925781 531.902344 243.550781 L 497.496094 209.144531 C 492.746094 204.390625 492.746094 196.691406 497.496094 191.941406 C 502.25 187.1875 509.949219 187.1875 514.699219 191.941406 L 549.109375 226.347656 C 553.859375 231.097656 553.859375 238.800781 549.109375 243.550781 C 546.730469 245.925781 543.617188 247.113281 540.503906 247.113281 Z M 540.503906 247.113281 " fill-opacity="1" fill-rule="nonzero"/><path fill="#09497a" d="M 454.984375 453.585938 L 406.320312 453.585938 C 399.59375 453.585938 394.15625 448.144531 394.15625 441.417969 C 394.15625 434.691406 399.59375 429.25 406.320312 429.25 L 454.984375 429.25 C 461.710938 429.25 467.152344 434.691406 467.152344 441.417969 C 467.152344 448.144531 461.710938 453.585938 454.984375 453.585938 Z M 454.984375 453.585938 " fill-opacity="1" fill-rule="nonzero"/><path fill="#09497a" d="M 506.097656 694.460938 C 502.984375 694.460938 499.871094 693.273438 497.496094 690.894531 C 492.746094 686.144531 492.746094 678.445312 497.496094 673.691406 L 531.902344 639.285156 C 536.65625 634.53125 544.355469 634.53125 549.109375 639.285156 C 553.859375 644.035156 553.859375 651.738281 549.109375 656.488281 L 514.699219 690.894531 C 512.324219 693.273438 509.210938 694.460938 506.097656 694.460938 Z M 506.097656 694.460938 " fill-opacity="1" fill-rule="nonzero"/><path fill="#09497a" d="M 987.851562 694.460938 C 984.738281 694.460938 981.625 693.273438 979.25 690.894531 L 944.839844 656.488281 C 940.089844 651.738281 940.089844 644.035156 944.839844 639.285156 C 949.59375 634.53125 957.292969 634.53125 962.046875 639.285156 L 996.453125 673.691406 C 1001.203125 678.445312 1001.203125 686.144531 996.453125 690.894531 C 994.078125 693.273438 990.964844 694.460938 987.851562 694.460938 Z M 987.851562 694.460938 " fill-opacity="1" fill-rule="nonzero"/></svg>