<svg xmlns="http://www.w3.org/2000/svg" xmlns:xlink="http://www.w3.org/1999/xlink" width="2000" zoomAndPan="magnify" viewBox="0 0 1500 1499.999933" height="2000" preserveAspectRatio="xMidYMid meet" version="1.0"><defs><clipPath id="b059cfe46c"><path d="M 207.183594 45.425781 L 1293 45.425781 L 1293 1454.675781 L 207.183594 1454.675781 Z M 207.183594 45.425781 " clip-rule="nonzero"/></clipPath></defs><g clip-path="url(#b059cfe46c)"><path fill="#747474" d="M 1232.015625 199.910156 L 1000.125 199.910156 L 877.882812 78.320312 C 875.929688 76.367188 873.976562 74.847656 872.019531 73.328125 C 852.695312 57.257812 822.515625 45.75 798.632812 45.75 L 267.980469 45.75 C 234.542969 45.75 207.183594 73.109375 207.183594 106.546875 L 207.183594 1239.289062 C 207.183594 1272.726562 234.542969 1300.082031 267.980469 1300.082031 L 337.457031 1300.082031 L 337.457031 1393.445312 C 337.457031 1426.882812 364.816406 1454.242188 398.253906 1454.242188 L 1232.015625 1454.242188 C 1265.449219 1454.242188 1292.808594 1426.882812 1292.808594 1393.445312 L 1292.808594 260.488281 C 1292.808594 227.050781 1265.449219 199.910156 1232.015625 199.910156 Z M 859.425781 129.5625 L 1077.855469 346.46875 L 870.71875 346.46875 C 864.421875 346.46875 859.210938 341.257812 859.210938 334.960938 L 859.210938 129.5625 Z M 256.472656 1239.289062 L 256.472656 106.546875 C 256.472656 100.25 261.683594 95.039062 267.980469 95.039062 L 798.632812 95.039062 C 802.324219 95.039062 806.449219 95.691406 810.792969 96.777344 C 810.355469 99.816406 810.140625 103.074219 810.140625 106.328125 L 810.140625 334.746094 C 810.140625 368.183594 837.496094 395.539062 870.933594 395.539062 L 1101.738281 395.539062 C 1105.210938 395.539062 1108.46875 395.324219 1111.292969 394.890625 C 1112.378906 399.230469 1113.027344 403.355469 1113.027344 407.046875 L 1113.027344 1239.070312 C 1113.027344 1245.367188 1107.816406 1250.578125 1101.523438 1250.578125 L 267.980469 1250.578125 C 261.683594 1250.796875 256.472656 1245.585938 256.472656 1239.289062 Z M 1243.519531 1393.445312 C 1243.519531 1399.742188 1238.308594 1404.953125 1232.015625 1404.953125 L 398.253906 1404.953125 C 391.957031 1404.953125 386.746094 1399.742188 386.746094 1393.445312 L 386.746094 1300.082031 L 1101.738281 1300.082031 C 1135.175781 1300.082031 1162.535156 1272.726562 1162.535156 1239.289062 L 1162.535156 407.265625 C 1162.535156 383.382812 1151.027344 353.636719 1134.957031 334.3125 C 1133.4375 332.355469 1131.703125 330.402344 1129.53125 328.230469 L 1049.847656 249.199219 L 1232.015625 249.199219 C 1238.308594 249.199219 1243.519531 254.410156 1243.519531 260.707031 Z M 974.9375 579.878906 L 394.78125 579.878906 C 383.054688 579.878906 373.71875 570.324219 373.71875 558.816406 C 373.71875 547.308594 383.273438 537.757812 394.78125 537.757812 L 974.9375 537.757812 C 986.664062 537.757812 996 547.308594 996 558.816406 C 996 570.324219 986.664062 579.878906 974.9375 579.878906 Z M 974.9375 734.039062 L 394.78125 734.039062 C 383.054688 734.039062 373.71875 724.484375 373.71875 712.976562 C 373.71875 701.46875 383.273438 691.914062 394.78125 691.914062 L 974.9375 691.914062 C 986.664062 691.914062 996 701.46875 996 712.976562 C 996 724.484375 986.664062 734.039062 974.9375 734.039062 Z M 974.9375 887.980469 L 394.78125 887.980469 C 383.054688 887.980469 373.71875 878.425781 373.71875 866.917969 C 373.71875 855.410156 383.273438 845.855469 394.78125 845.855469 L 974.9375 845.855469 C 986.664062 845.855469 996 855.410156 996 866.917969 C 996 878.425781 986.664062 887.980469 974.9375 887.980469 Z M 643.605469 1042.136719 L 394.78125 1042.136719 C 383.054688 1042.136719 373.71875 1032.585938 373.71875 1021.078125 C 373.71875 1009.351562 383.273438 1000.015625 394.78125 1000.015625 L 643.605469 1000.015625 C 655.328125 1000.015625 664.667969 1009.570312 664.667969 1021.078125 C 664.667969 1032.585938 655.328125 1042.136719 643.605469 1042.136719 Z M 643.605469 1042.136719 " fill-opacity="1" fill-rule="nonzero"/></g></svg>