<svg xmlns="http://www.w3.org/2000/svg" xmlns:xlink="http://www.w3.org/1999/xlink" width="2000" zoomAndPan="magnify" viewBox="0 0 1500 1499.999933" height="2000" preserveAspectRatio="xMidYMid meet" version="1.0"><defs><clipPath id="da5802b744"><path d="M 56.101562 150 L 1441 150 L 1441 1219.5 L 56.101562 1219.5 Z M 56.101562 150 " clip-rule="nonzero"/></clipPath></defs><g clip-path="url(#da5802b744)"><path fill="#747474" d="M 64.949219 1169.269531 C 59.367188 1157.625 56.140625 1144.546875 56.140625 1130.75 L 56.140625 210.769531 C 56.140625 194.648438 62.597656 179.175781 73.90625 167.785156 C 85.351562 156.378906 100.765625 149.980469 116.914062 149.980469 L 447.363281 149.980469 C 473.636719 149.980469 496.980469 166.890625 505.199219 191.90625 L 519.445312 235.460938 L 1211.304688 235.460938 C 1260.191406 235.460938 1299.828125 275.050781 1299.828125 323.878906 L 1299.828125 477.972656 L 1358.988281 477.972656 C 1383.652344 477.972656 1406.988281 489.160156 1422.554688 508.40625 C 1437.96875 527.636719 1443.839844 552.839844 1438.550781 576.945312 L 1316.707031 1129.234375 C 1309.078125 1164.085938 1286.03125 1192.273438 1255.644531 1207.289062 C 1242.28125 1214.996094 1227.019531 1219.152344 1211.304688 1219.152344 L 144.511719 1219.152344 C 109.574219 1219.152344 79.335938 1198.789062 64.949219 1169.269531 Z M 1270.464844 477.972656 L 1270.464844 323.878906 C 1270.464844 291.257812 1244.042969 264.820312 1211.304688 264.820312 L 508.726562 264.820312 C 502.410156 264.820312 496.691406 260.738281 494.78125 254.707031 L 477.304688 201.019531 C 473.050781 188.089844 461.015625 179.339844 447.363281 179.339844 L 116.914062 179.339844 C 108.546875 179.339844 100.621094 182.65625 94.75 188.542969 C 88.878906 194.445312 85.5 202.429688 85.5 210.769531 L 85.5 1091.640625 L 174.757812 754.382812 L 174.757812 375.40625 C 174.757812 359.578125 181.070312 344.402344 192.222656 333.199219 C 203.382812 322.011719 218.644531 315.714844 234.503906 315.714844 L 1152.882812 315.714844 C 1168.734375 315.714844 1183.855469 322.011719 1195.015625 333.199219 C 1206.316406 344.402344 1212.480469 359.578125 1212.480469 375.40625 L 1212.480469 477.972656 Z M 1288.082031 1122.910156 L 1409.925781 570.617188 C 1413.304688 555.203125 1409.484375 539.085938 1399.648438 526.785156 C 1389.667969 514.484375 1374.84375 507.332031 1358.988281 507.332031 L 309.21875 507.332031 C 286.464844 507.332031 266.507812 522.675781 260.632812 544.679688 L 174.757812 869.105469 L 96.511719 1164.996094 C 107.226562 1180.015625 124.695312 1189.789062 144.511719 1189.789062 L 1204.847656 1189.789062 C 1217.910156 1189.789062 1230.539062 1186.796875 1241.699219 1181.394531 C 1264.746094 1170.324219 1282.210938 1149.15625 1288.082031 1122.910156 Z M 1183.121094 477.972656 L 1183.121094 375.40625 C 1183.121094 367.359375 1180.042969 359.652344 1174.3125 353.957031 C 1168.589844 348.277344 1160.957031 345.074219 1152.882812 345.074219 L 234.503906 345.074219 C 226.429688 345.074219 218.644531 348.277344 213.066406 353.957031 C 207.34375 359.652344 204.117188 367.359375 204.117188 375.40625 L 204.117188 643.460938 L 232.300781 537.179688 C 241.550781 502.285156 273.113281 477.972656 309.21875 477.972656 Z M 1183.121094 477.972656 " fill-opacity="1" fill-rule="evenodd"/></g></svg>