<svg xmlns="http://www.w3.org/2000/svg" xmlns:xlink="http://www.w3.org/1999/xlink" width="2000" zoomAndPan="magnify" viewBox="0 0 1500 1499.999933" height="2000" preserveAspectRatio="xMidYMid meet" version="1.0"><path fill="#747474" d="M 298.058594 393.457031 L 25.5 696.4375 L 131.355469 688.199219 C 131.355469 688.199219 119.945312 863.773438 200.445312 1012.730469 C 280.945312 1161.683594 358.273438 1208.589844 398.839844 1242.183594 C 439.40625 1275.777344 571.882812 1355.011719 769.011719 1363.25 C 966.136719 1371.492188 1080.230469 1292.894531 1080.230469 1292.894531 L 1014.3125 1164.222656 C 1014.3125 1164.222656 862.1875 1247.253906 703.089844 1217.464844 C 543.992188 1187.671875 503.425781 1138.867188 454.621094 1107.175781 C 405.179688 1075.480469 279.675781 917.019531 271.4375 750.949219 L 322.144531 797.21875 Z M 298.058594 393.457031 " fill-opacity="1" fill-rule="nonzero"/><path fill="#747474" d="M 1201.929688 1107.175781 L 1474.488281 804.191406 L 1368.632812 812.433594 C 1368.632812 812.433594 1380.042969 636.855469 1299.542969 487.902344 C 1219.046875 338.945312 1142.347656 291.40625 1101.78125 257.8125 C 1061.214844 224.21875 928.742188 144.988281 731.613281 136.746094 C 534.484375 128.507812 419.757812 207.105469 419.757812 207.105469 L 485.679688 336.410156 C 485.679688 336.410156 637.804688 253.375 796.898438 283.167969 C 955.996094 312.957031 996.5625 361.128906 1045.371094 393.457031 C 1094.808594 425.148438 1220.3125 583.613281 1228.554688 749.679688 L 1177.84375 703.410156 Z M 1201.929688 1107.175781 " fill-opacity="1" fill-rule="nonzero"/></svg>