<svg xmlns="http://www.w3.org/2000/svg" xmlns:xlink="http://www.w3.org/1999/xlink" width="2000" zoomAndPan="magnify" viewBox="0 0 1500 1499.999933" height="2000" preserveAspectRatio="xMidYMid meet" version="1.0"><defs><clipPath id="7aac8541f6"><path d="M 133.476562 375.207031 L 1366.476562 375.207031 L 1366.476562 1124.457031 L 133.476562 1124.457031 Z M 133.476562 375.207031 " clip-rule="nonzero"/></clipPath></defs><g clip-path="url(#7aac8541f6)"><path fill="#09497a" d="M 828.25 1049.367188 C 930.367188 1049.367188 1032.566406 1049.367188 1134.683594 1049.367188 C 1181.511719 1049.367188 1228.339844 1048.296875 1275.167969 1049.695312 C 1295.050781 1050.269531 1301.046875 1044.4375 1300.71875 1024.554688 C 1298.828125 902.800781 1298.007812 781.050781 1297.105469 659.296875 C 1296.609375 594.476562 1296.609375 529.574219 1296.527344 464.753906 C 1296.527344 457.769531 1297.1875 450.707031 1297.597656 441.257812 C 1308.03125 441.257812 1317.148438 441.175781 1326.351562 441.257812 C 1350.832031 441.421875 1355.351562 445.613281 1355.84375 470.011719 C 1357.734375 569.417969 1359.542969 668.828125 1361.183594 768.234375 C 1362.910156 871.253906 1364.472656 974.277344 1366.113281 1077.300781 C 1366.523438 1105.394531 1365.128906 1107.039062 1337.605469 1106.792969 C 1174.035156 1105.394531 1010.550781 1103.589844 846.980469 1103.011719 C 833.011719 1102.929688 818.800781 1109.667969 805.082031 1114.433594 C 767.863281 1127.496094 731.222656 1129.46875 694.417969 1112.789062 C 683.820312 1108.023438 672.074219 1102.765625 660.816406 1102.765625 C 495.113281 1103.589844 329.40625 1105.230469 163.699219 1106.710938 C 133.714844 1106.957031 133.386719 1106.875 133.878906 1076.722656 C 137.164062 879.386719 140.367188 681.972656 144.066406 484.636719 C 144.886719 440.355469 152.28125 435.507812 201.328125 444.625 C 201.328125 452.429688 201.328125 460.8125 201.328125 469.109375 C 200.832031 647.054688 200.257812 825.003906 199.765625 1002.949219 C 199.765625 1010.835938 200.585938 1018.886719 199.765625 1026.691406 C 197.957031 1045.09375 206.503906 1049.449219 223.753906 1049.367188 C 353.394531 1048.875 483.117188 1049.285156 612.757812 1049.367188 C 635.511719 1049.367188 658.269531 1049.367188 681.027344 1049.367188 C 681.4375 1047.230469 681.847656 1045.011719 682.257812 1042.875 C 653.421875 1036.714844 624.667969 1025.625 595.75 1025.296875 C 479.832031 1023.734375 363.746094 1025.128906 247.828125 1026.28125 C 230.738281 1026.445312 224.988281 1021.351562 225.070312 1004.261719 C 225.5625 811.199219 225.480469 618.054688 225.398438 424.992188 C 225.398438 413.324219 226.300781 403.386719 240.433594 400.511719 C 343.945312 379.230469 448.613281 363.621094 553.195312 386.460938 C 607.5 398.292969 659.503906 421.707031 711.671875 442.078125 C 729.992188 449.226562 744.039062 451.773438 763.429688 442.820312 C 915.25 372.332031 1073.398438 360.089844 1236.0625 395.25 C 1272.867188 403.222656 1272.785156 402.972656 1272.785156 441.257812 C 1273.03125 627.175781 1273.03125 813.007812 1274.101562 998.921875 C 1274.183594 1019.707031 1268.84375 1025.542969 1247.648438 1025.378906 C 1133.863281 1024.144531 1019.996094 1023.488281 906.128906 1025.296875 C 879.675781 1025.707031 853.386719 1036.386719 827.097656 1042.300781 C 827.507812 1044.601562 827.917969 1046.984375 828.25 1049.367188 Z M 258.425781 993.171875 C 423.800781 942.8125 581.375 966.144531 738.535156 1027.59375 C 738.535156 1015.601562 738.617188 1007.878906 738.535156 1000.074219 C 737.46875 939.609375 736.398438 879.140625 735.332031 818.757812 C 733.441406 712.945312 731.714844 607.210938 729.167969 501.394531 C 729.003906 494.496094 723.746094 483.484375 718.242188 481.433594 C 659.75 459.578125 602.078125 433.453125 541.609375 419.734375 C 455.019531 400.097656 367.03125 412.421875 279.949219 425.976562 C 262.367188 428.6875 258.09375 435.015625 258.175781 451.855469 C 258.753906 623.148438 258.507812 794.441406 258.507812 965.816406 C 258.425781 973.621094 258.425781 981.261719 258.425781 993.171875 Z M 1240.582031 992.925781 C 1240.582031 933.035156 1240.582031 877.007812 1240.582031 820.894531 C 1240.582031 697.746094 1240.664062 574.511719 1240.664062 451.363281 C 1240.664062 441.75 1243.867188 430.824219 1228.667969 428.113281 C 1129.507812 410.53125 1030.019531 399.605469 930.941406 425.402344 C 883.046875 437.890625 836.710938 456.457031 789.308594 471 C 772.300781 476.175781 767.945312 485.210938 768.355469 502.300781 C 771.808594 668.664062 774.355469 835.023438 777.230469 1001.386719 C 777.3125 1006.890625 778.296875 1012.480469 779.121094 1020.53125 C 853.714844 993.253906 928.3125 972.960938 1006.359375 967.457031 C 1084.652344 962.035156 1161.386719 970.25 1240.582031 992.925781 Z M 1240.582031 992.925781 " fill-opacity="1" fill-rule="nonzero"/></g></svg>